<?xml version="1.0" encoding="UTF-8" standalone="no"?>
<!DOCTYPE svg PUBLIC "-//W3C//DTD SVG 1.1//EN"
 "http://www.w3.org/Graphics/SVG/1.1/DTD/svg11.dtd">
<!-- Generated by graphviz version 12.2.1 (20241206.2353)
 -->
<!-- Title: Pruning Pages: 1 -->
<svg width="583pt" height="641pt"
 viewBox="0.00 0.00 583.20 640.50" xmlns="http://www.w3.org/2000/svg" xmlns:xlink="http://www.w3.org/1999/xlink">
<g id="graph0" class="graph" transform="scale(1 1) rotate(0) translate(4 636.5)">
<title>Pruning</title>
<polygon fill="white" stroke="none" points="-4,4 -4,-636.5 579.2,-636.5 579.2,4 -4,4"/>
<text text-anchor="start" x="141.73" y="-611.3" font-family="Songti SC" font-size="16.00">nginx 偏序集上的单查询剪枝（诱导子图）</text>
<text text-anchor="start" x="131.98" y="-585.05" font-family="Times New Roman" font-size="16.00">|</text>
<text text-anchor="start" x="136.48" y="-585.05" font-family="Times New Roman" font-style="italic" font-size="16.00">C</text>
<text text-anchor="start" x="147.73" y="-585.05" font-family="Times New Roman" font-size="16.00">|=96, </text>
<text text-anchor="start" x="188.23" y="-585.05" font-family="Songti SC" font-size="16.00">查询</text>
<text text-anchor="start" x="219.73" y="-585.05" font-family="Times New Roman" font-size="16.00">=</text>
<text text-anchor="start" x="228.73" y="-585.05" font-family="Times New Roman" font-style="italic" font-size="16.00">C</text>
<text text-anchor="start" x="239.98" y="-585.05" font-family="Times New Roman" baseline-shift="sub" font-size="16.00">81</text>
<text text-anchor="start" x="254.98" y="-585.05" font-family="Times New Roman" font-size="16.00">, |</text>
<text text-anchor="start" x="268.48" y="-585.05" font-family="Times New Roman" font-style="italic" font-size="16.00">anc</text>
<text text-anchor="start" x="294.73" y="-585.05" font-family="Times New Roman" font-size="16.00">(</text>
<text text-anchor="start" x="299.98" y="-585.05" font-family="Times New Roman" font-style="italic" font-size="16.00">c</text>
<text text-anchor="start" x="308.23" y="-585.05" font-family="Times New Roman" font-size="16.00">)|=16, |</text>
<text text-anchor="start" x="358.48" y="-585.05" font-family="Times New Roman" font-style="italic" font-size="16.00">desc</text>
<text text-anchor="start" x="392.98" y="-585.05" font-family="Times New Roman" font-size="16.00">(</text>
<text text-anchor="start" x="398.23" y="-585.05" font-family="Times New Roman" font-style="italic" font-size="16.00">c</text>
<text text-anchor="start" x="406.48" y="-585.05" font-family="Times New Roman" font-size="16.00">)|=12</text>
<g id="clust1" class="cluster">
<title>cluster_CaseB</title>
<path fill="none" stroke="#cccccc" stroke-dasharray="5,2" d="M20,-8C20,-8 555.2,-8 555.2,-8 561.2,-8 567.2,-14 567.2,-20 567.2,-20 567.2,-269 567.2,-269 567.2,-275 561.2,-281 555.2,-281 555.2,-281 20,-281 20,-281 14,-281 8,-275 8,-269 8,-269 8,-20 8,-20 8,-14 14,-8 20,-8"/>
<text text-anchor="start" x="170.6" y="-262.8" font-family="Songti SC" font-size="16.00">情况二：</text>
<text text-anchor="start" x="233.6" y="-262.8" font-family="Times New Roman" font-style="italic" font-size="16.00">g</text>
<text text-anchor="start" x="242.6" y="-262.8" font-family="Times New Roman" font-size="16.00">(</text>
<text text-anchor="start" x="247.85" y="-262.8" font-family="Times New Roman" font-style="italic" font-size="16.00">c</text>
<text text-anchor="start" x="256.1" y="-262.8" font-family="Times New Roman" font-size="16.00">) ≥ 0, </text>
<text text-anchor="start" x="297.35" y="-262.8" font-family="Times New Roman" font-style="italic" font-size="16.00">C</text>
<text text-anchor="start" x="308.6" y="-262.8" font-family="Times New Roman" font-size="16.00"> ← </text>
<text text-anchor="start" x="334.85" y="-262.8" font-family="Times New Roman" font-style="italic" font-size="16.00">C</text>
<text text-anchor="start" x="346.1" y="-262.8" font-family="Times New Roman" font-size="16.00"> \ </text>
<text text-anchor="start" x="359.6" y="-262.8" font-family="Times New Roman" font-style="italic" font-size="16.00">anc</text>
<text text-anchor="start" x="385.85" y="-262.8" font-family="Times New Roman" font-size="16.00">(</text>
<text text-anchor="start" x="391.1" y="-262.8" font-family="Times New Roman" font-style="italic" font-size="16.00">c</text>
<text text-anchor="start" x="399.35" y="-262.8" font-family="Times New Roman" font-size="16.00">)</text>
</g>
<g id="clust2" class="cluster">
<title>cluster_CaseA</title>
<path fill="none" stroke="#cccccc" stroke-dasharray="5,2" d="M20,-289C20,-289 555.2,-289 555.2,-289 561.2,-289 567.2,-295 567.2,-301 567.2,-301 567.2,-550 567.2,-550 567.2,-556 561.2,-562 555.2,-562 555.2,-562 20,-562 20,-562 14,-562 8,-556 8,-550 8,-550 8,-301 8,-301 8,-295 14,-289 20,-289"/>
<text text-anchor="start" x="166.48" y="-543.8" font-family="Songti SC" font-size="16.00">情况一：</text>
<text text-anchor="start" x="229.48" y="-543.8" font-family="Times New Roman" font-style="italic" font-size="16.00">g</text>
<text text-anchor="start" x="238.48" y="-543.8" font-family="Times New Roman" font-size="16.00">(</text>
<text text-anchor="start" x="243.73" y="-543.8" font-family="Times New Roman" font-style="italic" font-size="16.00">c</text>
<text text-anchor="start" x="251.98" y="-543.8" font-family="Times New Roman" font-size="16.00">) &lt; 0, </text>
<text text-anchor="start" x="293.23" y="-543.8" font-family="Times New Roman" font-style="italic" font-size="16.00">C</text>
<text text-anchor="start" x="304.48" y="-543.8" font-family="Times New Roman" font-size="16.00"> ← </text>
<text text-anchor="start" x="330.73" y="-543.8" font-family="Times New Roman" font-style="italic" font-size="16.00">C</text>
<text text-anchor="start" x="341.98" y="-543.8" font-family="Times New Roman" font-size="16.00"> \ </text>
<text text-anchor="start" x="355.48" y="-543.8" font-family="Times New Roman" font-style="italic" font-size="16.00">desc</text>
<text text-anchor="start" x="389.98" y="-543.8" font-family="Times New Roman" font-size="16.00">(</text>
<text text-anchor="start" x="395.23" y="-543.8" font-family="Times New Roman" font-style="italic" font-size="16.00">c</text>
<text text-anchor="start" x="403.48" y="-543.8" font-family="Times New Roman" font-size="16.00">)</text>
</g>
<!-- CaseB_1_1 -->
<g id="node1" class="node">
<title>CaseB_1_1</title>
<ellipse fill="#424242" stroke="black" cx="35.8" cy="-98" rx="19.8" ry="19.8"/>
</g>
<!-- CaseB_2_1 -->
<g id="node3" class="node">
<title>CaseB_2_1</title>
<ellipse fill="#757575" stroke="black" cx="118.4" cy="-98" rx="19.8" ry="19.8"/>
</g>
<!-- CaseB_1_1&#45;&gt;CaseB_2_1 -->
<g id="edge1" class="edge">
<title>CaseB_1_1&#45;&gt;CaseB_2_1</title>
<path fill="none" stroke="#999999" stroke-width="1.2" d="M55.9,-98C65.97,-98 78.5,-98 89.62,-98"/>
<polygon fill="#999999" stroke="#999999" stroke-width="1.2" points="89.34,-100.45 96.34,-98 89.34,-95.55 89.34,-100.45"/>
</g>
<!-- CaseB_1_2 -->
<g id="node2" class="node">
<title>CaseB_1_2</title>
<ellipse fill="#757575" stroke="black" cx="35.8" cy="-36" rx="19.8" ry="19.8"/>
</g>
<!-- CaseB_2_4 -->
<g id="node6" class="node">
<title>CaseB_2_4</title>
<ellipse fill="#757575" stroke="black" cx="118.4" cy="-36" rx="19.8" ry="19.8"/>
</g>
<!-- CaseB_1_2&#45;&gt;CaseB_2_4 -->
<g id="edge2" class="edge">
<title>CaseB_1_2&#45;&gt;CaseB_2_4</title>
<path fill="none" stroke="#999999" stroke-width="1.2" d="M55.9,-36C65.97,-36 78.5,-36 89.62,-36"/>
<polygon fill="#999999" stroke="#999999" stroke-width="1.2" points="89.34,-38.45 96.34,-36 89.34,-33.55 89.34,-38.45"/>
</g>
<!-- CaseB_3_1 -->
<g id="node7" class="node">
<title>CaseB_3_1</title>
<ellipse fill="#bdbdbd" stroke="black" cx="201" cy="-98" rx="19.8" ry="19.8"/>
</g>
<!-- CaseB_2_1&#45;&gt;CaseB_3_1 -->
<g id="edge3" class="edge">
<title>CaseB_2_1&#45;&gt;CaseB_3_1</title>
<path fill="none" stroke="#999999" stroke-width="1.2" d="M138.5,-98C148.57,-98 161.1,-98 172.22,-98"/>
<polygon fill="#999999" stroke="#999999" stroke-width="1.2" points="171.94,-100.45 178.94,-98 171.94,-95.55 171.94,-100.45"/>
</g>
<!-- CaseB_2_2 -->
<g id="node4" class="node">
<title>CaseB_2_2</title>
<ellipse fill="#9e9e9e" stroke="black" cx="118.4" cy="-160" rx="19.8" ry="19.8"/>
</g>
<!-- CaseB_2_2&#45;&gt;CaseB_3_1 -->
<g id="edge4" class="edge">
<title>CaseB_2_2&#45;&gt;CaseB_3_1</title>
<path fill="none" stroke="#999999" stroke-width="1.2" d="M134.56,-148.34C146.75,-138.96 164.06,-125.65 177.81,-115.07"/>
<polygon fill="#999999" stroke="#999999" stroke-width="1.2" points="179.14,-117.14 183.19,-110.93 176.15,-113.25 179.14,-117.14"/>
</g>
<!-- CaseB_3_2 -->
<g id="node8" class="node">
<title>CaseB_3_2</title>
<ellipse fill="#bdbdbd" stroke="black" cx="201" cy="-160" rx="19.8" ry="19.8"/>
</g>
<!-- CaseB_2_2&#45;&gt;CaseB_3_2 -->
<g id="edge5" class="edge">
<title>CaseB_2_2&#45;&gt;CaseB_3_2</title>
<path fill="none" stroke="#999999" stroke-width="1.2" d="M138.5,-160C148.57,-160 161.1,-160 172.22,-160"/>
<polygon fill="#999999" stroke="#999999" stroke-width="1.2" points="171.94,-162.45 178.94,-160 171.94,-157.55 171.94,-162.45"/>
</g>
<!-- CaseB_2_3 -->
<g id="node5" class="node">
<title>CaseB_2_3</title>
<ellipse fill="#424242" stroke="black" cx="118.4" cy="-222" rx="19.8" ry="19.8"/>
</g>
<!-- CaseB_2_3&#45;&gt;CaseB_3_2 -->
<g id="edge6" class="edge">
<title>CaseB_2_3&#45;&gt;CaseB_3_2</title>
<path fill="none" stroke="#999999" stroke-width="1.2" d="M134.56,-210.34C146.75,-200.96 164.06,-187.65 177.81,-177.07"/>
<polygon fill="#999999" stroke="#999999" stroke-width="1.2" points="179.14,-179.14 183.19,-172.93 176.15,-175.25 179.14,-179.14"/>
</g>
<!-- CaseB_3_3 -->
<g id="node9" class="node">
<title>CaseB_3_3</title>
<ellipse fill="#9e9e9e" stroke="black" cx="201" cy="-36" rx="19.8" ry="19.8"/>
</g>
<!-- CaseB_2_4&#45;&gt;CaseB_3_3 -->
<g id="edge7" class="edge">
<title>CaseB_2_4&#45;&gt;CaseB_3_3</title>
<path fill="none" stroke="#999999" stroke-width="1.2" d="M138.5,-36C148.57,-36 161.1,-36 172.22,-36"/>
<polygon fill="#999999" stroke="#999999" stroke-width="1.2" points="171.94,-38.45 178.94,-36 171.94,-33.55 171.94,-38.45"/>
</g>
<!-- CaseB_Q -->
<g id="node10" class="node">
<title>CaseB_Q</title>
<ellipse fill="#ffe0b2" stroke="#f57c00" stroke-width="2" cx="287.6" cy="-98" rx="19.8" ry="19.8"/>
<ellipse fill="none" stroke="#f57c00" stroke-width="2" cx="287.6" cy="-98" rx="23.8" ry="23.8"/>
</g>
<!-- CaseB_3_1&#45;&gt;CaseB_Q -->
<g id="edge8" class="edge">
<title>CaseB_3_1&#45;&gt;CaseB_Q</title>
<path fill="none" stroke="#999999" stroke-width="1.2" d="M221.2,-98C230.97,-98 243.11,-98 254.27,-98"/>
<polygon fill="#999999" stroke="#999999" stroke-width="1.2" points="254.13,-100.45 261.13,-98 254.13,-95.55 254.13,-100.45"/>
</g>
<!-- CaseB_3_2&#45;&gt;CaseB_Q -->
<g id="edge9" class="edge">
<title>CaseB_3_2&#45;&gt;CaseB_Q</title>
<path fill="none" stroke="#999999" stroke-width="1.2" d="M217.52,-148.63C229.46,-139.88 246.24,-127.58 260.27,-117.29"/>
<polygon fill="#999999" stroke="#999999" stroke-width="1.2" points="261.66,-119.32 265.86,-113.2 258.76,-115.36 261.66,-119.32"/>
</g>
<!-- CaseB_3_3&#45;&gt;CaseB_Q -->
<g id="edge10" class="edge">
<title>CaseB_3_3&#45;&gt;CaseB_Q</title>
<path fill="none" stroke="#999999" stroke-width="1.2" d="M217.52,-47.37C229.46,-56.12 246.24,-68.42 260.27,-78.71"/>
<polygon fill="#999999" stroke="#999999" stroke-width="1.2" points="258.76,-80.64 265.86,-82.8 261.66,-76.68 258.76,-80.64"/>
</g>
<!-- CaseB_4_1 -->
<g id="node11" class="node">
<title>CaseB_4_1</title>
<ellipse fill="#bdbdbd" stroke="black" cx="374.2" cy="-36" rx="19.8" ry="19.8"/>
</g>
<!-- CaseB_Q&#45;&gt;CaseB_4_1 -->
<g id="edge11" class="edge">
<title>CaseB_Q&#45;&gt;CaseB_4_1</title>
<path fill="none" stroke="#999999" stroke-width="1.2" d="M307.8,-83.93C320.55,-74.59 337.34,-62.28 350.72,-52.48"/>
<polygon fill="#999999" stroke="#999999" stroke-width="1.2" points="352.09,-54.51 356.28,-48.4 349.19,-50.56 352.09,-54.51"/>
</g>
<!-- CaseB_4_2 -->
<g id="node12" class="node">
<title>CaseB_4_2</title>
<ellipse fill="#e0e0e0" stroke="black" cx="374.2" cy="-98" rx="19.8" ry="19.8"/>
</g>
<!-- CaseB_Q&#45;&gt;CaseB_4_2 -->
<g id="edge12" class="edge">
<title>CaseB_Q&#45;&gt;CaseB_4_2</title>
<path fill="none" stroke="#999999" stroke-width="1.2" d="M312.17,-98C322.48,-98 334.65,-98 345.41,-98"/>
<polygon fill="#999999" stroke="#999999" stroke-width="1.2" points="345.21,-100.45 352.21,-98 345.21,-95.55 345.21,-100.45"/>
</g>
<!-- CaseB_4_3 -->
<g id="node13" class="node">
<title>CaseB_4_3</title>
<ellipse fill="#bdbdbd" stroke="black" cx="374.2" cy="-191" rx="19.8" ry="19.8"/>
</g>
<!-- CaseB_Q&#45;&gt;CaseB_4_3 -->
<g id="edge13" class="edge">
<title>CaseB_Q&#45;&gt;CaseB_4_3</title>
<path fill="none" stroke="#999999" stroke-width="1.2" d="M304.51,-115.49C318.71,-131.1 339.51,-153.97 354.5,-170.44"/>
<polygon fill="#999999" stroke="#999999" stroke-width="1.2" points="352.39,-171.76 358.91,-175.29 356.01,-168.46 352.39,-171.76"/>
</g>
<!-- CaseB_5_1 -->
<g id="node14" class="node">
<title>CaseB_5_1</title>
<ellipse fill="#f5f5f5" stroke="black" cx="456.8" cy="-36" rx="19.8" ry="19.8"/>
</g>
<!-- CaseB_4_1&#45;&gt;CaseB_5_1 -->
<g id="edge14" class="edge">
<title>CaseB_4_1&#45;&gt;CaseB_5_1</title>
<path fill="none" stroke="#999999" stroke-width="1.2" d="M394.3,-36C404.37,-36 416.9,-36 428.02,-36"/>
<polygon fill="#999999" stroke="#999999" stroke-width="1.2" points="427.74,-38.45 434.74,-36 427.74,-33.55 427.74,-38.45"/>
</g>
<!-- CaseB_5_2 -->
<g id="node15" class="node">
<title>CaseB_5_2</title>
<ellipse fill="#f5f5f5" stroke="black" cx="456.8" cy="-98" rx="19.8" ry="19.8"/>
</g>
<!-- CaseB_4_2&#45;&gt;CaseB_5_2 -->
<g id="edge15" class="edge">
<title>CaseB_4_2&#45;&gt;CaseB_5_2</title>
<path fill="none" stroke="#999999" stroke-width="1.2" d="M394.3,-98C404.37,-98 416.9,-98 428.02,-98"/>
<polygon fill="#999999" stroke="#999999" stroke-width="1.2" points="427.74,-100.45 434.74,-98 427.74,-95.55 427.74,-100.45"/>
</g>
<!-- CaseB_5_3 -->
<g id="node16" class="node">
<title>CaseB_5_3</title>
<ellipse fill="#f5f5f5" stroke="black" cx="456.8" cy="-160" rx="19.8" ry="19.8"/>
</g>
<!-- CaseB_4_2&#45;&gt;CaseB_5_3 -->
<g id="edge16" class="edge">
<title>CaseB_4_2&#45;&gt;CaseB_5_3</title>
<path fill="none" stroke="#999999" stroke-width="1.2" d="M390.36,-109.66C402.55,-119.04 419.86,-132.35 433.61,-142.93"/>
<polygon fill="#999999" stroke="#999999" stroke-width="1.2" points="431.95,-144.75 438.99,-147.07 434.94,-140.86 431.95,-144.75"/>
</g>
<!-- CaseB_5_4 -->
<g id="node17" class="node">
<title>CaseB_5_4</title>
<ellipse fill="#f5f5f5" stroke="black" cx="456.8" cy="-222" rx="19.8" ry="19.8"/>
</g>
<!-- CaseB_4_3&#45;&gt;CaseB_5_4 -->
<g id="edge17" class="edge">
<title>CaseB_4_3&#45;&gt;CaseB_5_4</title>
<path fill="none" stroke="#999999" stroke-width="1.2" d="M393.09,-197.88C403.94,-202.05 417.97,-207.45 430.01,-212.08"/>
<polygon fill="#999999" stroke="#999999" stroke-width="1.2" points="428.85,-214.26 436.27,-214.49 430.61,-209.69 428.85,-214.26"/>
</g>
<!-- CaseB_6_1 -->
<g id="node18" class="node">
<title>CaseB_6_1</title>
<ellipse fill="#f5f5f5" stroke="black" cx="539.4" cy="-82" rx="19.8" ry="19.8"/>
</g>
<!-- CaseB_5_1&#45;&gt;CaseB_6_1 -->
<g id="edge18" class="edge">
<title>CaseB_5_1&#45;&gt;CaseB_6_1</title>
<path fill="none" stroke="#999999" stroke-width="1.2" d="M474.5,-45.53C485.96,-52.07 501.34,-60.85 514.14,-68.16"/>
<polygon fill="#999999" stroke="#999999" stroke-width="1.2" points="512.85,-70.24 520.14,-71.58 515.28,-65.98 512.85,-70.24"/>
</g>
<!-- CaseB_5_2&#45;&gt;CaseB_6_1 -->
<g id="edge19" class="edge">
<title>CaseB_5_2&#45;&gt;CaseB_6_1</title>
<path fill="none" stroke="#999999" stroke-width="1.2" d="M476.49,-94.29C486.8,-92.24 499.77,-89.67 511.18,-87.4"/>
<polygon fill="#999999" stroke="#999999" stroke-width="1.2" points="511.36,-89.87 517.75,-86.1 510.4,-85.06 511.36,-89.87"/>
</g>
<!-- CaseB_6_2 -->
<g id="node19" class="node">
<title>CaseB_6_2</title>
<ellipse fill="#f5f5f5" stroke="black" cx="539.4" cy="-175" rx="19.8" ry="19.8"/>
</g>
<!-- CaseB_5_3&#45;&gt;CaseB_6_2 -->
<g id="edge20" class="edge">
<title>CaseB_5_3&#45;&gt;CaseB_6_2</title>
<path fill="none" stroke="#999999" stroke-width="1.2" d="M476.49,-163.48C486.8,-165.4 499.77,-167.81 511.18,-169.93"/>
<polygon fill="#999999" stroke="#999999" stroke-width="1.2" points="510.41,-172.28 517.74,-171.16 511.31,-167.47 510.41,-172.28"/>
</g>
<!-- CaseB_5_4&#45;&gt;CaseB_6_2 -->
<g id="edge21" class="edge">
<title>CaseB_5_4&#45;&gt;CaseB_6_2</title>
<path fill="none" stroke="#999999" stroke-width="1.2" d="M474.5,-212.26C485.96,-205.58 501.34,-196.61 514.14,-189.15"/>
<polygon fill="#999999" stroke="#999999" stroke-width="1.2" points="515.34,-191.28 520.15,-185.64 512.87,-187.05 515.34,-191.28"/>
</g>
<!-- CaseA_1_1 -->
<g id="node20" class="node">
<title>CaseA_1_1</title>
<ellipse fill="#424242" stroke="black" cx="35.8" cy="-379" rx="19.8" ry="19.8"/>
</g>
<!-- CaseA_2_1 -->
<g id="node22" class="node">
<title>CaseA_2_1</title>
<ellipse fill="#757575" stroke="black" cx="118.4" cy="-379" rx="19.8" ry="19.8"/>
</g>
<!-- CaseA_1_1&#45;&gt;CaseA_2_1 -->
<g id="edge22" class="edge">
<title>CaseA_1_1&#45;&gt;CaseA_2_1</title>
<path fill="none" stroke="#999999" stroke-width="1.2" d="M55.9,-379C65.97,-379 78.5,-379 89.62,-379"/>
<polygon fill="#999999" stroke="#999999" stroke-width="1.2" points="89.34,-381.45 96.34,-379 89.34,-376.55 89.34,-381.45"/>
</g>
<!-- CaseA_1_2 -->
<g id="node21" class="node">
<title>CaseA_1_2</title>
<ellipse fill="#757575" stroke="black" cx="35.8" cy="-317" rx="19.8" ry="19.8"/>
</g>
<!-- CaseA_2_4 -->
<g id="node25" class="node">
<title>CaseA_2_4</title>
<ellipse fill="#757575" stroke="black" cx="118.4" cy="-317" rx="19.8" ry="19.8"/>
</g>
<!-- CaseA_1_2&#45;&gt;CaseA_2_4 -->
<g id="edge23" class="edge">
<title>CaseA_1_2&#45;&gt;CaseA_2_4</title>
<path fill="none" stroke="#999999" stroke-width="1.2" d="M55.9,-317C65.97,-317 78.5,-317 89.62,-317"/>
<polygon fill="#999999" stroke="#999999" stroke-width="1.2" points="89.34,-319.45 96.34,-317 89.34,-314.55 89.34,-319.45"/>
</g>
<!-- CaseA_3_1 -->
<g id="node26" class="node">
<title>CaseA_3_1</title>
<ellipse fill="#bdbdbd" stroke="black" cx="201" cy="-379" rx="19.8" ry="19.8"/>
</g>
<!-- CaseA_2_1&#45;&gt;CaseA_3_1 -->
<g id="edge24" class="edge">
<title>CaseA_2_1&#45;&gt;CaseA_3_1</title>
<path fill="none" stroke="#999999" stroke-width="1.2" d="M138.5,-379C148.57,-379 161.1,-379 172.22,-379"/>
<polygon fill="#999999" stroke="#999999" stroke-width="1.2" points="171.94,-381.45 178.94,-379 171.94,-376.55 171.94,-381.45"/>
</g>
<!-- CaseA_2_2 -->
<g id="node23" class="node">
<title>CaseA_2_2</title>
<ellipse fill="#9e9e9e" stroke="black" cx="118.4" cy="-441" rx="19.8" ry="19.8"/>
</g>
<!-- CaseA_2_2&#45;&gt;CaseA_3_1 -->
<g id="edge25" class="edge">
<title>CaseA_2_2&#45;&gt;CaseA_3_1</title>
<path fill="none" stroke="#999999" stroke-width="1.2" d="M134.56,-429.34C146.75,-419.96 164.06,-406.65 177.81,-396.07"/>
<polygon fill="#999999" stroke="#999999" stroke-width="1.2" points="179.14,-398.14 183.19,-391.93 176.15,-394.25 179.14,-398.14"/>
</g>
<!-- CaseA_3_2 -->
<g id="node27" class="node">
<title>CaseA_3_2</title>
<ellipse fill="#bdbdbd" stroke="black" cx="201" cy="-441" rx="19.8" ry="19.8"/>
</g>
<!-- CaseA_2_2&#45;&gt;CaseA_3_2 -->
<g id="edge26" class="edge">
<title>CaseA_2_2&#45;&gt;CaseA_3_2</title>
<path fill="none" stroke="#999999" stroke-width="1.2" d="M138.5,-441C148.57,-441 161.1,-441 172.22,-441"/>
<polygon fill="#999999" stroke="#999999" stroke-width="1.2" points="171.94,-443.45 178.94,-441 171.94,-438.55 171.94,-443.45"/>
</g>
<!-- CaseA_2_3 -->
<g id="node24" class="node">
<title>CaseA_2_3</title>
<ellipse fill="#424242" stroke="black" cx="118.4" cy="-503" rx="19.8" ry="19.8"/>
</g>
<!-- CaseA_2_3&#45;&gt;CaseA_3_2 -->
<g id="edge27" class="edge">
<title>CaseA_2_3&#45;&gt;CaseA_3_2</title>
<path fill="none" stroke="#999999" stroke-width="1.2" d="M134.56,-491.34C146.75,-481.96 164.06,-468.65 177.81,-458.07"/>
<polygon fill="#999999" stroke="#999999" stroke-width="1.2" points="179.14,-460.14 183.19,-453.93 176.15,-456.25 179.14,-460.14"/>
</g>
<!-- CaseA_3_3 -->
<g id="node28" class="node">
<title>CaseA_3_3</title>
<ellipse fill="#9e9e9e" stroke="black" cx="201" cy="-317" rx="19.8" ry="19.8"/>
</g>
<!-- CaseA_2_4&#45;&gt;CaseA_3_3 -->
<g id="edge28" class="edge">
<title>CaseA_2_4&#45;&gt;CaseA_3_3</title>
<path fill="none" stroke="#999999" stroke-width="1.2" d="M138.5,-317C148.57,-317 161.1,-317 172.22,-317"/>
<polygon fill="#999999" stroke="#999999" stroke-width="1.2" points="171.94,-319.45 178.94,-317 171.94,-314.55 171.94,-319.45"/>
</g>
<!-- CaseA_Q -->
<g id="node29" class="node">
<title>CaseA_Q</title>
<ellipse fill="#ffe0b2" stroke="#f57c00" stroke-width="2" cx="287.6" cy="-379" rx="19.8" ry="19.8"/>
<ellipse fill="none" stroke="#f57c00" stroke-width="2" cx="287.6" cy="-379" rx="23.8" ry="23.8"/>
</g>
<!-- CaseA_3_1&#45;&gt;CaseA_Q -->
<g id="edge29" class="edge">
<title>CaseA_3_1&#45;&gt;CaseA_Q</title>
<path fill="none" stroke="#999999" stroke-width="1.2" d="M221.2,-379C230.97,-379 243.11,-379 254.27,-379"/>
<polygon fill="#999999" stroke="#999999" stroke-width="1.2" points="254.13,-381.45 261.13,-379 254.13,-376.55 254.13,-381.45"/>
</g>
<!-- CaseA_3_2&#45;&gt;CaseA_Q -->
<g id="edge30" class="edge">
<title>CaseA_3_2&#45;&gt;CaseA_Q</title>
<path fill="none" stroke="#999999" stroke-width="1.2" d="M217.52,-429.63C229.46,-420.88 246.24,-408.58 260.27,-398.29"/>
<polygon fill="#999999" stroke="#999999" stroke-width="1.2" points="261.66,-400.32 265.86,-394.2 258.76,-396.36 261.66,-400.32"/>
</g>
<!-- CaseA_3_3&#45;&gt;CaseA_Q -->
<g id="edge31" class="edge">
<title>CaseA_3_3&#45;&gt;CaseA_Q</title>
<path fill="none" stroke="#999999" stroke-width="1.2" d="M217.52,-328.37C229.46,-337.12 246.24,-349.42 260.27,-359.71"/>
<polygon fill="#999999" stroke="#999999" stroke-width="1.2" points="258.76,-361.64 265.86,-363.8 261.66,-357.68 258.76,-361.64"/>
</g>
<!-- CaseA_4_1 -->
<g id="node30" class="node">
<title>CaseA_4_1</title>
<ellipse fill="#bdbdbd" stroke="black" cx="374.2" cy="-317" rx="19.8" ry="19.8"/>
</g>
<!-- CaseA_Q&#45;&gt;CaseA_4_1 -->
<g id="edge32" class="edge">
<title>CaseA_Q&#45;&gt;CaseA_4_1</title>
<path fill="none" stroke="#999999" stroke-width="1.2" d="M307.8,-364.93C320.55,-355.59 337.34,-343.28 350.72,-333.48"/>
<polygon fill="#999999" stroke="#999999" stroke-width="1.2" points="352.09,-335.51 356.28,-329.4 349.19,-331.56 352.09,-335.51"/>
</g>
<!-- CaseA_4_2 -->
<g id="node31" class="node">
<title>CaseA_4_2</title>
<ellipse fill="#e0e0e0" stroke="black" cx="374.2" cy="-379" rx="19.8" ry="19.8"/>
</g>
<!-- CaseA_Q&#45;&gt;CaseA_4_2 -->
<g id="edge33" class="edge">
<title>CaseA_Q&#45;&gt;CaseA_4_2</title>
<path fill="none" stroke="#999999" stroke-width="1.2" d="M312.17,-379C322.48,-379 334.65,-379 345.41,-379"/>
<polygon fill="#999999" stroke="#999999" stroke-width="1.2" points="345.21,-381.45 352.21,-379 345.21,-376.55 345.21,-381.45"/>
</g>
<!-- CaseA_4_3 -->
<g id="node32" class="node">
<title>CaseA_4_3</title>
<ellipse fill="#bdbdbd" stroke="black" cx="374.2" cy="-472" rx="19.8" ry="19.8"/>
</g>
<!-- CaseA_Q&#45;&gt;CaseA_4_3 -->
<g id="edge34" class="edge">
<title>CaseA_Q&#45;&gt;CaseA_4_3</title>
<path fill="none" stroke="#999999" stroke-width="1.2" d="M304.51,-396.49C318.71,-412.1 339.51,-434.97 354.5,-451.44"/>
<polygon fill="#999999" stroke="#999999" stroke-width="1.2" points="352.39,-452.76 358.91,-456.29 356.01,-449.46 352.39,-452.76"/>
</g>
<!-- CaseA_5_1 -->
<g id="node33" class="node">
<title>CaseA_5_1</title>
<ellipse fill="#f5f5f5" stroke="black" cx="456.8" cy="-317" rx="19.8" ry="19.8"/>
</g>
<!-- CaseA_4_1&#45;&gt;CaseA_5_1 -->
<g id="edge35" class="edge">
<title>CaseA_4_1&#45;&gt;CaseA_5_1</title>
<path fill="none" stroke="#999999" stroke-width="1.2" d="M394.3,-317C404.37,-317 416.9,-317 428.02,-317"/>
<polygon fill="#999999" stroke="#999999" stroke-width="1.2" points="427.74,-319.45 434.74,-317 427.74,-314.55 427.74,-319.45"/>
</g>
<!-- CaseA_5_2 -->
<g id="node34" class="node">
<title>CaseA_5_2</title>
<ellipse fill="#f5f5f5" stroke="black" cx="456.8" cy="-379" rx="19.8" ry="19.8"/>
</g>
<!-- CaseA_4_2&#45;&gt;CaseA_5_2 -->
<g id="edge36" class="edge">
<title>CaseA_4_2&#45;&gt;CaseA_5_2</title>
<path fill="none" stroke="#999999" stroke-width="1.2" d="M394.3,-379C404.37,-379 416.9,-379 428.02,-379"/>
<polygon fill="#999999" stroke="#999999" stroke-width="1.2" points="427.74,-381.45 434.74,-379 427.74,-376.55 427.74,-381.45"/>
</g>
<!-- CaseA_5_3 -->
<g id="node35" class="node">
<title>CaseA_5_3</title>
<ellipse fill="#f5f5f5" stroke="black" cx="456.8" cy="-441" rx="19.8" ry="19.8"/>
</g>
<!-- CaseA_4_2&#45;&gt;CaseA_5_3 -->
<g id="edge37" class="edge">
<title>CaseA_4_2&#45;&gt;CaseA_5_3</title>
<path fill="none" stroke="#999999" stroke-width="1.2" d="M390.36,-390.66C402.55,-400.04 419.86,-413.35 433.61,-423.93"/>
<polygon fill="#999999" stroke="#999999" stroke-width="1.2" points="431.95,-425.75 438.99,-428.07 434.94,-421.86 431.95,-425.75"/>
</g>
<!-- CaseA_5_4 -->
<g id="node36" class="node">
<title>CaseA_5_4</title>
<ellipse fill="#f5f5f5" stroke="black" cx="456.8" cy="-503" rx="19.8" ry="19.8"/>
</g>
<!-- CaseA_4_3&#45;&gt;CaseA_5_4 -->
<g id="edge38" class="edge">
<title>CaseA_4_3&#45;&gt;CaseA_5_4</title>
<path fill="none" stroke="#999999" stroke-width="1.2" d="M393.09,-478.88C403.94,-483.05 417.97,-488.45 430.01,-493.08"/>
<polygon fill="#999999" stroke="#999999" stroke-width="1.2" points="428.85,-495.26 436.27,-495.49 430.61,-490.69 428.85,-495.26"/>
</g>
<!-- CaseA_6_1 -->
<g id="node37" class="node">
<title>CaseA_6_1</title>
<ellipse fill="#f5f5f5" stroke="black" cx="539.4" cy="-363" rx="19.8" ry="19.8"/>
</g>
<!-- CaseA_5_1&#45;&gt;CaseA_6_1 -->
<g id="edge39" class="edge">
<title>CaseA_5_1&#45;&gt;CaseA_6_1</title>
<path fill="none" stroke="#999999" stroke-width="1.2" d="M474.5,-326.53C485.96,-333.07 501.34,-341.85 514.14,-349.16"/>
<polygon fill="#999999" stroke="#999999" stroke-width="1.2" points="512.85,-351.24 520.14,-352.58 515.28,-346.98 512.85,-351.24"/>
</g>
<!-- CaseA_5_2&#45;&gt;CaseA_6_1 -->
<g id="edge40" class="edge">
<title>CaseA_5_2&#45;&gt;CaseA_6_1</title>
<path fill="none" stroke="#999999" stroke-width="1.2" d="M476.49,-375.29C486.8,-373.24 499.77,-370.67 511.18,-368.4"/>
<polygon fill="#999999" stroke="#999999" stroke-width="1.2" points="511.36,-370.87 517.75,-367.1 510.4,-366.06 511.36,-370.87"/>
</g>
<!-- CaseA_6_2 -->
<g id="node38" class="node">
<title>CaseA_6_2</title>
<ellipse fill="#f5f5f5" stroke="black" cx="539.4" cy="-456" rx="19.8" ry="19.8"/>
</g>
<!-- CaseA_5_3&#45;&gt;CaseA_6_2 -->
<g id="edge41" class="edge">
<title>CaseA_5_3&#45;&gt;CaseA_6_2</title>
<path fill="none" stroke="#999999" stroke-width="1.2" d="M476.49,-444.48C486.8,-446.4 499.77,-448.81 511.18,-450.93"/>
<polygon fill="#999999" stroke="#999999" stroke-width="1.2" points="510.41,-453.28 517.74,-452.16 511.31,-448.47 510.41,-453.28"/>
</g>
<!-- CaseA_5_4&#45;&gt;CaseA_6_2 -->
<g id="edge42" class="edge">
<title>CaseA_5_4&#45;&gt;CaseA_6_2</title>
<path fill="none" stroke="#999999" stroke-width="1.2" d="M474.5,-493.26C485.96,-486.58 501.34,-477.61 514.14,-470.15"/>
<polygon fill="#999999" stroke="#999999" stroke-width="1.2" points="515.34,-472.28 520.15,-466.64 512.87,-468.05 515.34,-472.28"/>
</g>
</g>
</svg>
