<?xml version="1.0" encoding="UTF-8" standalone="no"?>
<!DOCTYPE svg PUBLIC "-//W3C//DTD SVG 1.1//EN"
 "http://www.w3.org/Graphics/SVG/1.1/DTD/svg11.dtd">
<!-- Generated by graphviz version 12.2.1 (20241206.2353)
 -->
<!-- Title: Pruning Pages: 1 -->
<svg width="583pt" height="620pt"
 viewBox="0.00 0.00 583.20 620.00" xmlns="http://www.w3.org/2000/svg" xmlns:xlink="http://www.w3.org/1999/xlink">
<g id="graph0" class="graph" transform="scale(1 1) rotate(0) translate(4 616)">
<title>Pruning</title>
<polygon fill="white" stroke="none" points="-4,4 -4,-616 579.2,-616 579.2,4 -4,4"/>
<text text-anchor="start" x="67.1" y="-591.9" font-family="Times New Roman" font-size="18.00">Single&#45;query pruning on nginx poset (induced subgraph)</text>
<text text-anchor="start" x="110.98" y="-573.9" font-family="Times New Roman" font-size="18.00">|</text>
<text text-anchor="start" x="115.48" y="-573.9" font-family="Times New Roman" font-style="italic" font-size="18.00">C</text>
<text text-anchor="start" x="128.23" y="-573.9" font-family="Times New Roman" font-size="18.00">|=96, query=</text>
<text text-anchor="start" x="227.98" y="-573.9" font-family="Times New Roman" font-style="italic" font-size="18.00">C</text>
<text text-anchor="start" x="240.73" y="-573.9" font-family="Times New Roman" baseline-shift="sub" font-size="18.00">81</text>
<text text-anchor="start" x="257.23" y="-573.9" font-family="Times New Roman" font-size="18.00">, |</text>
<text text-anchor="start" x="272.23" y="-573.9" font-family="Times New Roman" font-style="italic" font-size="18.00">anc</text>
<text text-anchor="start" x="300.73" y="-573.9" font-family="Times New Roman" font-size="18.00">(</text>
<text text-anchor="start" x="306.73" y="-573.9" font-family="Times New Roman" font-style="italic" font-size="18.00">c</text>
<text text-anchor="start" x="315.73" y="-573.9" font-family="Times New Roman" font-size="18.00">)|=16, |</text>
<text text-anchor="start" x="371.23" y="-573.9" font-family="Times New Roman" font-style="italic" font-size="18.00">desc</text>
<text text-anchor="start" x="408.73" y="-573.9" font-family="Times New Roman" font-size="18.00">(</text>
<text text-anchor="start" x="414.73" y="-573.9" font-family="Times New Roman" font-style="italic" font-size="18.00">c</text>
<text text-anchor="start" x="423.73" y="-573.9" font-family="Times New Roman" font-size="18.00">)|=12</text>
<g id="clust1" class="cluster">
<title>cluster_CaseB</title>
<path fill="none" stroke="#cccccc" stroke-dasharray="5,2" d="M20,-8C20,-8 555.2,-8 555.2,-8 561.2,-8 567.2,-14 567.2,-20 567.2,-20 567.2,-268 567.2,-268 567.2,-274 561.2,-280 555.2,-280 555.2,-280 20,-280 20,-280 14,-280 8,-274 8,-268 8,-268 8,-20 8,-20 8,-14 14,-8 20,-8"/>
<text text-anchor="start" x="157.1" y="-259.9" font-family="Times New Roman" font-size="18.00">Case B: </text>
<text text-anchor="start" x="226.1" y="-259.9" font-family="Times New Roman" font-style="italic" font-size="18.00">g</text>
<text text-anchor="start" x="235.85" y="-259.9" font-family="Times New Roman" font-size="18.00">(</text>
<text text-anchor="start" x="241.85" y="-259.9" font-family="Times New Roman" font-style="italic" font-size="18.00">c</text>
<text text-anchor="start" x="250.85" y="-259.9" font-family="Times New Roman" font-size="18.00">) ≥ 0, </text>
<text text-anchor="start" x="297.35" y="-259.9" font-family="Times New Roman" font-style="italic" font-size="18.00">C</text>
<text text-anchor="start" x="310.1" y="-259.9" font-family="Times New Roman" font-size="18.00"> ← </text>
<text text-anchor="start" x="340.1" y="-259.9" font-family="Times New Roman" font-style="italic" font-size="18.00">C</text>
<text text-anchor="start" x="352.85" y="-259.9" font-family="Times New Roman" font-size="18.00"> \ </text>
<text text-anchor="start" x="368.6" y="-259.9" font-family="Times New Roman" font-style="italic" font-size="18.00">anc</text>
<text text-anchor="start" x="397.1" y="-259.9" font-family="Times New Roman" font-size="18.00">(</text>
<text text-anchor="start" x="403.1" y="-259.9" font-family="Times New Roman" font-style="italic" font-size="18.00">c</text>
<text text-anchor="start" x="412.1" y="-259.9" font-family="Times New Roman" font-size="18.00">)</text>
</g>
<g id="clust2" class="cluster">
<title>cluster_CaseA</title>
<path fill="none" stroke="#cccccc" stroke-dasharray="5,2" d="M20,-288C20,-288 555.2,-288 555.2,-288 561.2,-288 567.2,-294 567.2,-300 567.2,-300 567.2,-548 567.2,-548 567.2,-554 561.2,-560 555.2,-560 555.2,-560 20,-560 20,-560 14,-560 8,-554 8,-548 8,-548 8,-300 8,-300 8,-294 14,-288 20,-288"/>
<text text-anchor="start" x="152.98" y="-539.9" font-family="Times New Roman" font-size="18.00">Case A: </text>
<text text-anchor="start" x="220.48" y="-539.9" font-family="Times New Roman" font-style="italic" font-size="18.00">g</text>
<text text-anchor="start" x="230.23" y="-539.9" font-family="Times New Roman" font-size="18.00">(</text>
<text text-anchor="start" x="236.23" y="-539.9" font-family="Times New Roman" font-style="italic" font-size="18.00">c</text>
<text text-anchor="start" x="245.23" y="-539.9" font-family="Times New Roman" font-size="18.00">) &lt; 0, </text>
<text text-anchor="start" x="292.48" y="-539.9" font-family="Times New Roman" font-style="italic" font-size="18.00">C</text>
<text text-anchor="start" x="305.23" y="-539.9" font-family="Times New Roman" font-size="18.00"> ← </text>
<text text-anchor="start" x="335.23" y="-539.9" font-family="Times New Roman" font-style="italic" font-size="18.00">C</text>
<text text-anchor="start" x="347.98" y="-539.9" font-family="Times New Roman" font-size="18.00"> \ </text>
<text text-anchor="start" x="363.73" y="-539.9" font-family="Times New Roman" font-style="italic" font-size="18.00">desc</text>
<text text-anchor="start" x="401.23" y="-539.9" font-family="Times New Roman" font-size="18.00">(</text>
<text text-anchor="start" x="407.23" y="-539.9" font-family="Times New Roman" font-style="italic" font-size="18.00">c</text>
<text text-anchor="start" x="416.23" y="-539.9" font-family="Times New Roman" font-size="18.00">)</text>
</g>
<!-- CaseB_1_1 -->
<g id="node1" class="node">
<title>CaseB_1_1</title>
<ellipse fill="#424242" stroke="black" cx="35.8" cy="-98" rx="19.8" ry="19.8"/>
</g>
<!-- CaseB_2_1 -->
<g id="node3" class="node">
<title>CaseB_2_1</title>
<ellipse fill="#757575" stroke="black" cx="118.4" cy="-98" rx="19.8" ry="19.8"/>
</g>
<!-- CaseB_1_1&#45;&gt;CaseB_2_1 -->
<g id="edge1" class="edge">
<title>CaseB_1_1&#45;&gt;CaseB_2_1</title>
<path fill="none" stroke="#999999" stroke-width="1.2" d="M55.9,-98C65.97,-98 78.5,-98 89.62,-98"/>
<polygon fill="#999999" stroke="#999999" stroke-width="1.2" points="89.34,-100.45 96.34,-98 89.34,-95.55 89.34,-100.45"/>
</g>
<!-- CaseB_1_2 -->
<g id="node2" class="node">
<title>CaseB_1_2</title>
<ellipse fill="#757575" stroke="black" cx="35.8" cy="-36" rx="19.8" ry="19.8"/>
</g>
<!-- CaseB_2_4 -->
<g id="node6" class="node">
<title>CaseB_2_4</title>
<ellipse fill="#757575" stroke="black" cx="118.4" cy="-36" rx="19.8" ry="19.8"/>
</g>
<!-- CaseB_1_2&#45;&gt;CaseB_2_4 -->
<g id="edge2" class="edge">
<title>CaseB_1_2&#45;&gt;CaseB_2_4</title>
<path fill="none" stroke="#999999" stroke-width="1.2" d="M55.9,-36C65.97,-36 78.5,-36 89.62,-36"/>
<polygon fill="#999999" stroke="#999999" stroke-width="1.2" points="89.34,-38.45 96.34,-36 89.34,-33.55 89.34,-38.45"/>
</g>
<!-- CaseB_3_1 -->
<g id="node7" class="node">
<title>CaseB_3_1</title>
<ellipse fill="#bdbdbd" stroke="black" cx="201" cy="-98" rx="19.8" ry="19.8"/>
</g>
<!-- CaseB_2_1&#45;&gt;CaseB_3_1 -->
<g id="edge3" class="edge">
<title>CaseB_2_1&#45;&gt;CaseB_3_1</title>
<path fill="none" stroke="#999999" stroke-width="1.2" d="M138.5,-98C148.57,-98 161.1,-98 172.22,-98"/>
<polygon fill="#999999" stroke="#999999" stroke-width="1.2" points="171.94,-100.45 178.94,-98 171.94,-95.55 171.94,-100.45"/>
</g>
<!-- CaseB_2_2 -->
<g id="node4" class="node">
<title>CaseB_2_2</title>
<ellipse fill="#9e9e9e" stroke="black" cx="118.4" cy="-160" rx="19.8" ry="19.8"/>
</g>
<!-- CaseB_2_2&#45;&gt;CaseB_3_1 -->
<g id="edge4" class="edge">
<title>CaseB_2_2&#45;&gt;CaseB_3_1</title>
<path fill="none" stroke="#999999" stroke-width="1.2" d="M134.56,-148.34C146.75,-138.96 164.06,-125.65 177.81,-115.07"/>
<polygon fill="#999999" stroke="#999999" stroke-width="1.2" points="179.14,-117.14 183.19,-110.93 176.15,-113.25 179.14,-117.14"/>
</g>
<!-- CaseB_3_2 -->
<g id="node8" class="node">
<title>CaseB_3_2</title>
<ellipse fill="#bdbdbd" stroke="black" cx="201" cy="-160" rx="19.8" ry="19.8"/>
</g>
<!-- CaseB_2_2&#45;&gt;CaseB_3_2 -->
<g id="edge5" class="edge">
<title>CaseB_2_2&#45;&gt;CaseB_3_2</title>
<path fill="none" stroke="#999999" stroke-width="1.2" d="M138.5,-160C148.57,-160 161.1,-160 172.22,-160"/>
<polygon fill="#999999" stroke="#999999" stroke-width="1.2" points="171.94,-162.45 178.94,-160 171.94,-157.55 171.94,-162.45"/>
</g>
<!-- CaseB_2_3 -->
<g id="node5" class="node">
<title>CaseB_2_3</title>
<ellipse fill="#424242" stroke="black" cx="118.4" cy="-222" rx="19.8" ry="19.8"/>
</g>
<!-- CaseB_2_3&#45;&gt;CaseB_3_2 -->
<g id="edge6" class="edge">
<title>CaseB_2_3&#45;&gt;CaseB_3_2</title>
<path fill="none" stroke="#999999" stroke-width="1.2" d="M134.56,-210.34C146.75,-200.96 164.06,-187.65 177.81,-177.07"/>
<polygon fill="#999999" stroke="#999999" stroke-width="1.2" points="179.14,-179.14 183.19,-172.93 176.15,-175.25 179.14,-179.14"/>
</g>
<!-- CaseB_3_3 -->
<g id="node9" class="node">
<title>CaseB_3_3</title>
<ellipse fill="#9e9e9e" stroke="black" cx="201" cy="-36" rx="19.8" ry="19.8"/>
</g>
<!-- CaseB_2_4&#45;&gt;CaseB_3_3 -->
<g id="edge7" class="edge">
<title>CaseB_2_4&#45;&gt;CaseB_3_3</title>
<path fill="none" stroke="#999999" stroke-width="1.2" d="M138.5,-36C148.57,-36 161.1,-36 172.22,-36"/>
<polygon fill="#999999" stroke="#999999" stroke-width="1.2" points="171.94,-38.45 178.94,-36 171.94,-33.55 171.94,-38.45"/>
</g>
<!-- CaseB_Q -->
<g id="node10" class="node">
<title>CaseB_Q</title>
<ellipse fill="#ffe0b2" stroke="#f57c00" stroke-width="2" cx="287.6" cy="-98" rx="19.8" ry="19.8"/>
<ellipse fill="none" stroke="#f57c00" stroke-width="2" cx="287.6" cy="-98" rx="23.8" ry="23.8"/>
</g>
<!-- CaseB_3_1&#45;&gt;CaseB_Q -->
<g id="edge8" class="edge">
<title>CaseB_3_1&#45;&gt;CaseB_Q</title>
<path fill="none" stroke="#999999" stroke-width="1.2" d="M221.2,-98C230.97,-98 243.11,-98 254.27,-98"/>
<polygon fill="#999999" stroke="#999999" stroke-width="1.2" points="254.13,-100.45 261.13,-98 254.13,-95.55 254.13,-100.45"/>
</g>
<!-- CaseB_3_2&#45;&gt;CaseB_Q -->
<g id="edge9" class="edge">
<title>CaseB_3_2&#45;&gt;CaseB_Q</title>
<path fill="none" stroke="#999999" stroke-width="1.2" d="M217.52,-148.63C229.46,-139.88 246.24,-127.58 260.27,-117.29"/>
<polygon fill="#999999" stroke="#999999" stroke-width="1.2" points="261.66,-119.32 265.86,-113.2 258.76,-115.36 261.66,-119.32"/>
</g>
<!-- CaseB_3_3&#45;&gt;CaseB_Q -->
<g id="edge10" class="edge">
<title>CaseB_3_3&#45;&gt;CaseB_Q</title>
<path fill="none" stroke="#999999" stroke-width="1.2" d="M217.52,-47.37C229.46,-56.12 246.24,-68.42 260.27,-78.71"/>
<polygon fill="#999999" stroke="#999999" stroke-width="1.2" points="258.76,-80.64 265.86,-82.8 261.66,-76.68 258.76,-80.64"/>
</g>
<!-- CaseB_4_1 -->
<g id="node11" class="node">
<title>CaseB_4_1</title>
<ellipse fill="#bdbdbd" stroke="black" cx="374.2" cy="-36" rx="19.8" ry="19.8"/>
</g>
<!-- CaseB_Q&#45;&gt;CaseB_4_1 -->
<g id="edge11" class="edge">
<title>CaseB_Q&#45;&gt;CaseB_4_1</title>
<path fill="none" stroke="#999999" stroke-width="1.2" d="M307.8,-83.93C320.55,-74.59 337.34,-62.28 350.72,-52.48"/>
<polygon fill="#999999" stroke="#999999" stroke-width="1.2" points="352.09,-54.51 356.28,-48.4 349.19,-50.56 352.09,-54.51"/>
</g>
<!-- CaseB_4_2 -->
<g id="node12" class="node">
<title>CaseB_4_2</title>
<ellipse fill="#e0e0e0" stroke="black" cx="374.2" cy="-98" rx="19.8" ry="19.8"/>
</g>
<!-- CaseB_Q&#45;&gt;CaseB_4_2 -->
<g id="edge12" class="edge">
<title>CaseB_Q&#45;&gt;CaseB_4_2</title>
<path fill="none" stroke="#999999" stroke-width="1.2" d="M312.17,-98C322.48,-98 334.65,-98 345.41,-98"/>
<polygon fill="#999999" stroke="#999999" stroke-width="1.2" points="345.21,-100.45 352.21,-98 345.21,-95.55 345.21,-100.45"/>
</g>
<!-- CaseB_4_3 -->
<g id="node13" class="node">
<title>CaseB_4_3</title>
<ellipse fill="#bdbdbd" stroke="black" cx="374.2" cy="-191" rx="19.8" ry="19.8"/>
</g>
<!-- CaseB_Q&#45;&gt;CaseB_4_3 -->
<g id="edge13" class="edge">
<title>CaseB_Q&#45;&gt;CaseB_4_3</title>
<path fill="none" stroke="#999999" stroke-width="1.2" d="M304.51,-115.49C318.71,-131.1 339.51,-153.97 354.5,-170.44"/>
<polygon fill="#999999" stroke="#999999" stroke-width="1.2" points="352.39,-171.76 358.91,-175.29 356.01,-168.46 352.39,-171.76"/>
</g>
<!-- CaseB_5_1 -->
<g id="node14" class="node">
<title>CaseB_5_1</title>
<ellipse fill="#f5f5f5" stroke="black" cx="456.8" cy="-36" rx="19.8" ry="19.8"/>
</g>
<!-- CaseB_4_1&#45;&gt;CaseB_5_1 -->
<g id="edge14" class="edge">
<title>CaseB_4_1&#45;&gt;CaseB_5_1</title>
<path fill="none" stroke="#999999" stroke-width="1.2" d="M394.3,-36C404.37,-36 416.9,-36 428.02,-36"/>
<polygon fill="#999999" stroke="#999999" stroke-width="1.2" points="427.74,-38.45 434.74,-36 427.74,-33.55 427.74,-38.45"/>
</g>
<!-- CaseB_5_2 -->
<g id="node15" class="node">
<title>CaseB_5_2</title>
<ellipse fill="#f5f5f5" stroke="black" cx="456.8" cy="-98" rx="19.8" ry="19.8"/>
</g>
<!-- CaseB_4_2&#45;&gt;CaseB_5_2 -->
<g id="edge15" class="edge">
<title>CaseB_4_2&#45;&gt;CaseB_5_2</title>
<path fill="none" stroke="#999999" stroke-width="1.2" d="M394.3,-98C404.37,-98 416.9,-98 428.02,-98"/>
<polygon fill="#999999" stroke="#999999" stroke-width="1.2" points="427.74,-100.45 434.74,-98 427.74,-95.55 427.74,-100.45"/>
</g>
<!-- CaseB_5_3 -->
<g id="node16" class="node">
<title>CaseB_5_3</title>
<ellipse fill="#f5f5f5" stroke="black" cx="456.8" cy="-160" rx="19.8" ry="19.8"/>
</g>
<!-- CaseB_4_2&#45;&gt;CaseB_5_3 -->
<g id="edge16" class="edge">
<title>CaseB_4_2&#45;&gt;CaseB_5_3</title>
<path fill="none" stroke="#999999" stroke-width="1.2" d="M390.36,-109.66C402.55,-119.04 419.86,-132.35 433.61,-142.93"/>
<polygon fill="#999999" stroke="#999999" stroke-width="1.2" points="431.95,-144.75 438.99,-147.07 434.94,-140.86 431.95,-144.75"/>
</g>
<!-- CaseB_5_4 -->
<g id="node17" class="node">
<title>CaseB_5_4</title>
<ellipse fill="#f5f5f5" stroke="black" cx="456.8" cy="-222" rx="19.8" ry="19.8"/>
</g>
<!-- CaseB_4_3&#45;&gt;CaseB_5_4 -->
<g id="edge17" class="edge">
<title>CaseB_4_3&#45;&gt;CaseB_5_4</title>
<path fill="none" stroke="#999999" stroke-width="1.2" d="M393.09,-197.88C403.94,-202.05 417.97,-207.45 430.01,-212.08"/>
<polygon fill="#999999" stroke="#999999" stroke-width="1.2" points="428.85,-214.26 436.27,-214.49 430.61,-209.69 428.85,-214.26"/>
</g>
<!-- CaseB_6_1 -->
<g id="node18" class="node">
<title>CaseB_6_1</title>
<ellipse fill="#f5f5f5" stroke="black" cx="539.4" cy="-82" rx="19.8" ry="19.8"/>
</g>
<!-- CaseB_5_1&#45;&gt;CaseB_6_1 -->
<g id="edge18" class="edge">
<title>CaseB_5_1&#45;&gt;CaseB_6_1</title>
<path fill="none" stroke="#999999" stroke-width="1.2" d="M474.5,-45.53C485.96,-52.07 501.34,-60.85 514.14,-68.16"/>
<polygon fill="#999999" stroke="#999999" stroke-width="1.2" points="512.85,-70.24 520.14,-71.58 515.28,-65.98 512.85,-70.24"/>
</g>
<!-- CaseB_5_2&#45;&gt;CaseB_6_1 -->
<g id="edge19" class="edge">
<title>CaseB_5_2&#45;&gt;CaseB_6_1</title>
<path fill="none" stroke="#999999" stroke-width="1.2" d="M476.49,-94.29C486.8,-92.24 499.77,-89.67 511.18,-87.4"/>
<polygon fill="#999999" stroke="#999999" stroke-width="1.2" points="511.36,-89.87 517.75,-86.1 510.4,-85.06 511.36,-89.87"/>
</g>
<!-- CaseB_6_2 -->
<g id="node19" class="node">
<title>CaseB_6_2</title>
<ellipse fill="#f5f5f5" stroke="black" cx="539.4" cy="-175" rx="19.8" ry="19.8"/>
</g>
<!-- CaseB_5_3&#45;&gt;CaseB_6_2 -->
<g id="edge20" class="edge">
<title>CaseB_5_3&#45;&gt;CaseB_6_2</title>
<path fill="none" stroke="#999999" stroke-width="1.2" d="M476.49,-163.48C486.8,-165.4 499.77,-167.81 511.18,-169.93"/>
<polygon fill="#999999" stroke="#999999" stroke-width="1.2" points="510.41,-172.28 517.74,-171.16 511.31,-167.47 510.41,-172.28"/>
</g>
<!-- CaseB_5_4&#45;&gt;CaseB_6_2 -->
<g id="edge21" class="edge">
<title>CaseB_5_4&#45;&gt;CaseB_6_2</title>
<path fill="none" stroke="#999999" stroke-width="1.2" d="M474.5,-212.26C485.96,-205.58 501.34,-196.61 514.14,-189.15"/>
<polygon fill="#999999" stroke="#999999" stroke-width="1.2" points="515.34,-191.28 520.15,-185.64 512.87,-187.05 515.34,-191.28"/>
</g>
<!-- CaseA_1_1 -->
<g id="node20" class="node">
<title>CaseA_1_1</title>
<ellipse fill="#424242" stroke="black" cx="35.8" cy="-378" rx="19.8" ry="19.8"/>
</g>
<!-- CaseA_2_1 -->
<g id="node22" class="node">
<title>CaseA_2_1</title>
<ellipse fill="#757575" stroke="black" cx="118.4" cy="-378" rx="19.8" ry="19.8"/>
</g>
<!-- CaseA_1_1&#45;&gt;CaseA_2_1 -->
<g id="edge22" class="edge">
<title>CaseA_1_1&#45;&gt;CaseA_2_1</title>
<path fill="none" stroke="#999999" stroke-width="1.2" d="M55.9,-378C65.97,-378 78.5,-378 89.62,-378"/>
<polygon fill="#999999" stroke="#999999" stroke-width="1.2" points="89.34,-380.45 96.34,-378 89.34,-375.55 89.34,-380.45"/>
</g>
<!-- CaseA_1_2 -->
<g id="node21" class="node">
<title>CaseA_1_2</title>
<ellipse fill="#757575" stroke="black" cx="35.8" cy="-316" rx="19.8" ry="19.8"/>
</g>
<!-- CaseA_2_4 -->
<g id="node25" class="node">
<title>CaseA_2_4</title>
<ellipse fill="#757575" stroke="black" cx="118.4" cy="-316" rx="19.8" ry="19.8"/>
</g>
<!-- CaseA_1_2&#45;&gt;CaseA_2_4 -->
<g id="edge23" class="edge">
<title>CaseA_1_2&#45;&gt;CaseA_2_4</title>
<path fill="none" stroke="#999999" stroke-width="1.2" d="M55.9,-316C65.97,-316 78.5,-316 89.62,-316"/>
<polygon fill="#999999" stroke="#999999" stroke-width="1.2" points="89.34,-318.45 96.34,-316 89.34,-313.55 89.34,-318.45"/>
</g>
<!-- CaseA_3_1 -->
<g id="node26" class="node">
<title>CaseA_3_1</title>
<ellipse fill="#bdbdbd" stroke="black" cx="201" cy="-378" rx="19.8" ry="19.8"/>
</g>
<!-- CaseA_2_1&#45;&gt;CaseA_3_1 -->
<g id="edge24" class="edge">
<title>CaseA_2_1&#45;&gt;CaseA_3_1</title>
<path fill="none" stroke="#999999" stroke-width="1.2" d="M138.5,-378C148.57,-378 161.1,-378 172.22,-378"/>
<polygon fill="#999999" stroke="#999999" stroke-width="1.2" points="171.94,-380.45 178.94,-378 171.94,-375.55 171.94,-380.45"/>
</g>
<!-- CaseA_2_2 -->
<g id="node23" class="node">
<title>CaseA_2_2</title>
<ellipse fill="#9e9e9e" stroke="black" cx="118.4" cy="-440" rx="19.8" ry="19.8"/>
</g>
<!-- CaseA_2_2&#45;&gt;CaseA_3_1 -->
<g id="edge25" class="edge">
<title>CaseA_2_2&#45;&gt;CaseA_3_1</title>
<path fill="none" stroke="#999999" stroke-width="1.2" d="M134.56,-428.34C146.75,-418.96 164.06,-405.65 177.81,-395.07"/>
<polygon fill="#999999" stroke="#999999" stroke-width="1.2" points="179.14,-397.14 183.19,-390.93 176.15,-393.25 179.14,-397.14"/>
</g>
<!-- CaseA_3_2 -->
<g id="node27" class="node">
<title>CaseA_3_2</title>
<ellipse fill="#bdbdbd" stroke="black" cx="201" cy="-440" rx="19.8" ry="19.8"/>
</g>
<!-- CaseA_2_2&#45;&gt;CaseA_3_2 -->
<g id="edge26" class="edge">
<title>CaseA_2_2&#45;&gt;CaseA_3_2</title>
<path fill="none" stroke="#999999" stroke-width="1.2" d="M138.5,-440C148.57,-440 161.1,-440 172.22,-440"/>
<polygon fill="#999999" stroke="#999999" stroke-width="1.2" points="171.94,-442.45 178.94,-440 171.94,-437.55 171.94,-442.45"/>
</g>
<!-- CaseA_2_3 -->
<g id="node24" class="node">
<title>CaseA_2_3</title>
<ellipse fill="#424242" stroke="black" cx="118.4" cy="-502" rx="19.8" ry="19.8"/>
</g>
<!-- CaseA_2_3&#45;&gt;CaseA_3_2 -->
<g id="edge27" class="edge">
<title>CaseA_2_3&#45;&gt;CaseA_3_2</title>
<path fill="none" stroke="#999999" stroke-width="1.2" d="M134.56,-490.34C146.75,-480.96 164.06,-467.65 177.81,-457.07"/>
<polygon fill="#999999" stroke="#999999" stroke-width="1.2" points="179.14,-459.14 183.19,-452.93 176.15,-455.25 179.14,-459.14"/>
</g>
<!-- CaseA_3_3 -->
<g id="node28" class="node">
<title>CaseA_3_3</title>
<ellipse fill="#9e9e9e" stroke="black" cx="201" cy="-316" rx="19.8" ry="19.8"/>
</g>
<!-- CaseA_2_4&#45;&gt;CaseA_3_3 -->
<g id="edge28" class="edge">
<title>CaseA_2_4&#45;&gt;CaseA_3_3</title>
<path fill="none" stroke="#999999" stroke-width="1.2" d="M138.5,-316C148.57,-316 161.1,-316 172.22,-316"/>
<polygon fill="#999999" stroke="#999999" stroke-width="1.2" points="171.94,-318.45 178.94,-316 171.94,-313.55 171.94,-318.45"/>
</g>
<!-- CaseA_Q -->
<g id="node29" class="node">
<title>CaseA_Q</title>
<ellipse fill="#ffe0b2" stroke="#f57c00" stroke-width="2" cx="287.6" cy="-378" rx="19.8" ry="19.8"/>
<ellipse fill="none" stroke="#f57c00" stroke-width="2" cx="287.6" cy="-378" rx="23.8" ry="23.8"/>
</g>
<!-- CaseA_3_1&#45;&gt;CaseA_Q -->
<g id="edge29" class="edge">
<title>CaseA_3_1&#45;&gt;CaseA_Q</title>
<path fill="none" stroke="#999999" stroke-width="1.2" d="M221.2,-378C230.97,-378 243.11,-378 254.27,-378"/>
<polygon fill="#999999" stroke="#999999" stroke-width="1.2" points="254.13,-380.45 261.13,-378 254.13,-375.55 254.13,-380.45"/>
</g>
<!-- CaseA_3_2&#45;&gt;CaseA_Q -->
<g id="edge30" class="edge">
<title>CaseA_3_2&#45;&gt;CaseA_Q</title>
<path fill="none" stroke="#999999" stroke-width="1.2" d="M217.52,-428.63C229.46,-419.88 246.24,-407.58 260.27,-397.29"/>
<polygon fill="#999999" stroke="#999999" stroke-width="1.2" points="261.66,-399.32 265.86,-393.2 258.76,-395.36 261.66,-399.32"/>
</g>
<!-- CaseA_3_3&#45;&gt;CaseA_Q -->
<g id="edge31" class="edge">
<title>CaseA_3_3&#45;&gt;CaseA_Q</title>
<path fill="none" stroke="#999999" stroke-width="1.2" d="M217.52,-327.37C229.46,-336.12 246.24,-348.42 260.27,-358.71"/>
<polygon fill="#999999" stroke="#999999" stroke-width="1.2" points="258.76,-360.64 265.86,-362.8 261.66,-356.68 258.76,-360.64"/>
</g>
<!-- CaseA_4_1 -->
<g id="node30" class="node">
<title>CaseA_4_1</title>
<ellipse fill="#bdbdbd" stroke="black" cx="374.2" cy="-316" rx="19.8" ry="19.8"/>
</g>
<!-- CaseA_Q&#45;&gt;CaseA_4_1 -->
<g id="edge32" class="edge">
<title>CaseA_Q&#45;&gt;CaseA_4_1</title>
<path fill="none" stroke="#999999" stroke-width="1.2" d="M307.8,-363.93C320.55,-354.59 337.34,-342.28 350.72,-332.48"/>
<polygon fill="#999999" stroke="#999999" stroke-width="1.2" points="352.09,-334.51 356.28,-328.4 349.19,-330.56 352.09,-334.51"/>
</g>
<!-- CaseA_4_2 -->
<g id="node31" class="node">
<title>CaseA_4_2</title>
<ellipse fill="#e0e0e0" stroke="black" cx="374.2" cy="-378" rx="19.8" ry="19.8"/>
</g>
<!-- CaseA_Q&#45;&gt;CaseA_4_2 -->
<g id="edge33" class="edge">
<title>CaseA_Q&#45;&gt;CaseA_4_2</title>
<path fill="none" stroke="#999999" stroke-width="1.2" d="M312.17,-378C322.48,-378 334.65,-378 345.41,-378"/>
<polygon fill="#999999" stroke="#999999" stroke-width="1.2" points="345.21,-380.45 352.21,-378 345.21,-375.55 345.21,-380.45"/>
</g>
<!-- CaseA_4_3 -->
<g id="node32" class="node">
<title>CaseA_4_3</title>
<ellipse fill="#bdbdbd" stroke="black" cx="374.2" cy="-471" rx="19.8" ry="19.8"/>
</g>
<!-- CaseA_Q&#45;&gt;CaseA_4_3 -->
<g id="edge34" class="edge">
<title>CaseA_Q&#45;&gt;CaseA_4_3</title>
<path fill="none" stroke="#999999" stroke-width="1.2" d="M304.51,-395.49C318.71,-411.1 339.51,-433.97 354.5,-450.44"/>
<polygon fill="#999999" stroke="#999999" stroke-width="1.2" points="352.39,-451.76 358.91,-455.29 356.01,-448.46 352.39,-451.76"/>
</g>
<!-- CaseA_5_1 -->
<g id="node33" class="node">
<title>CaseA_5_1</title>
<ellipse fill="#f5f5f5" stroke="black" cx="456.8" cy="-316" rx="19.8" ry="19.8"/>
</g>
<!-- CaseA_4_1&#45;&gt;CaseA_5_1 -->
<g id="edge35" class="edge">
<title>CaseA_4_1&#45;&gt;CaseA_5_1</title>
<path fill="none" stroke="#999999" stroke-width="1.2" d="M394.3,-316C404.37,-316 416.9,-316 428.02,-316"/>
<polygon fill="#999999" stroke="#999999" stroke-width="1.2" points="427.74,-318.45 434.74,-316 427.74,-313.55 427.74,-318.45"/>
</g>
<!-- CaseA_5_2 -->
<g id="node34" class="node">
<title>CaseA_5_2</title>
<ellipse fill="#f5f5f5" stroke="black" cx="456.8" cy="-378" rx="19.8" ry="19.8"/>
</g>
<!-- CaseA_4_2&#45;&gt;CaseA_5_2 -->
<g id="edge36" class="edge">
<title>CaseA_4_2&#45;&gt;CaseA_5_2</title>
<path fill="none" stroke="#999999" stroke-width="1.2" d="M394.3,-378C404.37,-378 416.9,-378 428.02,-378"/>
<polygon fill="#999999" stroke="#999999" stroke-width="1.2" points="427.74,-380.45 434.74,-378 427.74,-375.55 427.74,-380.45"/>
</g>
<!-- CaseA_5_3 -->
<g id="node35" class="node">
<title>CaseA_5_3</title>
<ellipse fill="#f5f5f5" stroke="black" cx="456.8" cy="-440" rx="19.8" ry="19.8"/>
</g>
<!-- CaseA_4_2&#45;&gt;CaseA_5_3 -->
<g id="edge37" class="edge">
<title>CaseA_4_2&#45;&gt;CaseA_5_3</title>
<path fill="none" stroke="#999999" stroke-width="1.2" d="M390.36,-389.66C402.55,-399.04 419.86,-412.35 433.61,-422.93"/>
<polygon fill="#999999" stroke="#999999" stroke-width="1.2" points="431.95,-424.75 438.99,-427.07 434.94,-420.86 431.95,-424.75"/>
</g>
<!-- CaseA_5_4 -->
<g id="node36" class="node">
<title>CaseA_5_4</title>
<ellipse fill="#f5f5f5" stroke="black" cx="456.8" cy="-502" rx="19.8" ry="19.8"/>
</g>
<!-- CaseA_4_3&#45;&gt;CaseA_5_4 -->
<g id="edge38" class="edge">
<title>CaseA_4_3&#45;&gt;CaseA_5_4</title>
<path fill="none" stroke="#999999" stroke-width="1.2" d="M393.09,-477.88C403.94,-482.05 417.97,-487.45 430.01,-492.08"/>
<polygon fill="#999999" stroke="#999999" stroke-width="1.2" points="428.85,-494.26 436.27,-494.49 430.61,-489.69 428.85,-494.26"/>
</g>
<!-- CaseA_6_1 -->
<g id="node37" class="node">
<title>CaseA_6_1</title>
<ellipse fill="#f5f5f5" stroke="black" cx="539.4" cy="-362" rx="19.8" ry="19.8"/>
</g>
<!-- CaseA_5_1&#45;&gt;CaseA_6_1 -->
<g id="edge39" class="edge">
<title>CaseA_5_1&#45;&gt;CaseA_6_1</title>
<path fill="none" stroke="#999999" stroke-width="1.2" d="M474.5,-325.53C485.96,-332.07 501.34,-340.85 514.14,-348.16"/>
<polygon fill="#999999" stroke="#999999" stroke-width="1.2" points="512.85,-350.24 520.14,-351.58 515.28,-345.98 512.85,-350.24"/>
</g>
<!-- CaseA_5_2&#45;&gt;CaseA_6_1 -->
<g id="edge40" class="edge">
<title>CaseA_5_2&#45;&gt;CaseA_6_1</title>
<path fill="none" stroke="#999999" stroke-width="1.2" d="M476.49,-374.29C486.8,-372.24 499.77,-369.67 511.18,-367.4"/>
<polygon fill="#999999" stroke="#999999" stroke-width="1.2" points="511.36,-369.87 517.75,-366.1 510.4,-365.06 511.36,-369.87"/>
</g>
<!-- CaseA_6_2 -->
<g id="node38" class="node">
<title>CaseA_6_2</title>
<ellipse fill="#f5f5f5" stroke="black" cx="539.4" cy="-455" rx="19.8" ry="19.8"/>
</g>
<!-- CaseA_5_3&#45;&gt;CaseA_6_2 -->
<g id="edge41" class="edge">
<title>CaseA_5_3&#45;&gt;CaseA_6_2</title>
<path fill="none" stroke="#999999" stroke-width="1.2" d="M476.49,-443.48C486.8,-445.4 499.77,-447.81 511.18,-449.93"/>
<polygon fill="#999999" stroke="#999999" stroke-width="1.2" points="510.41,-452.28 517.74,-451.16 511.31,-447.47 510.41,-452.28"/>
</g>
<!-- CaseA_5_4&#45;&gt;CaseA_6_2 -->
<g id="edge42" class="edge">
<title>CaseA_5_4&#45;&gt;CaseA_6_2</title>
<path fill="none" stroke="#999999" stroke-width="1.2" d="M474.5,-492.26C485.96,-485.58 501.34,-476.61 514.14,-469.15"/>
<polygon fill="#999999" stroke="#999999" stroke-width="1.2" points="515.34,-471.28 520.15,-465.64 512.87,-467.05 515.34,-471.28"/>
</g>
</g>
</svg>
