<svg xmlns="http://www.w3.org/2000/svg" width="760" height="350">
<rect x="0" y="0" width="100%" height="100%" fill="white"/>
<rect x="30.0" y="58.0" width="700.0" height="255.0" fill="white" stroke="#111" stroke-width="1.4"/>
<line x1="82.0" y1="279.0" x2="716.0" y2="279.0" stroke="#111" stroke-width="1.2"/>
<line x1="82.0" y1="84.0" x2="82.0" y2="279.0" stroke="#111" stroke-width="1.2"/>
<line x1="82.0" y1="279.0" x2="716.0" y2="84.0" stroke="#555" stroke-width="1.3" stroke-dasharray="6,4"/>
<line x1="82.0" y1="279.0" x2="82.0" y2="282.0" stroke="#222" stroke-width="1"/>
<text x="82.0" y="297.0" text-anchor="middle" font-size="10" font-family="Times New Roman, serif">51.2k</text>
<line x1="79.0" y1="279.0" x2="82.0" y2="279.0" stroke="#222" stroke-width="1"/>
<text x="74.0" y="282.0" text-anchor="end" font-size="10" font-family="Times New Roman, serif">51.2k</text>
<line x1="208.8" y1="279.0" x2="208.8" y2="282.0" stroke="#222" stroke-width="1"/>
<text x="208.8" y="297.0" text-anchor="middle" font-size="10" font-family="Times New Roman, serif">195.4k</text>
<line x1="79.0" y1="240.0" x2="82.0" y2="240.0" stroke="#222" stroke-width="1"/>
<text x="74.0" y="243.0" text-anchor="end" font-size="10" font-family="Times New Roman, serif">195.4k</text>
<line x1="335.6" y1="279.0" x2="335.6" y2="282.0" stroke="#222" stroke-width="1"/>
<text x="335.6" y="297.0" text-anchor="middle" font-size="10" font-family="Times New Roman, serif">339.7k</text>
<line x1="79.0" y1="201.0" x2="82.0" y2="201.0" stroke="#222" stroke-width="1"/>
<text x="74.0" y="204.0" text-anchor="end" font-size="10" font-family="Times New Roman, serif">339.7k</text>
<line x1="462.4" y1="279.0" x2="462.4" y2="282.0" stroke="#222" stroke-width="1"/>
<text x="462.4" y="297.0" text-anchor="middle" font-size="10" font-family="Times New Roman, serif">483.9k</text>
<line x1="79.0" y1="162.0" x2="82.0" y2="162.0" stroke="#222" stroke-width="1"/>
<text x="74.0" y="165.0" text-anchor="end" font-size="10" font-family="Times New Roman, serif">483.9k</text>
<line x1="589.2" y1="279.0" x2="589.2" y2="282.0" stroke="#222" stroke-width="1"/>
<text x="589.2" y="297.0" text-anchor="middle" font-size="10" font-family="Times New Roman, serif">628.2k</text>
<line x1="79.0" y1="123.0" x2="82.0" y2="123.0" stroke="#222" stroke-width="1"/>
<text x="74.0" y="126.0" text-anchor="end" font-size="10" font-family="Times New Roman, serif">628.2k</text>
<line x1="716.0" y1="279.0" x2="716.0" y2="282.0" stroke="#222" stroke-width="1"/>
<text x="716.0" y="297.0" text-anchor="middle" font-size="10" font-family="Times New Roman, serif">772.4k</text>
<line x1="79.0" y1="84.0" x2="82.0" y2="84.0" stroke="#222" stroke-width="1"/>
<text x="74.0" y="87.0" text-anchor="end" font-size="10" font-family="Times New Roman, serif">772.4k</text>
<text x="380.0" y="307.0" text-anchor="middle" font-size="12" font-family="Times New Roman, serif">Parent node A performance</text>
<text x="44.0" y="185.5" text-anchor="middle" font-size="12" font-family="Times New Roman, serif" transform="rotate(-90 44.0 185.5)">Child node B performance</text>
<circle cx="672.3" cy="132.1" r="2.6" fill="#1f9d8a" stroke="#146a5c" stroke-width="1.1"/>
<circle cx="672.3" cy="154.7" r="2.6" fill="#1f9d8a" stroke="#146a5c" stroke-width="1.1"/>
<circle cx="672.3" cy="163.3" r="2.6" fill="#1f9d8a" stroke="#146a5c" stroke-width="1.1"/>
<circle cx="672.3" cy="215.5" r="2.6" fill="#1f9d8a" stroke="#146a5c" stroke-width="1.1"/>
<circle cx="672.3" cy="217.3" r="2.6" fill="#1f9d8a" stroke="#146a5c" stroke-width="1.1"/>
<circle cx="672.3" cy="238.6" r="2.6" fill="#1f9d8a" stroke="#146a5c" stroke-width="1.1"/>
<circle cx="559.7" cy="176.1" r="2.6" fill="#1f9d8a" stroke="#146a5c" stroke-width="1.1"/>
<circle cx="559.7" cy="181.8" r="2.6" fill="#1f9d8a" stroke="#146a5c" stroke-width="1.1"/>
<circle cx="559.7" cy="223.1" r="2.6" fill="#1f9d8a" stroke="#146a5c" stroke-width="1.1"/>
<circle cx="559.7" cy="221.4" r="2.6" fill="#1f9d8a" stroke="#146a5c" stroke-width="1.1"/>
<circle cx="559.7" cy="242.4" r="2.6" fill="#1f9d8a" stroke="#146a5c" stroke-width="1.1"/>
<circle cx="486.1" cy="176.1" r="2.6" fill="#1f9d8a" stroke="#146a5c" stroke-width="1.1"/>
<circle cx="486.1" cy="174.2" r="2.6" fill="#1f9d8a" stroke="#146a5c" stroke-width="1.1"/>
<circle cx="486.1" cy="217.9" r="2.6" fill="#1f9d8a" stroke="#146a5c" stroke-width="1.1"/>
<circle cx="486.1" cy="228.7" r="2.6" fill="#1f9d8a" stroke="#146a5c" stroke-width="1.1"/>
<circle cx="486.1" cy="240.9" r="2.6" fill="#1f9d8a" stroke="#146a5c" stroke-width="1.1"/>
<circle cx="458.0" cy="174.2" r="2.6" fill="#1f9d8a" stroke="#146a5c" stroke-width="1.1"/>
<circle cx="458.0" cy="181.8" r="2.6" fill="#1f9d8a" stroke="#146a5c" stroke-width="1.1"/>
<circle cx="458.0" cy="223.2" r="2.6" fill="#1f9d8a" stroke="#146a5c" stroke-width="1.1"/>
<circle cx="458.0" cy="231.8" r="2.6" fill="#1f9d8a" stroke="#146a5c" stroke-width="1.1"/>
<circle cx="458.0" cy="242.2" r="2.6" fill="#1f9d8a" stroke="#146a5c" stroke-width="1.1"/>
<circle cx="416.6" cy="188.2" r="2.6" fill="#1f9d8a" stroke="#146a5c" stroke-width="1.1"/>
<circle cx="416.6" cy="227.1" r="2.6" fill="#1f9d8a" stroke="#146a5c" stroke-width="1.1"/>
<circle cx="416.6" cy="230.5" r="2.6" fill="#1f9d8a" stroke="#146a5c" stroke-width="1.1"/>
<circle cx="416.6" cy="243.1" r="2.6" fill="#1f9d8a" stroke="#146a5c" stroke-width="1.1"/>
<circle cx="422.9" cy="188.2" r="2.6" fill="#1f9d8a" stroke="#146a5c" stroke-width="1.1"/>
<circle cx="422.9" cy="228.7" r="2.6" fill="#1f9d8a" stroke="#146a5c" stroke-width="1.1"/>
<circle cx="422.9" cy="233.8" r="2.6" fill="#1f9d8a" stroke="#146a5c" stroke-width="1.1"/>
<circle cx="422.9" cy="243.2" r="2.6" fill="#1f9d8a" stroke="#146a5c" stroke-width="1.1"/>
<circle cx="397.9" cy="188.2" r="2.6" fill="#1f9d8a" stroke="#146a5c" stroke-width="1.1"/>
<circle cx="397.9" cy="229.2" r="2.6" fill="#1f9d8a" stroke="#146a5c" stroke-width="1.1"/>
<circle cx="397.9" cy="233.7" r="2.6" fill="#1f9d8a" stroke="#146a5c" stroke-width="1.1"/>
<circle cx="397.9" cy="244.7" r="2.6" fill="#1f9d8a" stroke="#146a5c" stroke-width="1.1"/>
<circle cx="377.2" cy="230.8" r="2.6" fill="#1f9d8a" stroke="#146a5c" stroke-width="1.1"/>
<circle cx="377.2" cy="236.3" r="2.6" fill="#1f9d8a" stroke="#146a5c" stroke-width="1.1"/>
<circle cx="377.2" cy="247.2" r="2.6" fill="#1f9d8a" stroke="#146a5c" stroke-width="1.1"/>
<circle cx="288.4" cy="217.9" r="2.6" fill="#1f9d8a" stroke="#146a5c" stroke-width="1.1"/>
<circle cx="288.4" cy="223.1" r="2.6" fill="#1f9d8a" stroke="#146a5c" stroke-width="1.1"/>
<circle cx="288.4" cy="223.2" r="2.6" fill="#1f9d8a" stroke="#146a5c" stroke-width="1.1"/>
<circle cx="288.4" cy="244.9" r="2.6" fill="#1f9d8a" stroke="#146a5c" stroke-width="1.1"/>
<circle cx="288.4" cy="253.4" r="2.6" fill="#1f9d8a" stroke="#146a5c" stroke-width="1.1"/>
<circle cx="280.6" cy="227.1" r="2.6" fill="#1f9d8a" stroke="#146a5c" stroke-width="1.1"/>
<circle cx="280.6" cy="228.7" r="2.6" fill="#1f9d8a" stroke="#146a5c" stroke-width="1.1"/>
<circle cx="280.6" cy="246.3" r="2.6" fill="#1f9d8a" stroke="#146a5c" stroke-width="1.1"/>
<circle cx="280.6" cy="254.3" r="2.6" fill="#1f9d8a" stroke="#146a5c" stroke-width="1.1"/>
<circle cx="263.7" cy="227.1" r="2.6" fill="#1f9d8a" stroke="#146a5c" stroke-width="1.1"/>
<circle cx="263.7" cy="229.2" r="2.6" fill="#1f9d8a" stroke="#146a5c" stroke-width="1.1"/>
<circle cx="263.7" cy="247.2" r="2.6" fill="#1f9d8a" stroke="#146a5c" stroke-width="1.1"/>
<circle cx="263.7" cy="254.9" r="2.6" fill="#1f9d8a" stroke="#146a5c" stroke-width="1.1"/>
<circle cx="263.3" cy="228.7" r="2.6" fill="#1f9d8a" stroke="#146a5c" stroke-width="1.1"/>
<circle cx="263.3" cy="229.2" r="2.6" fill="#1f9d8a" stroke="#146a5c" stroke-width="1.1"/>
<circle cx="263.3" cy="247.2" r="2.6" fill="#1f9d8a" stroke="#146a5c" stroke-width="1.1"/>
<circle cx="263.3" cy="255.0" r="2.6" fill="#1f9d8a" stroke="#146a5c" stroke-width="1.1"/>
<circle cx="250.9" cy="230.8" r="2.6" fill="#1f9d8a" stroke="#146a5c" stroke-width="1.1"/>
<circle cx="250.9" cy="247.8" r="2.6" fill="#1f9d8a" stroke="#146a5c" stroke-width="1.1"/>
<circle cx="250.9" cy="255.8" r="2.6" fill="#1f9d8a" stroke="#146a5c" stroke-width="1.1"/>
<circle cx="245.5" cy="230.8" r="2.6" fill="#1f9d8a" stroke="#146a5c" stroke-width="1.1"/>
<circle cx="245.5" cy="248.4" r="2.6" fill="#1f9d8a" stroke="#146a5c" stroke-width="1.1"/>
<circle cx="245.5" cy="255.8" r="2.6" fill="#1f9d8a" stroke="#146a5c" stroke-width="1.1"/>
<circle cx="282.5" cy="228.7" r="2.6" fill="#1f9d8a" stroke="#146a5c" stroke-width="1.1"/>
<circle cx="282.5" cy="221.4" r="2.6" fill="#1f9d8a" stroke="#146a5c" stroke-width="1.1"/>
<circle cx="282.5" cy="231.8" r="2.6" fill="#1f9d8a" stroke="#146a5c" stroke-width="1.1"/>
<circle cx="282.5" cy="244.9" r="2.6" fill="#1f9d8a" stroke="#146a5c" stroke-width="1.1"/>
<circle cx="282.5" cy="255.4" r="2.6" fill="#1f9d8a" stroke="#146a5c" stroke-width="1.1"/>
<circle cx="243.8" cy="230.8" r="2.6" fill="#1f9d8a" stroke="#146a5c" stroke-width="1.1"/>
<circle cx="243.8" cy="250.4" r="2.6" fill="#1f9d8a" stroke="#146a5c" stroke-width="1.1"/>
<circle cx="243.8" cy="256.5" r="2.6" fill="#1f9d8a" stroke="#146a5c" stroke-width="1.1"/>
<circle cx="238.8" cy="251.0" r="2.6" fill="#1f9d8a" stroke="#146a5c" stroke-width="1.1"/>
<circle cx="238.8" cy="257.7" r="2.6" fill="#1f9d8a" stroke="#146a5c" stroke-width="1.1"/>
<circle cx="265.1" cy="231.9" r="2.6" fill="#1f9d8a" stroke="#146a5c" stroke-width="1.1"/>
<circle cx="265.1" cy="234.1" r="2.6" fill="#1f9d8a" stroke="#146a5c" stroke-width="1.1"/>
<circle cx="265.1" cy="248.0" r="2.6" fill="#1f9d8a" stroke="#146a5c" stroke-width="1.1"/>
<circle cx="265.1" cy="255.3" r="2.6" fill="#1f9d8a" stroke="#146a5c" stroke-width="1.1"/>
<circle cx="245.5" cy="230.5" r="2.6" fill="#1f9d8a" stroke="#146a5c" stroke-width="1.1"/>
<circle cx="245.5" cy="233.8" r="2.6" fill="#1f9d8a" stroke="#146a5c" stroke-width="1.1"/>
<circle cx="245.5" cy="246.3" r="2.6" fill="#1f9d8a" stroke="#146a5c" stroke-width="1.1"/>
<circle cx="245.5" cy="255.8" r="2.6" fill="#1f9d8a" stroke="#146a5c" stroke-width="1.1"/>
<circle cx="269.2" cy="222.7" r="2.6" fill="#1f9d8a" stroke="#146a5c" stroke-width="1.1"/>
<circle cx="269.2" cy="225.0" r="2.6" fill="#1f9d8a" stroke="#146a5c" stroke-width="1.1"/>
<circle cx="269.2" cy="230.5" r="2.6" fill="#1f9d8a" stroke="#146a5c" stroke-width="1.1"/>
<circle cx="269.2" cy="233.7" r="2.6" fill="#1f9d8a" stroke="#146a5c" stroke-width="1.1"/>
<circle cx="269.2" cy="247.2" r="2.6" fill="#1f9d8a" stroke="#146a5c" stroke-width="1.1"/>
<circle cx="269.2" cy="257.7" r="2.6" fill="#1f9d8a" stroke="#146a5c" stroke-width="1.1"/>
<circle cx="257.6" cy="231.0" r="2.6" fill="#1f9d8a" stroke="#146a5c" stroke-width="1.1"/>
<circle cx="257.6" cy="236.9" r="2.6" fill="#1f9d8a" stroke="#146a5c" stroke-width="1.1"/>
<circle cx="257.6" cy="250.7" r="2.6" fill="#1f9d8a" stroke="#146a5c" stroke-width="1.1"/>
<circle cx="257.6" cy="256.7" r="2.6" fill="#1f9d8a" stroke="#146a5c" stroke-width="1.1"/>
<circle cx="235.4" cy="233.8" r="2.6" fill="#1f9d8a" stroke="#146a5c" stroke-width="1.1"/>
<circle cx="235.4" cy="233.7" r="2.6" fill="#1f9d8a" stroke="#146a5c" stroke-width="1.1"/>
<circle cx="235.4" cy="247.2" r="2.6" fill="#1f9d8a" stroke="#146a5c" stroke-width="1.1"/>
<circle cx="235.4" cy="256.8" r="2.6" fill="#1f9d8a" stroke="#146a5c" stroke-width="1.1"/>
<circle cx="213.5" cy="240.9" r="2.6" fill="#1f9d8a" stroke="#146a5c" stroke-width="1.1"/>
<circle cx="213.5" cy="242.4" r="2.6" fill="#1f9d8a" stroke="#146a5c" stroke-width="1.1"/>
<circle cx="213.5" cy="242.2" r="2.6" fill="#1f9d8a" stroke="#146a5c" stroke-width="1.1"/>
<circle cx="213.5" cy="253.4" r="2.6" fill="#1f9d8a" stroke="#146a5c" stroke-width="1.1"/>
<circle cx="213.5" cy="255.4" r="2.6" fill="#1f9d8a" stroke="#146a5c" stroke-width="1.1"/>
<circle cx="235.1" cy="236.1" r="2.6" fill="#1f9d8a" stroke="#146a5c" stroke-width="1.1"/>
<circle cx="235.1" cy="250.4" r="2.6" fill="#1f9d8a" stroke="#146a5c" stroke-width="1.1"/>
<circle cx="235.1" cy="257.9" r="2.6" fill="#1f9d8a" stroke="#146a5c" stroke-width="1.1"/>
<circle cx="205.7" cy="243.2" r="2.6" fill="#1f9d8a" stroke="#146a5c" stroke-width="1.1"/>
<circle cx="205.7" cy="243.1" r="2.6" fill="#1f9d8a" stroke="#146a5c" stroke-width="1.1"/>
<circle cx="205.7" cy="254.3" r="2.6" fill="#1f9d8a" stroke="#146a5c" stroke-width="1.1"/>
<circle cx="205.7" cy="255.8" r="2.6" fill="#1f9d8a" stroke="#146a5c" stroke-width="1.1"/>
<circle cx="239.6" cy="231.9" r="2.6" fill="#1f9d8a" stroke="#146a5c" stroke-width="1.1"/>
<circle cx="239.6" cy="231.0" r="2.6" fill="#1f9d8a" stroke="#146a5c" stroke-width="1.1"/>
<circle cx="239.6" cy="236.3" r="2.6" fill="#1f9d8a" stroke="#146a5c" stroke-width="1.1"/>
<circle cx="239.6" cy="247.8" r="2.6" fill="#1f9d8a" stroke="#146a5c" stroke-width="1.1"/>
<circle cx="239.6" cy="258.3" r="2.6" fill="#1f9d8a" stroke="#146a5c" stroke-width="1.1"/>
<circle cx="238.2" cy="240.2" r="2.6" fill="#1f9d8a" stroke="#146a5c" stroke-width="1.1"/>
<circle cx="238.2" cy="248.8" r="2.6" fill="#1f9d8a" stroke="#146a5c" stroke-width="1.1"/>
<circle cx="238.2" cy="258.3" r="2.6" fill="#1f9d8a" stroke="#146a5c" stroke-width="1.1"/>
<circle cx="229.1" cy="236.3" r="2.6" fill="#1f9d8a" stroke="#146a5c" stroke-width="1.1"/>
<circle cx="229.1" cy="248.4" r="2.6" fill="#1f9d8a" stroke="#146a5c" stroke-width="1.1"/>
<circle cx="229.1" cy="256.7" r="2.6" fill="#1f9d8a" stroke="#146a5c" stroke-width="1.1"/>
<circle cx="201.0" cy="243.1" r="2.6" fill="#1f9d8a" stroke="#146a5c" stroke-width="1.1"/>
<circle cx="201.0" cy="244.7" r="2.6" fill="#1f9d8a" stroke="#146a5c" stroke-width="1.1"/>
<circle cx="201.0" cy="254.9" r="2.6" fill="#1f9d8a" stroke="#146a5c" stroke-width="1.1"/>
<circle cx="201.0" cy="257.7" r="2.6" fill="#1f9d8a" stroke="#146a5c" stroke-width="1.1"/>
<circle cx="228.1" cy="236.1" r="2.6" fill="#1f9d8a" stroke="#146a5c" stroke-width="1.1"/>
<circle cx="228.1" cy="252.3" r="2.6" fill="#1f9d8a" stroke="#146a5c" stroke-width="1.1"/>
<circle cx="228.1" cy="259.3" r="2.6" fill="#1f9d8a" stroke="#146a5c" stroke-width="1.1"/>
<circle cx="229.3" cy="234.1" r="2.6" fill="#1f9d8a" stroke="#146a5c" stroke-width="1.1"/>
<circle cx="229.3" cy="236.3" r="2.6" fill="#1f9d8a" stroke="#146a5c" stroke-width="1.1"/>
<circle cx="229.3" cy="236.9" r="2.6" fill="#1f9d8a" stroke="#146a5c" stroke-width="1.1"/>
<circle cx="229.3" cy="250.4" r="2.6" fill="#1f9d8a" stroke="#146a5c" stroke-width="1.1"/>
<circle cx="229.3" cy="259.6" r="2.6" fill="#1f9d8a" stroke="#146a5c" stroke-width="1.1"/>
<circle cx="201.7" cy="243.2" r="2.6" fill="#1f9d8a" stroke="#146a5c" stroke-width="1.1"/>
<circle cx="201.7" cy="244.7" r="2.6" fill="#1f9d8a" stroke="#146a5c" stroke-width="1.1"/>
<circle cx="201.7" cy="255.0" r="2.6" fill="#1f9d8a" stroke="#146a5c" stroke-width="1.1"/>
<circle cx="201.7" cy="256.8" r="2.6" fill="#1f9d8a" stroke="#146a5c" stroke-width="1.1"/>
<circle cx="198.4" cy="247.2" r="2.6" fill="#1f9d8a" stroke="#146a5c" stroke-width="1.1"/>
<circle cx="198.4" cy="255.8" r="2.6" fill="#1f9d8a" stroke="#146a5c" stroke-width="1.1"/>
<circle cx="198.4" cy="256.7" r="2.6" fill="#1f9d8a" stroke="#146a5c" stroke-width="1.1"/>
<circle cx="221.4" cy="251.9" r="2.6" fill="#1f9d8a" stroke="#146a5c" stroke-width="1.1"/>
<circle cx="221.4" cy="258.2" r="2.6" fill="#1f9d8a" stroke="#146a5c" stroke-width="1.1"/>
<circle cx="198.8" cy="247.2" r="2.6" fill="#1f9d8a" stroke="#146a5c" stroke-width="1.1"/>
<circle cx="198.8" cy="255.8" r="2.6" fill="#1f9d8a" stroke="#146a5c" stroke-width="1.1"/>
<circle cx="198.8" cy="258.3" r="2.6" fill="#1f9d8a" stroke="#146a5c" stroke-width="1.1"/>
<circle cx="220.7" cy="236.1" r="2.6" fill="#e67e22" stroke="#9a5216" stroke-width="1.1"/>
<circle cx="220.7" cy="240.2" r="2.6" fill="#1f9d8a" stroke="#146a5c" stroke-width="1.1"/>
<circle cx="220.7" cy="251.0" r="2.6" fill="#1f9d8a" stroke="#146a5c" stroke-width="1.1"/>
<circle cx="220.7" cy="259.5" r="2.6" fill="#1f9d8a" stroke="#146a5c" stroke-width="1.1"/>
<circle cx="208.2" cy="251.4" r="2.6" fill="#1f9d8a" stroke="#146a5c" stroke-width="1.1"/>
<circle cx="208.2" cy="258.3" r="2.6" fill="#1f9d8a" stroke="#146a5c" stroke-width="1.1"/>
<circle cx="193.4" cy="247.2" r="2.6" fill="#1f9d8a" stroke="#146a5c" stroke-width="1.1"/>
<circle cx="193.4" cy="256.5" r="2.6" fill="#1f9d8a" stroke="#146a5c" stroke-width="1.1"/>
<circle cx="193.4" cy="259.6" r="2.6" fill="#1f9d8a" stroke="#146a5c" stroke-width="1.1"/>
<circle cx="219.0" cy="240.2" r="2.6" fill="#1f9d8a" stroke="#146a5c" stroke-width="1.1"/>
<circle cx="219.0" cy="249.8" r="2.6" fill="#1f9d8a" stroke="#146a5c" stroke-width="1.1"/>
<circle cx="219.0" cy="258.9" r="2.6" fill="#1f9d8a" stroke="#146a5c" stroke-width="1.1"/>
<circle cx="185.3" cy="257.7" r="2.6" fill="#1f9d8a" stroke="#146a5c" stroke-width="1.1"/>
<circle cx="185.3" cy="259.5" r="2.6" fill="#1f9d8a" stroke="#146a5c" stroke-width="1.1"/>
<circle cx="188.5" cy="247.8" r="2.6" fill="#1f9d8a" stroke="#146a5c" stroke-width="1.1"/>
<circle cx="188.5" cy="248.4" r="2.6" fill="#1f9d8a" stroke="#146a5c" stroke-width="1.1"/>
<circle cx="188.5" cy="263.4" r="2.6" fill="#1f9d8a" stroke="#146a5c" stroke-width="1.1"/>
<circle cx="185.5" cy="250.7" r="2.6" fill="#1f9d8a" stroke="#146a5c" stroke-width="1.1"/>
<circle cx="185.5" cy="248.0" r="2.6" fill="#1f9d8a" stroke="#146a5c" stroke-width="1.1"/>
<circle cx="185.5" cy="247.8" r="2.6" fill="#1f9d8a" stroke="#146a5c" stroke-width="1.1"/>
<circle cx="185.5" cy="250.4" r="2.6" fill="#1f9d8a" stroke="#146a5c" stroke-width="1.1"/>
<circle cx="185.5" cy="263.1" r="2.6" fill="#1f9d8a" stroke="#146a5c" stroke-width="1.1"/>
<circle cx="173.9" cy="249.8" r="2.6" fill="#e67e22" stroke="#9a5216" stroke-width="1.1"/>
<circle cx="173.9" cy="248.8" r="2.6" fill="#e67e22" stroke="#9a5216" stroke-width="1.1"/>
<circle cx="173.9" cy="263.4" r="2.6" fill="#1f9d8a" stroke="#146a5c" stroke-width="1.1"/>
<circle cx="185.4" cy="250.4" r="2.6" fill="#1f9d8a" stroke="#146a5c" stroke-width="1.1"/>
<circle cx="185.4" cy="248.4" r="2.6" fill="#1f9d8a" stroke="#146a5c" stroke-width="1.1"/>
<circle cx="185.4" cy="263.0" r="2.6" fill="#1f9d8a" stroke="#146a5c" stroke-width="1.1"/>
<circle cx="192.9" cy="246.3" r="2.6" fill="#1f9d8a" stroke="#146a5c" stroke-width="1.1"/>
<circle cx="192.9" cy="247.2" r="2.6" fill="#1f9d8a" stroke="#146a5c" stroke-width="1.1"/>
<circle cx="192.9" cy="247.2" r="2.6" fill="#1f9d8a" stroke="#146a5c" stroke-width="1.1"/>
<circle cx="192.9" cy="263.3" r="2.6" fill="#1f9d8a" stroke="#146a5c" stroke-width="1.1"/>
<circle cx="182.7" cy="252.3" r="2.6" fill="#1f9d8a" stroke="#146a5c" stroke-width="1.1"/>
<circle cx="182.7" cy="250.4" r="2.6" fill="#1f9d8a" stroke="#146a5c" stroke-width="1.1"/>
<circle cx="182.7" cy="263.0" r="2.6" fill="#1f9d8a" stroke="#146a5c" stroke-width="1.1"/>
<circle cx="165.3" cy="254.3" r="2.6" fill="#1f9d8a" stroke="#146a5c" stroke-width="1.1"/>
<circle cx="165.3" cy="255.0" r="2.6" fill="#1f9d8a" stroke="#146a5c" stroke-width="1.1"/>
<circle cx="165.3" cy="254.9" r="2.6" fill="#1f9d8a" stroke="#146a5c" stroke-width="1.1"/>
<circle cx="165.3" cy="263.3" r="2.6" fill="#1f9d8a" stroke="#146a5c" stroke-width="1.1"/>
<circle cx="183.3" cy="248.8" r="2.6" fill="#1f9d8a" stroke="#146a5c" stroke-width="1.1"/>
<circle cx="183.3" cy="250.4" r="2.6" fill="#1f9d8a" stroke="#146a5c" stroke-width="1.1"/>
<circle cx="183.3" cy="251.0" r="2.6" fill="#1f9d8a" stroke="#146a5c" stroke-width="1.1"/>
<circle cx="183.3" cy="264.2" r="2.6" fill="#1f9d8a" stroke="#146a5c" stroke-width="1.1"/>
<circle cx="177.1" cy="251.4" r="2.6" fill="#1f9d8a" stroke="#146a5c" stroke-width="1.1"/>
<circle cx="177.1" cy="265.3" r="2.6" fill="#1f9d8a" stroke="#146a5c" stroke-width="1.1"/>
<circle cx="162.5" cy="255.8" r="2.6" fill="#1f9d8a" stroke="#146a5c" stroke-width="1.1"/>
<circle cx="162.5" cy="255.8" r="2.6" fill="#1f9d8a" stroke="#146a5c" stroke-width="1.1"/>
<circle cx="162.5" cy="263.4" r="2.6" fill="#1f9d8a" stroke="#146a5c" stroke-width="1.1"/>
<circle cx="168.8" cy="251.9" r="2.6" fill="#e67e22" stroke="#9a5216" stroke-width="1.1"/>
<circle cx="168.8" cy="265.5" r="2.6" fill="#1f9d8a" stroke="#146a5c" stroke-width="1.1"/>
<circle cx="180.1" cy="251.4" r="2.6" fill="#1f9d8a" stroke="#146a5c" stroke-width="1.1"/>
<circle cx="180.1" cy="265.6" r="2.6" fill="#1f9d8a" stroke="#146a5c" stroke-width="1.1"/>
<circle cx="159.9" cy="255.8" r="2.6" fill="#1f9d8a" stroke="#146a5c" stroke-width="1.1"/>
<circle cx="159.9" cy="256.5" r="2.6" fill="#1f9d8a" stroke="#146a5c" stroke-width="1.1"/>
<circle cx="159.9" cy="263.0" r="2.6" fill="#1f9d8a" stroke="#146a5c" stroke-width="1.1"/>
<circle cx="160.2" cy="255.8" r="2.6" fill="#1f9d8a" stroke="#146a5c" stroke-width="1.1"/>
<circle cx="160.2" cy="256.5" r="2.6" fill="#1f9d8a" stroke="#146a5c" stroke-width="1.1"/>
<circle cx="160.2" cy="263.1" r="2.6" fill="#1f9d8a" stroke="#146a5c" stroke-width="1.1"/>
<circle cx="175.0" cy="249.8" r="2.6" fill="#e67e22" stroke="#9a5216" stroke-width="1.1"/>
<circle cx="175.0" cy="252.3" r="2.6" fill="#1f9d8a" stroke="#146a5c" stroke-width="1.1"/>
<circle cx="175.0" cy="251.0" r="2.6" fill="#1f9d8a" stroke="#146a5c" stroke-width="1.1"/>
<circle cx="175.0" cy="265.2" r="2.6" fill="#1f9d8a" stroke="#146a5c" stroke-width="1.1"/>
<circle cx="181.4" cy="251.0" r="2.6" fill="#1f9d8a" stroke="#146a5c" stroke-width="1.1"/>
<circle cx="181.4" cy="263.6" r="2.6" fill="#1f9d8a" stroke="#146a5c" stroke-width="1.1"/>
<circle cx="157.5" cy="257.7" r="2.6" fill="#1f9d8a" stroke="#146a5c" stroke-width="1.1"/>
<circle cx="157.5" cy="264.2" r="2.6" fill="#1f9d8a" stroke="#146a5c" stroke-width="1.1"/>
<circle cx="170.2" cy="264.7" r="2.6" fill="#1f9d8a" stroke="#146a5c" stroke-width="1.1"/>
<circle cx="174.9" cy="251.9" r="2.6" fill="#1f9d8a" stroke="#146a5c" stroke-width="1.1"/>
<circle cx="174.9" cy="264.4" r="2.6" fill="#1f9d8a" stroke="#146a5c" stroke-width="1.1"/>
<circle cx="157.6" cy="257.7" r="2.6" fill="#1f9d8a" stroke="#146a5c" stroke-width="1.1"/>
<circle cx="157.6" cy="263.6" r="2.6" fill="#1f9d8a" stroke="#146a5c" stroke-width="1.1"/>
<circle cx="172.9" cy="251.9" r="2.6" fill="#1f9d8a" stroke="#146a5c" stroke-width="1.1"/>
<circle cx="172.9" cy="251.4" r="2.6" fill="#1f9d8a" stroke="#146a5c" stroke-width="1.1"/>
<circle cx="172.9" cy="265.5" r="2.6" fill="#1f9d8a" stroke="#146a5c" stroke-width="1.1"/>
<circle cx="155.0" cy="257.7" r="2.6" fill="#1f9d8a" stroke="#146a5c" stroke-width="1.1"/>
<circle cx="155.0" cy="265.2" r="2.6" fill="#1f9d8a" stroke="#146a5c" stroke-width="1.1"/>
<circle cx="171.9" cy="264.4" r="2.6" fill="#1f9d8a" stroke="#146a5c" stroke-width="1.1"/>
<circle cx="151.3" cy="265.5" r="2.6" fill="#1f9d8a" stroke="#146a5c" stroke-width="1.1"/>
<circle cx="157.6" cy="258.3" r="2.6" fill="#1f9d8a" stroke="#146a5c" stroke-width="1.1"/>
<circle cx="157.6" cy="256.7" r="2.6" fill="#1f9d8a" stroke="#146a5c" stroke-width="1.1"/>
<circle cx="157.6" cy="263.4" r="2.6" fill="#1f9d8a" stroke="#146a5c" stroke-width="1.1"/>
<circle cx="154.6" cy="258.9" r="2.6" fill="#1f9d8a" stroke="#146a5c" stroke-width="1.1"/>
<circle cx="154.6" cy="258.3" r="2.6" fill="#1f9d8a" stroke="#146a5c" stroke-width="1.1"/>
<circle cx="154.6" cy="263.4" r="2.6" fill="#1f9d8a" stroke="#146a5c" stroke-width="1.1"/>
<circle cx="158.7" cy="255.8" r="2.6" fill="#1f9d8a" stroke="#146a5c" stroke-width="1.1"/>
<circle cx="158.7" cy="256.8" r="2.6" fill="#1f9d8a" stroke="#146a5c" stroke-width="1.1"/>
<circle cx="158.7" cy="257.7" r="2.6" fill="#1f9d8a" stroke="#146a5c" stroke-width="1.1"/>
<circle cx="158.7" cy="263.3" r="2.6" fill="#1f9d8a" stroke="#146a5c" stroke-width="1.1"/>
<circle cx="154.3" cy="256.7" r="2.6" fill="#e67e22" stroke="#9a5216" stroke-width="1.1"/>
<circle cx="154.3" cy="259.6" r="2.6" fill="#1f9d8a" stroke="#146a5c" stroke-width="1.1"/>
<circle cx="154.3" cy="263.0" r="2.6" fill="#1f9d8a" stroke="#146a5c" stroke-width="1.1"/>
<circle cx="159.1" cy="257.9" r="2.6" fill="#1f9d8a" stroke="#146a5c" stroke-width="1.1"/>
<circle cx="159.1" cy="259.3" r="2.6" fill="#1f9d8a" stroke="#146a5c" stroke-width="1.1"/>
<circle cx="159.1" cy="263.0" r="2.6" fill="#1f9d8a" stroke="#146a5c" stroke-width="1.1"/>
<circle cx="151.2" cy="256.7" r="2.6" fill="#e67e22" stroke="#9a5216" stroke-width="1.1"/>
<circle cx="151.2" cy="255.3" r="2.6" fill="#e67e22" stroke="#9a5216" stroke-width="1.1"/>
<circle cx="151.2" cy="258.3" r="2.6" fill="#1f9d8a" stroke="#146a5c" stroke-width="1.1"/>
<circle cx="151.2" cy="259.6" r="2.6" fill="#1f9d8a" stroke="#146a5c" stroke-width="1.1"/>
<circle cx="151.2" cy="263.1" r="2.6" fill="#1f9d8a" stroke="#146a5c" stroke-width="1.1"/>
<circle cx="149.3" cy="258.3" r="2.6" fill="#1f9d8a" stroke="#146a5c" stroke-width="1.1"/>
<circle cx="149.3" cy="257.9" r="2.6" fill="#e67e22" stroke="#9a5216" stroke-width="1.1"/>
<circle cx="149.3" cy="259.5" r="2.6" fill="#1f9d8a" stroke="#146a5c" stroke-width="1.1"/>
<circle cx="149.3" cy="264.2" r="2.6" fill="#1f9d8a" stroke="#146a5c" stroke-width="1.1"/>
<circle cx="154.6" cy="259.5" r="2.6" fill="#1f9d8a" stroke="#146a5c" stroke-width="1.1"/>
<circle cx="154.6" cy="263.6" r="2.6" fill="#1f9d8a" stroke="#146a5c" stroke-width="1.1"/>
<circle cx="147.3" cy="258.3" r="2.6" fill="#e67e22" stroke="#9a5216" stroke-width="1.1"/>
<circle cx="147.3" cy="265.3" r="2.6" fill="#1f9d8a" stroke="#146a5c" stroke-width="1.1"/>
<circle cx="149.4" cy="264.4" r="2.6" fill="#1f9d8a" stroke="#146a5c" stroke-width="1.1"/>
<circle cx="149.2" cy="258.3" r="2.6" fill="#e67e22" stroke="#9a5216" stroke-width="1.1"/>
<circle cx="149.2" cy="265.6" r="2.6" fill="#1f9d8a" stroke="#146a5c" stroke-width="1.1"/>
<circle cx="150.5" cy="258.2" r="2.6" fill="#1f9d8a" stroke="#146a5c" stroke-width="1.1"/>
<circle cx="150.5" cy="264.4" r="2.6" fill="#1f9d8a" stroke="#146a5c" stroke-width="1.1"/>
<circle cx="149.5" cy="264.7" r="2.6" fill="#1f9d8a" stroke="#146a5c" stroke-width="1.1"/>
<circle cx="146.1" cy="258.2" r="2.6" fill="#e67e22" stroke="#9a5216" stroke-width="1.1"/>
<circle cx="146.1" cy="265.5" r="2.6" fill="#1f9d8a" stroke="#146a5c" stroke-width="1.1"/>
<circle cx="145.0" cy="258.9" r="2.6" fill="#e67e22" stroke="#9a5216" stroke-width="1.1"/>
<circle cx="145.0" cy="259.3" r="2.6" fill="#e67e22" stroke="#9a5216" stroke-width="1.1"/>
<circle cx="145.0" cy="259.5" r="2.6" fill="#e67e22" stroke="#9a5216" stroke-width="1.1"/>
<circle cx="145.0" cy="265.2" r="2.6" fill="#1f9d8a" stroke="#146a5c" stroke-width="1.1"/>
<circle cx="145.3" cy="258.3" r="2.6" fill="#e67e22" stroke="#9a5216" stroke-width="1.1"/>
<circle cx="145.3" cy="258.2" r="2.6" fill="#e67e22" stroke="#9a5216" stroke-width="1.1"/>
<circle cx="145.3" cy="265.5" r="2.6" fill="#1f9d8a" stroke="#146a5c" stroke-width="1.1"/>
<circle cx="132.6" cy="263.6" r="2.6" fill="#1f9d8a" stroke="#146a5c" stroke-width="1.1"/>
<circle cx="132.6" cy="264.2" r="2.6" fill="#1f9d8a" stroke="#146a5c" stroke-width="1.1"/>
<circle cx="134.0" cy="263.6" r="2.6" fill="#1f9d8a" stroke="#146a5c" stroke-width="1.1"/>
<circle cx="134.0" cy="265.2" r="2.6" fill="#1f9d8a" stroke="#146a5c" stroke-width="1.1"/>
<circle cx="133.6" cy="263.0" r="2.6" fill="#e67e22" stroke="#9a5216" stroke-width="1.1"/>
<circle cx="133.6" cy="263.4" r="2.6" fill="#1f9d8a" stroke="#146a5c" stroke-width="1.1"/>
<circle cx="133.6" cy="264.2" r="2.6" fill="#1f9d8a" stroke="#146a5c" stroke-width="1.1"/>
<circle cx="133.6" cy="265.2" r="2.6" fill="#1f9d8a" stroke="#146a5c" stroke-width="1.1"/>
<circle cx="133.1" cy="263.4" r="2.6" fill="#1f9d8a" stroke="#146a5c" stroke-width="1.1"/>
<circle cx="133.1" cy="263.0" r="2.6" fill="#e67e22" stroke="#9a5216" stroke-width="1.1"/>
<circle cx="133.1" cy="263.1" r="2.6" fill="#e67e22" stroke="#9a5216" stroke-width="1.1"/>
<circle cx="134.2" cy="264.4" r="2.6" fill="#1f9d8a" stroke="#146a5c" stroke-width="1.1"/>
<circle cx="134.2" cy="265.5" r="2.6" fill="#1f9d8a" stroke="#146a5c" stroke-width="1.1"/>
<circle cx="132.1" cy="265.5" r="2.6" fill="#1f9d8a" stroke="#146a5c" stroke-width="1.1"/>
<circle cx="132.7" cy="265.6" r="2.6" fill="#1f9d8a" stroke="#146a5c" stroke-width="1.1"/>
<circle cx="132.7" cy="265.3" r="2.6" fill="#1f9d8a" stroke="#146a5c" stroke-width="1.1"/>
<circle cx="125.7" cy="264.4" r="2.6" fill="#e67e22" stroke="#9a5216" stroke-width="1.1"/>
<circle cx="130.2" cy="265.6" r="2.6" fill="#1f9d8a" stroke="#146a5c" stroke-width="1.1"/>
<circle cx="130.2" cy="264.4" r="2.6" fill="#1f9d8a" stroke="#146a5c" stroke-width="1.1"/>
<circle cx="130.2" cy="265.5" r="2.6" fill="#1f9d8a" stroke="#146a5c" stroke-width="1.1"/>
<circle cx="129.4" cy="264.7" r="2.6" fill="#1f9d8a" stroke="#146a5c" stroke-width="1.1"/>
<circle cx="125.9" cy="264.7" r="2.6" fill="#e67e22" stroke="#9a5216" stroke-width="1.1"/>
<circle cx="126.6" cy="264.4" r="2.6" fill="#e67e22" stroke="#9a5216" stroke-width="1.1"/>
<circle cx="125.8" cy="264.4" r="2.6" fill="#e67e22" stroke="#9a5216" stroke-width="1.1"/>
<circle cx="125.8" cy="264.7" r="2.6" fill="#e67e22" stroke="#9a5216" stroke-width="1.1"/>
<circle cx="126.9" cy="265.5" r="2.6" fill="#1f9d8a" stroke="#146a5c" stroke-width="1.1"/>
<circle cx="126.9" cy="265.3" r="2.6" fill="#1f9d8a" stroke="#146a5c" stroke-width="1.1"/>
<circle cx="126.9" cy="265.5" r="2.6" fill="#1f9d8a" stroke="#146a5c" stroke-width="1.1"/>
<rect x="498.0" y="66.0" width="224" height="48" fill="white" stroke="#222" stroke-width="1.1"/>
<circle cx="512.0" cy="82.0" r="3" fill="#1f9d8a" stroke="#146a5c" stroke-width="1.0"/>
<text x="524.0" y="86.0" font-size="11" font-family="Times New Roman, serif">On/Below y=x: 263</text>
<circle cx="512.0" cy="100.0" r="3" fill="#e67e22" stroke="#9a5216" stroke-width="1.0"/>
<text x="524.0" y="104.0" font-size="11" font-family="Times New Roman, serif">Above y=x: 25</text>
</svg>