<svg xmlns="http://www.w3.org/2000/svg" width="760" height="350">
<rect x="0" y="0" width="100%" height="100%" fill="white"/>
<text x="380.0" y="36" text-anchor="middle" font-size="20" font-family="Times New Roman, serif">A to B Scatter: Parent vs Child Performance</text>
<rect x="30.0" y="58.0" width="700.0" height="255.0" fill="white" stroke="#111" stroke-width="1.4"/>
<text x="38.0" y="76.0" font-size="14" font-family="Times New Roman, serif">REDIS / GET   (each point is A to B, dashed line is y = x)</text>
<line x1="82.0" y1="279.0" x2="716.0" y2="279.0" stroke="#111" stroke-width="1.2"/>
<line x1="82.0" y1="84.0" x2="82.0" y2="279.0" stroke="#111" stroke-width="1.2"/>
<line x1="82.0" y1="279.0" x2="716.0" y2="84.0" stroke="#555" stroke-width="1.3" stroke-dasharray="6,4"/>
<line x1="82.0" y1="279.0" x2="82.0" y2="282.0" stroke="#222" stroke-width="1"/>
<text x="82.0" y="297.0" text-anchor="middle" font-size="10" font-family="Times New Roman, serif">54.9k</text>
<line x1="79.0" y1="279.0" x2="82.0" y2="279.0" stroke="#222" stroke-width="1"/>
<text x="74.0" y="282.0" text-anchor="end" font-size="10" font-family="Times New Roman, serif">54.9k</text>
<line x1="208.8" y1="279.0" x2="208.8" y2="282.0" stroke="#222" stroke-width="1"/>
<text x="208.8" y="297.0" text-anchor="middle" font-size="10" font-family="Times New Roman, serif">233.6k</text>
<line x1="79.0" y1="240.0" x2="82.0" y2="240.0" stroke="#222" stroke-width="1"/>
<text x="74.0" y="243.0" text-anchor="end" font-size="10" font-family="Times New Roman, serif">233.6k</text>
<line x1="335.6" y1="279.0" x2="335.6" y2="282.0" stroke="#222" stroke-width="1"/>
<text x="335.6" y="297.0" text-anchor="middle" font-size="10" font-family="Times New Roman, serif">412.3k</text>
<line x1="79.0" y1="201.0" x2="82.0" y2="201.0" stroke="#222" stroke-width="1"/>
<text x="74.0" y="204.0" text-anchor="end" font-size="10" font-family="Times New Roman, serif">412.3k</text>
<line x1="462.4" y1="279.0" x2="462.4" y2="282.0" stroke="#222" stroke-width="1"/>
<text x="462.4" y="297.0" text-anchor="middle" font-size="10" font-family="Times New Roman, serif">591.0k</text>
<line x1="79.0" y1="162.0" x2="82.0" y2="162.0" stroke="#222" stroke-width="1"/>
<text x="74.0" y="165.0" text-anchor="end" font-size="10" font-family="Times New Roman, serif">591.0k</text>
<line x1="589.2" y1="279.0" x2="589.2" y2="282.0" stroke="#222" stroke-width="1"/>
<text x="589.2" y="297.0" text-anchor="middle" font-size="10" font-family="Times New Roman, serif">769.7k</text>
<line x1="79.0" y1="123.0" x2="82.0" y2="123.0" stroke="#222" stroke-width="1"/>
<text x="74.0" y="126.0" text-anchor="end" font-size="10" font-family="Times New Roman, serif">769.7k</text>
<line x1="716.0" y1="279.0" x2="716.0" y2="282.0" stroke="#222" stroke-width="1"/>
<text x="716.0" y="297.0" text-anchor="middle" font-size="10" font-family="Times New Roman, serif">948.3k</text>
<line x1="79.0" y1="84.0" x2="82.0" y2="84.0" stroke="#222" stroke-width="1"/>
<text x="74.0" y="87.0" text-anchor="end" font-size="10" font-family="Times New Roman, serif">948.3k</text>
<text x="380.0" y="307.0" text-anchor="middle" font-size="12" font-family="Times New Roman, serif">Parent node A performance</text>
<text x="44.0" y="185.5" text-anchor="middle" font-size="12" font-family="Times New Roman, serif" transform="rotate(-90 44.0 185.5)">Child node B performance</text>
<circle cx="672.3" cy="136.8" r="2.6" fill="#1f9d8a" stroke="#146a5c" stroke-width="1.1"/>
<circle cx="672.3" cy="153.2" r="2.6" fill="#1f9d8a" stroke="#146a5c" stroke-width="1.1"/>
<circle cx="672.3" cy="164.4" r="2.6" fill="#1f9d8a" stroke="#146a5c" stroke-width="1.1"/>
<circle cx="672.3" cy="204.4" r="2.6" fill="#1f9d8a" stroke="#146a5c" stroke-width="1.1"/>
<circle cx="672.3" cy="225.0" r="2.6" fill="#1f9d8a" stroke="#146a5c" stroke-width="1.1"/>
<circle cx="672.3" cy="235.5" r="2.6" fill="#1f9d8a" stroke="#146a5c" stroke-width="1.1"/>
<circle cx="544.2" cy="175.6" r="2.6" fill="#1f9d8a" stroke="#146a5c" stroke-width="1.1"/>
<circle cx="544.2" cy="185.2" r="2.6" fill="#1f9d8a" stroke="#146a5c" stroke-width="1.1"/>
<circle cx="544.2" cy="216.8" r="2.6" fill="#1f9d8a" stroke="#146a5c" stroke-width="1.1"/>
<circle cx="544.2" cy="232.5" r="2.6" fill="#1f9d8a" stroke="#146a5c" stroke-width="1.1"/>
<circle cx="544.2" cy="239.5" r="2.6" fill="#1f9d8a" stroke="#146a5c" stroke-width="1.1"/>
<circle cx="491.1" cy="175.6" r="2.6" fill="#1f9d8a" stroke="#146a5c" stroke-width="1.1"/>
<circle cx="491.1" cy="177.3" r="2.6" fill="#1f9d8a" stroke="#146a5c" stroke-width="1.1"/>
<circle cx="491.1" cy="210.1" r="2.6" fill="#1f9d8a" stroke="#146a5c" stroke-width="1.1"/>
<circle cx="491.1" cy="231.7" r="2.6" fill="#1f9d8a" stroke="#146a5c" stroke-width="1.1"/>
<circle cx="491.1" cy="237.7" r="2.6" fill="#1f9d8a" stroke="#146a5c" stroke-width="1.1"/>
<circle cx="454.7" cy="177.3" r="2.6" fill="#1f9d8a" stroke="#146a5c" stroke-width="1.1"/>
<circle cx="454.7" cy="185.2" r="2.6" fill="#1f9d8a" stroke="#146a5c" stroke-width="1.1"/>
<circle cx="454.7" cy="218.1" r="2.6" fill="#1f9d8a" stroke="#146a5c" stroke-width="1.1"/>
<circle cx="454.7" cy="234.7" r="2.6" fill="#1f9d8a" stroke="#146a5c" stroke-width="1.1"/>
<circle cx="454.7" cy="240.4" r="2.6" fill="#1f9d8a" stroke="#146a5c" stroke-width="1.1"/>
<circle cx="418.2" cy="192.9" r="2.6" fill="#1f9d8a" stroke="#146a5c" stroke-width="1.1"/>
<circle cx="418.2" cy="221.3" r="2.6" fill="#1f9d8a" stroke="#146a5c" stroke-width="1.1"/>
<circle cx="418.2" cy="238.0" r="2.6" fill="#1f9d8a" stroke="#146a5c" stroke-width="1.1"/>
<circle cx="418.2" cy="241.5" r="2.6" fill="#1f9d8a" stroke="#146a5c" stroke-width="1.1"/>
<circle cx="412.8" cy="192.9" r="2.6" fill="#1f9d8a" stroke="#146a5c" stroke-width="1.1"/>
<circle cx="412.8" cy="222.8" r="2.6" fill="#1f9d8a" stroke="#146a5c" stroke-width="1.1"/>
<circle cx="412.8" cy="238.4" r="2.6" fill="#1f9d8a" stroke="#146a5c" stroke-width="1.1"/>
<circle cx="412.8" cy="241.2" r="2.6" fill="#1f9d8a" stroke="#146a5c" stroke-width="1.1"/>
<circle cx="386.9" cy="192.9" r="2.6" fill="#1f9d8a" stroke="#146a5c" stroke-width="1.1"/>
<circle cx="386.9" cy="225.4" r="2.6" fill="#1f9d8a" stroke="#146a5c" stroke-width="1.1"/>
<circle cx="386.9" cy="240.3" r="2.6" fill="#1f9d8a" stroke="#146a5c" stroke-width="1.1"/>
<circle cx="386.9" cy="242.7" r="2.6" fill="#1f9d8a" stroke="#146a5c" stroke-width="1.1"/>
<circle cx="361.8" cy="227.5" r="2.6" fill="#1f9d8a" stroke="#146a5c" stroke-width="1.1"/>
<circle cx="361.8" cy="241.7" r="2.6" fill="#1f9d8a" stroke="#146a5c" stroke-width="1.1"/>
<circle cx="361.8" cy="245.1" r="2.6" fill="#1f9d8a" stroke="#146a5c" stroke-width="1.1"/>
<circle cx="324.5" cy="210.1" r="2.6" fill="#1f9d8a" stroke="#146a5c" stroke-width="1.1"/>
<circle cx="324.5" cy="216.8" r="2.6" fill="#1f9d8a" stroke="#146a5c" stroke-width="1.1"/>
<circle cx="324.5" cy="218.1" r="2.6" fill="#1f9d8a" stroke="#146a5c" stroke-width="1.1"/>
<circle cx="324.5" cy="248.3" r="2.6" fill="#1f9d8a" stroke="#146a5c" stroke-width="1.1"/>
<circle cx="324.5" cy="248.6" r="2.6" fill="#1f9d8a" stroke="#146a5c" stroke-width="1.1"/>
<circle cx="306.1" cy="221.3" r="2.6" fill="#1f9d8a" stroke="#146a5c" stroke-width="1.1"/>
<circle cx="306.1" cy="222.8" r="2.6" fill="#1f9d8a" stroke="#146a5c" stroke-width="1.1"/>
<circle cx="306.1" cy="245.3" r="2.6" fill="#1f9d8a" stroke="#146a5c" stroke-width="1.1"/>
<circle cx="306.1" cy="249.9" r="2.6" fill="#1f9d8a" stroke="#146a5c" stroke-width="1.1"/>
<circle cx="284.1" cy="221.3" r="2.6" fill="#1f9d8a" stroke="#146a5c" stroke-width="1.1"/>
<circle cx="284.1" cy="225.4" r="2.6" fill="#1f9d8a" stroke="#146a5c" stroke-width="1.1"/>
<circle cx="284.1" cy="247.1" r="2.6" fill="#1f9d8a" stroke="#146a5c" stroke-width="1.1"/>
<circle cx="284.1" cy="250.8" r="2.6" fill="#1f9d8a" stroke="#146a5c" stroke-width="1.1"/>
<circle cx="279.9" cy="222.8" r="2.6" fill="#1f9d8a" stroke="#146a5c" stroke-width="1.1"/>
<circle cx="279.9" cy="225.4" r="2.6" fill="#1f9d8a" stroke="#146a5c" stroke-width="1.1"/>
<circle cx="279.9" cy="248.0" r="2.6" fill="#1f9d8a" stroke="#146a5c" stroke-width="1.1"/>
<circle cx="279.9" cy="250.7" r="2.6" fill="#1f9d8a" stroke="#146a5c" stroke-width="1.1"/>
<circle cx="269.5" cy="227.5" r="2.6" fill="#1f9d8a" stroke="#146a5c" stroke-width="1.1"/>
<circle cx="269.5" cy="249.7" r="2.6" fill="#1f9d8a" stroke="#146a5c" stroke-width="1.1"/>
<circle cx="269.5" cy="251.6" r="2.6" fill="#1f9d8a" stroke="#146a5c" stroke-width="1.1"/>
<circle cx="264.6" cy="227.5" r="2.6" fill="#1f9d8a" stroke="#146a5c" stroke-width="1.1"/>
<circle cx="264.6" cy="251.4" r="2.6" fill="#1f9d8a" stroke="#146a5c" stroke-width="1.1"/>
<circle cx="264.6" cy="252.7" r="2.6" fill="#1f9d8a" stroke="#146a5c" stroke-width="1.1"/>
<circle cx="257.7" cy="231.7" r="2.6" fill="#1f9d8a" stroke="#146a5c" stroke-width="1.1"/>
<circle cx="257.7" cy="232.5" r="2.6" fill="#1f9d8a" stroke="#146a5c" stroke-width="1.1"/>
<circle cx="257.7" cy="234.7" r="2.6" fill="#1f9d8a" stroke="#146a5c" stroke-width="1.1"/>
<circle cx="257.7" cy="248.3" r="2.6" fill="#1f9d8a" stroke="#146a5c" stroke-width="1.1"/>
<circle cx="257.7" cy="255.8" r="2.6" fill="#1f9d8a" stroke="#146a5c" stroke-width="1.1"/>
<circle cx="256.4" cy="227.5" r="2.6" fill="#1f9d8a" stroke="#146a5c" stroke-width="1.1"/>
<circle cx="256.4" cy="251.2" r="2.6" fill="#1f9d8a" stroke="#146a5c" stroke-width="1.1"/>
<circle cx="256.4" cy="253.4" r="2.6" fill="#1f9d8a" stroke="#146a5c" stroke-width="1.1"/>
<circle cx="249.4" cy="253.0" r="2.6" fill="#1f9d8a" stroke="#146a5c" stroke-width="1.1"/>
<circle cx="249.4" cy="254.5" r="2.6" fill="#1f9d8a" stroke="#146a5c" stroke-width="1.1"/>
<circle cx="239.8" cy="237.5" r="2.6" fill="#1f9d8a" stroke="#146a5c" stroke-width="1.1"/>
<circle cx="239.8" cy="239.8" r="2.6" fill="#1f9d8a" stroke="#146a5c" stroke-width="1.1"/>
<circle cx="239.8" cy="248.5" r="2.6" fill="#1f9d8a" stroke="#146a5c" stroke-width="1.1"/>
<circle cx="239.8" cy="256.2" r="2.6" fill="#1f9d8a" stroke="#146a5c" stroke-width="1.1"/>
<circle cx="235.8" cy="238.0" r="2.6" fill="#1f9d8a" stroke="#146a5c" stroke-width="1.1"/>
<circle cx="235.8" cy="238.4" r="2.6" fill="#1f9d8a" stroke="#146a5c" stroke-width="1.1"/>
<circle cx="235.8" cy="245.3" r="2.6" fill="#1f9d8a" stroke="#146a5c" stroke-width="1.1"/>
<circle cx="235.8" cy="255.4" r="2.6" fill="#1f9d8a" stroke="#146a5c" stroke-width="1.1"/>
<circle cx="233.2" cy="230.5" r="2.6" fill="#e67e22" stroke="#9a5216" stroke-width="1.1"/>
<circle cx="233.2" cy="233.0" r="2.6" fill="#1f9d8a" stroke="#146a5c" stroke-width="1.1"/>
<circle cx="233.2" cy="238.0" r="2.6" fill="#1f9d8a" stroke="#146a5c" stroke-width="1.1"/>
<circle cx="233.2" cy="240.3" r="2.6" fill="#1f9d8a" stroke="#146a5c" stroke-width="1.1"/>
<circle cx="233.2" cy="247.1" r="2.6" fill="#1f9d8a" stroke="#146a5c" stroke-width="1.1"/>
<circle cx="233.2" cy="256.2" r="2.6" fill="#1f9d8a" stroke="#146a5c" stroke-width="1.1"/>
<circle cx="231.5" cy="238.4" r="2.6" fill="#1f9d8a" stroke="#146a5c" stroke-width="1.1"/>
<circle cx="231.5" cy="244.7" r="2.6" fill="#1f9d8a" stroke="#146a5c" stroke-width="1.1"/>
<circle cx="231.5" cy="247.2" r="2.6" fill="#1f9d8a" stroke="#146a5c" stroke-width="1.1"/>
<circle cx="231.5" cy="255.8" r="2.6" fill="#1f9d8a" stroke="#146a5c" stroke-width="1.1"/>
<circle cx="225.9" cy="238.4" r="2.6" fill="#1f9d8a" stroke="#146a5c" stroke-width="1.1"/>
<circle cx="225.9" cy="240.3" r="2.6" fill="#1f9d8a" stroke="#146a5c" stroke-width="1.1"/>
<circle cx="225.9" cy="248.0" r="2.6" fill="#1f9d8a" stroke="#146a5c" stroke-width="1.1"/>
<circle cx="225.9" cy="256.1" r="2.6" fill="#1f9d8a" stroke="#146a5c" stroke-width="1.1"/>
<circle cx="223.6" cy="237.7" r="2.6" fill="#1f9d8a" stroke="#146a5c" stroke-width="1.1"/>
<circle cx="223.6" cy="239.5" r="2.6" fill="#1f9d8a" stroke="#146a5c" stroke-width="1.1"/>
<circle cx="223.6" cy="240.4" r="2.6" fill="#1f9d8a" stroke="#146a5c" stroke-width="1.1"/>
<circle cx="223.6" cy="248.6" r="2.6" fill="#1f9d8a" stroke="#146a5c" stroke-width="1.1"/>
<circle cx="223.6" cy="255.8" r="2.6" fill="#1f9d8a" stroke="#146a5c" stroke-width="1.1"/>
<circle cx="216.8" cy="241.4" r="2.6" fill="#1f9d8a" stroke="#146a5c" stroke-width="1.1"/>
<circle cx="216.8" cy="252.3" r="2.6" fill="#1f9d8a" stroke="#146a5c" stroke-width="1.1"/>
<circle cx="216.8" cy="259.5" r="2.6" fill="#1f9d8a" stroke="#146a5c" stroke-width="1.1"/>
<circle cx="216.1" cy="241.2" r="2.6" fill="#1f9d8a" stroke="#146a5c" stroke-width="1.1"/>
<circle cx="216.1" cy="241.5" r="2.6" fill="#1f9d8a" stroke="#146a5c" stroke-width="1.1"/>
<circle cx="216.1" cy="249.9" r="2.6" fill="#1f9d8a" stroke="#146a5c" stroke-width="1.1"/>
<circle cx="216.1" cy="255.4" r="2.6" fill="#1f9d8a" stroke="#146a5c" stroke-width="1.1"/>
<circle cx="215.2" cy="237.5" r="2.6" fill="#e67e22" stroke="#9a5216" stroke-width="1.1"/>
<circle cx="215.2" cy="238.4" r="2.6" fill="#1f9d8a" stroke="#146a5c" stroke-width="1.1"/>
<circle cx="215.2" cy="241.7" r="2.6" fill="#1f9d8a" stroke="#146a5c" stroke-width="1.1"/>
<circle cx="215.2" cy="249.7" r="2.6" fill="#1f9d8a" stroke="#146a5c" stroke-width="1.1"/>
<circle cx="215.2" cy="256.8" r="2.6" fill="#1f9d8a" stroke="#146a5c" stroke-width="1.1"/>
<circle cx="214.1" cy="242.3" r="2.6" fill="#1f9d8a" stroke="#146a5c" stroke-width="1.1"/>
<circle cx="214.1" cy="250.7" r="2.6" fill="#1f9d8a" stroke="#146a5c" stroke-width="1.1"/>
<circle cx="214.1" cy="259.4" r="2.6" fill="#1f9d8a" stroke="#146a5c" stroke-width="1.1"/>
<circle cx="214.1" cy="241.7" r="2.6" fill="#1f9d8a" stroke="#146a5c" stroke-width="1.1"/>
<circle cx="214.1" cy="251.4" r="2.6" fill="#1f9d8a" stroke="#146a5c" stroke-width="1.1"/>
<circle cx="214.1" cy="257.0" r="2.6" fill="#1f9d8a" stroke="#146a5c" stroke-width="1.1"/>
<circle cx="210.4" cy="241.5" r="2.6" fill="#1f9d8a" stroke="#146a5c" stroke-width="1.1"/>
<circle cx="210.4" cy="242.7" r="2.6" fill="#1f9d8a" stroke="#146a5c" stroke-width="1.1"/>
<circle cx="210.4" cy="250.8" r="2.6" fill="#1f9d8a" stroke="#146a5c" stroke-width="1.1"/>
<circle cx="210.4" cy="256.2" r="2.6" fill="#1f9d8a" stroke="#146a5c" stroke-width="1.1"/>
<circle cx="209.6" cy="241.4" r="2.6" fill="#1f9d8a" stroke="#146a5c" stroke-width="1.1"/>
<circle cx="209.6" cy="250.0" r="2.6" fill="#1f9d8a" stroke="#146a5c" stroke-width="1.1"/>
<circle cx="209.6" cy="259.6" r="2.6" fill="#1f9d8a" stroke="#146a5c" stroke-width="1.1"/>
<circle cx="208.0" cy="239.8" r="2.6" fill="#e67e22" stroke="#9a5216" stroke-width="1.1"/>
<circle cx="208.0" cy="241.7" r="2.6" fill="#1f9d8a" stroke="#146a5c" stroke-width="1.1"/>
<circle cx="208.0" cy="244.7" r="2.6" fill="#1f9d8a" stroke="#146a5c" stroke-width="1.1"/>
<circle cx="208.0" cy="251.2" r="2.6" fill="#1f9d8a" stroke="#146a5c" stroke-width="1.1"/>
<circle cx="208.0" cy="259.9" r="2.6" fill="#1f9d8a" stroke="#146a5c" stroke-width="1.1"/>
<circle cx="207.3" cy="241.2" r="2.6" fill="#1f9d8a" stroke="#146a5c" stroke-width="1.1"/>
<circle cx="207.3" cy="242.7" r="2.6" fill="#1f9d8a" stroke="#146a5c" stroke-width="1.1"/>
<circle cx="207.3" cy="250.7" r="2.6" fill="#1f9d8a" stroke="#146a5c" stroke-width="1.1"/>
<circle cx="207.3" cy="256.1" r="2.6" fill="#1f9d8a" stroke="#146a5c" stroke-width="1.1"/>
<circle cx="204.9" cy="245.1" r="2.6" fill="#1f9d8a" stroke="#146a5c" stroke-width="1.1"/>
<circle cx="204.9" cy="252.7" r="2.6" fill="#1f9d8a" stroke="#146a5c" stroke-width="1.1"/>
<circle cx="204.9" cy="257.0" r="2.6" fill="#1f9d8a" stroke="#146a5c" stroke-width="1.1"/>
<circle cx="204.4" cy="252.1" r="2.6" fill="#1f9d8a" stroke="#146a5c" stroke-width="1.1"/>
<circle cx="204.4" cy="259.5" r="2.6" fill="#1f9d8a" stroke="#146a5c" stroke-width="1.1"/>
<circle cx="203.9" cy="245.1" r="2.6" fill="#1f9d8a" stroke="#146a5c" stroke-width="1.1"/>
<circle cx="203.9" cy="251.6" r="2.6" fill="#1f9d8a" stroke="#146a5c" stroke-width="1.1"/>
<circle cx="203.9" cy="256.8" r="2.6" fill="#1f9d8a" stroke="#146a5c" stroke-width="1.1"/>
<circle cx="203.4" cy="241.4" r="2.6" fill="#e67e22" stroke="#9a5216" stroke-width="1.1"/>
<circle cx="203.4" cy="242.3" r="2.6" fill="#1f9d8a" stroke="#146a5c" stroke-width="1.1"/>
<circle cx="203.4" cy="253.0" r="2.6" fill="#1f9d8a" stroke="#146a5c" stroke-width="1.1"/>
<circle cx="203.4" cy="260.1" r="2.6" fill="#1f9d8a" stroke="#146a5c" stroke-width="1.1"/>
<circle cx="201.2" cy="254.1" r="2.6" fill="#1f9d8a" stroke="#146a5c" stroke-width="1.1"/>
<circle cx="201.2" cy="259.1" r="2.6" fill="#1f9d8a" stroke="#146a5c" stroke-width="1.1"/>
<circle cx="200.0" cy="245.1" r="2.6" fill="#1f9d8a" stroke="#146a5c" stroke-width="1.1"/>
<circle cx="200.0" cy="253.4" r="2.6" fill="#1f9d8a" stroke="#146a5c" stroke-width="1.1"/>
<circle cx="200.0" cy="259.9" r="2.6" fill="#1f9d8a" stroke="#146a5c" stroke-width="1.1"/>
<circle cx="193.6" cy="242.3" r="2.6" fill="#e67e22" stroke="#9a5216" stroke-width="1.1"/>
<circle cx="193.6" cy="249.9" r="2.6" fill="#1f9d8a" stroke="#146a5c" stroke-width="1.1"/>
<circle cx="193.6" cy="258.5" r="2.6" fill="#1f9d8a" stroke="#146a5c" stroke-width="1.1"/>
<circle cx="192.1" cy="254.5" r="2.6" fill="#1f9d8a" stroke="#146a5c" stroke-width="1.1"/>
<circle cx="192.1" cy="260.1" r="2.6" fill="#1f9d8a" stroke="#146a5c" stroke-width="1.1"/>
<circle cx="191.6" cy="249.7" r="2.6" fill="#1f9d8a" stroke="#146a5c" stroke-width="1.1"/>
<circle cx="191.6" cy="251.4" r="2.6" fill="#1f9d8a" stroke="#146a5c" stroke-width="1.1"/>
<circle cx="191.6" cy="261.4" r="2.6" fill="#1f9d8a" stroke="#146a5c" stroke-width="1.1"/>
<circle cx="185.7" cy="247.2" r="2.6" fill="#1f9d8a" stroke="#146a5c" stroke-width="1.1"/>
<circle cx="185.7" cy="248.5" r="2.6" fill="#1f9d8a" stroke="#146a5c" stroke-width="1.1"/>
<circle cx="185.7" cy="249.7" r="2.6" fill="#1f9d8a" stroke="#146a5c" stroke-width="1.1"/>
<circle cx="185.7" cy="251.2" r="2.6" fill="#1f9d8a" stroke="#146a5c" stroke-width="1.1"/>
<circle cx="185.7" cy="261.7" r="2.6" fill="#1f9d8a" stroke="#146a5c" stroke-width="1.1"/>
<circle cx="185.4" cy="249.9" r="2.6" fill="#1f9d8a" stroke="#146a5c" stroke-width="1.1"/>
<circle cx="185.4" cy="250.7" r="2.6" fill="#1f9d8a" stroke="#146a5c" stroke-width="1.1"/>
<circle cx="185.4" cy="262.5" r="2.6" fill="#1f9d8a" stroke="#146a5c" stroke-width="1.1"/>
<circle cx="182.9" cy="251.2" r="2.6" fill="#1f9d8a" stroke="#146a5c" stroke-width="1.1"/>
<circle cx="182.9" cy="251.4" r="2.6" fill="#1f9d8a" stroke="#146a5c" stroke-width="1.1"/>
<circle cx="182.9" cy="261.6" r="2.6" fill="#1f9d8a" stroke="#146a5c" stroke-width="1.1"/>
<circle cx="181.9" cy="245.3" r="2.6" fill="#e67e22" stroke="#9a5216" stroke-width="1.1"/>
<circle cx="181.9" cy="247.1" r="2.6" fill="#e67e22" stroke="#9a5216" stroke-width="1.1"/>
<circle cx="181.9" cy="248.0" r="2.6" fill="#e67e22" stroke="#9a5216" stroke-width="1.1"/>
<circle cx="181.9" cy="261.9" r="2.6" fill="#1f9d8a" stroke="#146a5c" stroke-width="1.1"/>
<circle cx="181.1" cy="250.0" r="2.6" fill="#1f9d8a" stroke="#146a5c" stroke-width="1.1"/>
<circle cx="181.1" cy="252.3" r="2.6" fill="#1f9d8a" stroke="#146a5c" stroke-width="1.1"/>
<circle cx="181.1" cy="262.0" r="2.6" fill="#1f9d8a" stroke="#146a5c" stroke-width="1.1"/>
<circle cx="181.0" cy="249.9" r="2.6" fill="#1f9d8a" stroke="#146a5c" stroke-width="1.1"/>
<circle cx="181.0" cy="250.7" r="2.6" fill="#1f9d8a" stroke="#146a5c" stroke-width="1.1"/>
<circle cx="181.0" cy="250.8" r="2.6" fill="#1f9d8a" stroke="#146a5c" stroke-width="1.1"/>
<circle cx="181.0" cy="261.9" r="2.6" fill="#1f9d8a" stroke="#146a5c" stroke-width="1.1"/>
<circle cx="177.4" cy="250.7" r="2.6" fill="#1f9d8a" stroke="#146a5c" stroke-width="1.1"/>
<circle cx="177.4" cy="252.3" r="2.6" fill="#1f9d8a" stroke="#146a5c" stroke-width="1.1"/>
<circle cx="177.4" cy="253.0" r="2.6" fill="#1f9d8a" stroke="#146a5c" stroke-width="1.1"/>
<circle cx="177.4" cy="262.6" r="2.6" fill="#1f9d8a" stroke="#146a5c" stroke-width="1.1"/>
<circle cx="176.7" cy="254.1" r="2.6" fill="#1f9d8a" stroke="#146a5c" stroke-width="1.1"/>
<circle cx="176.7" cy="263.6" r="2.6" fill="#1f9d8a" stroke="#146a5c" stroke-width="1.1"/>
<circle cx="176.7" cy="251.6" r="2.6" fill="#1f9d8a" stroke="#146a5c" stroke-width="1.1"/>
<circle cx="176.7" cy="252.7" r="2.6" fill="#1f9d8a" stroke="#146a5c" stroke-width="1.1"/>
<circle cx="176.7" cy="261.4" r="2.6" fill="#1f9d8a" stroke="#146a5c" stroke-width="1.1"/>
<circle cx="176.4" cy="252.1" r="2.6" fill="#1f9d8a" stroke="#146a5c" stroke-width="1.1"/>
<circle cx="176.4" cy="263.6" r="2.6" fill="#1f9d8a" stroke="#146a5c" stroke-width="1.1"/>
<circle cx="174.0" cy="254.1" r="2.6" fill="#1f9d8a" stroke="#146a5c" stroke-width="1.1"/>
<circle cx="174.0" cy="262.6" r="2.6" fill="#1f9d8a" stroke="#146a5c" stroke-width="1.1"/>
<circle cx="173.9" cy="252.7" r="2.6" fill="#1f9d8a" stroke="#146a5c" stroke-width="1.1"/>
<circle cx="173.9" cy="253.4" r="2.6" fill="#1f9d8a" stroke="#146a5c" stroke-width="1.1"/>
<circle cx="173.9" cy="261.6" r="2.6" fill="#1f9d8a" stroke="#146a5c" stroke-width="1.1"/>
<circle cx="173.7" cy="251.6" r="2.6" fill="#1f9d8a" stroke="#146a5c" stroke-width="1.1"/>
<circle cx="173.7" cy="253.4" r="2.6" fill="#1f9d8a" stroke="#146a5c" stroke-width="1.1"/>
<circle cx="173.7" cy="261.7" r="2.6" fill="#1f9d8a" stroke="#146a5c" stroke-width="1.1"/>
<circle cx="172.5" cy="249.9" r="2.6" fill="#e67e22" stroke="#9a5216" stroke-width="1.1"/>
<circle cx="172.5" cy="250.0" r="2.6" fill="#e67e22" stroke="#9a5216" stroke-width="1.1"/>
<circle cx="172.5" cy="253.0" r="2.6" fill="#1f9d8a" stroke="#146a5c" stroke-width="1.1"/>
<circle cx="172.5" cy="265.6" r="2.6" fill="#1f9d8a" stroke="#146a5c" stroke-width="1.1"/>
<circle cx="171.7" cy="253.0" r="2.6" fill="#1f9d8a" stroke="#146a5c" stroke-width="1.1"/>
<circle cx="171.7" cy="262.0" r="2.6" fill="#1f9d8a" stroke="#146a5c" stroke-width="1.1"/>
<circle cx="171.0" cy="254.5" r="2.6" fill="#1f9d8a" stroke="#146a5c" stroke-width="1.1"/>
<circle cx="171.0" cy="262.6" r="2.6" fill="#1f9d8a" stroke="#146a5c" stroke-width="1.1"/>
<circle cx="169.6" cy="264.7" r="2.6" fill="#1f9d8a" stroke="#146a5c" stroke-width="1.1"/>
<circle cx="168.8" cy="252.1" r="2.6" fill="#e67e22" stroke="#9a5216" stroke-width="1.1"/>
<circle cx="168.8" cy="263.0" r="2.6" fill="#1f9d8a" stroke="#146a5c" stroke-width="1.1"/>
<circle cx="167.6" cy="254.5" r="2.6" fill="#1f9d8a" stroke="#146a5c" stroke-width="1.1"/>
<circle cx="167.6" cy="262.0" r="2.6" fill="#1f9d8a" stroke="#146a5c" stroke-width="1.1"/>
<circle cx="166.5" cy="252.1" r="2.6" fill="#e67e22" stroke="#9a5216" stroke-width="1.1"/>
<circle cx="166.5" cy="254.1" r="2.6" fill="#1f9d8a" stroke="#146a5c" stroke-width="1.1"/>
<circle cx="166.5" cy="264.4" r="2.6" fill="#1f9d8a" stroke="#146a5c" stroke-width="1.1"/>
<circle cx="165.2" cy="254.5" r="2.6" fill="#1f9d8a" stroke="#146a5c" stroke-width="1.1"/>
<circle cx="165.2" cy="265.6" r="2.6" fill="#1f9d8a" stroke="#146a5c" stroke-width="1.1"/>
<circle cx="162.8" cy="263.7" r="2.6" fill="#1f9d8a" stroke="#146a5c" stroke-width="1.1"/>
<circle cx="161.5" cy="264.4" r="2.6" fill="#1f9d8a" stroke="#146a5c" stroke-width="1.1"/>
<circle cx="158.7" cy="256.8" r="2.6" fill="#1f9d8a" stroke="#146a5c" stroke-width="1.1"/>
<circle cx="158.7" cy="257.0" r="2.6" fill="#1f9d8a" stroke="#146a5c" stroke-width="1.1"/>
<circle cx="158.7" cy="261.4" r="2.6" fill="#1f9d8a" stroke="#146a5c" stroke-width="1.1"/>
<circle cx="157.3" cy="258.5" r="2.6" fill="#1f9d8a" stroke="#146a5c" stroke-width="1.1"/>
<circle cx="157.3" cy="259.4" r="2.6" fill="#1f9d8a" stroke="#146a5c" stroke-width="1.1"/>
<circle cx="157.3" cy="262.5" r="2.6" fill="#1f9d8a" stroke="#146a5c" stroke-width="1.1"/>
<circle cx="157.3" cy="255.4" r="2.6" fill="#e67e22" stroke="#9a5216" stroke-width="1.1"/>
<circle cx="157.3" cy="256.1" r="2.6" fill="#1f9d8a" stroke="#146a5c" stroke-width="1.1"/>
<circle cx="157.3" cy="256.2" r="2.6" fill="#1f9d8a" stroke="#146a5c" stroke-width="1.1"/>
<circle cx="157.3" cy="261.9" r="2.6" fill="#1f9d8a" stroke="#146a5c" stroke-width="1.1"/>
<circle cx="156.3" cy="257.0" r="2.6" fill="#1f9d8a" stroke="#146a5c" stroke-width="1.1"/>
<circle cx="156.3" cy="259.9" r="2.6" fill="#1f9d8a" stroke="#146a5c" stroke-width="1.1"/>
<circle cx="156.3" cy="261.6" r="2.6" fill="#1f9d8a" stroke="#146a5c" stroke-width="1.1"/>
<circle cx="156.0" cy="259.5" r="2.6" fill="#1f9d8a" stroke="#146a5c" stroke-width="1.1"/>
<circle cx="156.0" cy="259.6" r="2.6" fill="#1f9d8a" stroke="#146a5c" stroke-width="1.1"/>
<circle cx="156.0" cy="262.0" r="2.6" fill="#1f9d8a" stroke="#146a5c" stroke-width="1.1"/>
<circle cx="156.0" cy="255.8" r="2.6" fill="#e67e22" stroke="#9a5216" stroke-width="1.1"/>
<circle cx="156.0" cy="256.2" r="2.6" fill="#e67e22" stroke="#9a5216" stroke-width="1.1"/>
<circle cx="156.0" cy="256.8" r="2.6" fill="#1f9d8a" stroke="#146a5c" stroke-width="1.1"/>
<circle cx="156.0" cy="259.9" r="2.6" fill="#1f9d8a" stroke="#146a5c" stroke-width="1.1"/>
<circle cx="156.0" cy="261.7" r="2.6" fill="#1f9d8a" stroke="#146a5c" stroke-width="1.1"/>
<circle cx="154.0" cy="259.4" r="2.6" fill="#1f9d8a" stroke="#146a5c" stroke-width="1.1"/>
<circle cx="154.0" cy="259.5" r="2.6" fill="#1f9d8a" stroke="#146a5c" stroke-width="1.1"/>
<circle cx="154.0" cy="260.1" r="2.6" fill="#1f9d8a" stroke="#146a5c" stroke-width="1.1"/>
<circle cx="154.0" cy="262.6" r="2.6" fill="#1f9d8a" stroke="#146a5c" stroke-width="1.1"/>
<circle cx="153.6" cy="260.1" r="2.6" fill="#1f9d8a" stroke="#146a5c" stroke-width="1.1"/>
<circle cx="153.6" cy="262.0" r="2.6" fill="#1f9d8a" stroke="#146a5c" stroke-width="1.1"/>
<circle cx="148.7" cy="259.1" r="2.6" fill="#1f9d8a" stroke="#146a5c" stroke-width="1.1"/>
<circle cx="148.7" cy="263.6" r="2.6" fill="#1f9d8a" stroke="#146a5c" stroke-width="1.1"/>
<circle cx="146.6" cy="263.7" r="2.6" fill="#1f9d8a" stroke="#146a5c" stroke-width="1.1"/>
<circle cx="145.7" cy="259.1" r="2.6" fill="#e67e22" stroke="#9a5216" stroke-width="1.1"/>
<circle cx="145.7" cy="262.6" r="2.6" fill="#1f9d8a" stroke="#146a5c" stroke-width="1.1"/>
<circle cx="145.4" cy="259.5" r="2.6" fill="#1f9d8a" stroke="#146a5c" stroke-width="1.1"/>
<circle cx="145.4" cy="263.0" r="2.6" fill="#1f9d8a" stroke="#146a5c" stroke-width="1.1"/>
<circle cx="145.4" cy="264.7" r="2.6" fill="#1f9d8a" stroke="#146a5c" stroke-width="1.1"/>
<circle cx="145.2" cy="259.5" r="2.6" fill="#e67e22" stroke="#9a5216" stroke-width="1.1"/>
<circle cx="145.2" cy="263.6" r="2.6" fill="#1f9d8a" stroke="#146a5c" stroke-width="1.1"/>
<circle cx="144.0" cy="258.5" r="2.6" fill="#e67e22" stroke="#9a5216" stroke-width="1.1"/>
<circle cx="144.0" cy="259.6" r="2.6" fill="#e67e22" stroke="#9a5216" stroke-width="1.1"/>
<circle cx="144.0" cy="260.1" r="2.6" fill="#1f9d8a" stroke="#146a5c" stroke-width="1.1"/>
<circle cx="144.0" cy="265.6" r="2.6" fill="#1f9d8a" stroke="#146a5c" stroke-width="1.1"/>
<circle cx="143.3" cy="259.1" r="2.6" fill="#e67e22" stroke="#9a5216" stroke-width="1.1"/>
<circle cx="143.3" cy="259.5" r="2.6" fill="#e67e22" stroke="#9a5216" stroke-width="1.1"/>
<circle cx="143.3" cy="264.4" r="2.6" fill="#1f9d8a" stroke="#146a5c" stroke-width="1.1"/>
<circle cx="139.1" cy="262.0" r="2.6" fill="#1f9d8a" stroke="#146a5c" stroke-width="1.1"/>
<circle cx="139.1" cy="262.6" r="2.6" fill="#1f9d8a" stroke="#146a5c" stroke-width="1.1"/>
<circle cx="138.5" cy="262.0" r="2.6" fill="#1f9d8a" stroke="#146a5c" stroke-width="1.1"/>
<circle cx="138.5" cy="265.6" r="2.6" fill="#1f9d8a" stroke="#146a5c" stroke-width="1.1"/>
<circle cx="138.1" cy="262.0" r="2.6" fill="#1f9d8a" stroke="#146a5c" stroke-width="1.1"/>
<circle cx="138.1" cy="262.5" r="2.6" fill="#1f9d8a" stroke="#146a5c" stroke-width="1.1"/>
<circle cx="138.1" cy="262.6" r="2.6" fill="#1f9d8a" stroke="#146a5c" stroke-width="1.1"/>
<circle cx="138.1" cy="265.6" r="2.6" fill="#1f9d8a" stroke="#146a5c" stroke-width="1.1"/>
<circle cx="137.6" cy="261.4" r="2.6" fill="#e67e22" stroke="#9a5216" stroke-width="1.1"/>
<circle cx="137.6" cy="261.6" r="2.6" fill="#e67e22" stroke="#9a5216" stroke-width="1.1"/>
<circle cx="137.6" cy="261.7" r="2.6" fill="#e67e22" stroke="#9a5216" stroke-width="1.1"/>
<circle cx="137.4" cy="263.0" r="2.6" fill="#1f9d8a" stroke="#146a5c" stroke-width="1.1"/>
<circle cx="137.4" cy="263.6" r="2.6" fill="#1f9d8a" stroke="#146a5c" stroke-width="1.1"/>
<circle cx="137.3" cy="264.4" r="2.6" fill="#1f9d8a" stroke="#146a5c" stroke-width="1.1"/>
<circle cx="135.6" cy="262.6" r="2.6" fill="#1f9d8a" stroke="#146a5c" stroke-width="1.1"/>
<circle cx="135.6" cy="263.6" r="2.6" fill="#1f9d8a" stroke="#146a5c" stroke-width="1.1"/>
<circle cx="135.3" cy="263.7" r="2.6" fill="#1f9d8a" stroke="#146a5c" stroke-width="1.1"/>
<circle cx="135.2" cy="262.6" r="2.6" fill="#e67e22" stroke="#9a5216" stroke-width="1.1"/>
<circle cx="135.2" cy="263.0" r="2.6" fill="#1f9d8a" stroke="#146a5c" stroke-width="1.1"/>
<circle cx="135.2" cy="264.4" r="2.6" fill="#1f9d8a" stroke="#146a5c" stroke-width="1.1"/>
<circle cx="134.1" cy="264.7" r="2.6" fill="#1f9d8a" stroke="#146a5c" stroke-width="1.1"/>
<circle cx="132.2" cy="264.7" r="2.6" fill="#1f9d8a" stroke="#146a5c" stroke-width="1.1"/>
<circle cx="132.1" cy="263.7" r="2.6" fill="#1f9d8a" stroke="#146a5c" stroke-width="1.1"/>
<circle cx="129.4" cy="263.7" r="2.6" fill="#e67e22" stroke="#9a5216" stroke-width="1.1"/>
<circle cx="129.4" cy="264.7" r="2.6" fill="#1f9d8a" stroke="#146a5c" stroke-width="1.1"/>
<circle cx="125.7" cy="263.6" r="2.6" fill="#e67e22" stroke="#9a5216" stroke-width="1.1"/>
<circle cx="125.7" cy="263.6" r="2.6" fill="#e67e22" stroke="#9a5216" stroke-width="1.1"/>
<circle cx="125.7" cy="264.4" r="2.6" fill="#e67e22" stroke="#9a5216" stroke-width="1.1"/>
<rect x="498.0" y="66.0" width="224" height="48" fill="white" stroke="#222" stroke-width="1.1"/>
<circle cx="512.0" cy="82.0" r="3" fill="#1f9d8a" stroke="#146a5c" stroke-width="1.0"/>
<text x="524.0" y="86.0" font-size="11" font-family="Times New Roman, serif">On/Below y=x: 259</text>
<circle cx="512.0" cy="100.0" r="3" fill="#e67e22" stroke="#9a5216" stroke-width="1.0"/>
<text x="524.0" y="104.0" font-size="11" font-family="Times New Roman, serif">Above y=x: 29</text>
</svg>