<svg xmlns="http://www.w3.org/2000/svg" width="760" height="350">
<rect x="0" y="0" width="100%" height="100%" fill="white"/>
<rect x="30.0" y="58.0" width="700.0" height="255.0" fill="white" stroke="#111" stroke-width="1.4"/>
<line x1="82.0" y1="279.0" x2="716.0" y2="279.0" stroke="#111" stroke-width="1.2"/>
<line x1="82.0" y1="84.0" x2="82.0" y2="279.0" stroke="#111" stroke-width="1.2"/>
<line x1="82.0" y1="279.0" x2="716.0" y2="84.0" stroke="#555" stroke-width="1.3" stroke-dasharray="6,4"/>
<line x1="82.0" y1="279.0" x2="82.0" y2="282.0" stroke="#222" stroke-width="1"/>
<text x="82.0" y="297.0" text-anchor="middle" font-size="10" font-family="Times New Roman, serif">12.1k</text>
<line x1="79.0" y1="279.0" x2="82.0" y2="279.0" stroke="#222" stroke-width="1"/>
<text x="74.0" y="282.0" text-anchor="end" font-size="10" font-family="Times New Roman, serif">12.1k</text>
<line x1="208.8" y1="279.0" x2="208.8" y2="282.0" stroke="#222" stroke-width="1"/>
<text x="208.8" y="297.0" text-anchor="middle" font-size="10" font-family="Times New Roman, serif">23.4k</text>
<line x1="79.0" y1="240.0" x2="82.0" y2="240.0" stroke="#222" stroke-width="1"/>
<text x="74.0" y="243.0" text-anchor="end" font-size="10" font-family="Times New Roman, serif">23.4k</text>
<line x1="335.6" y1="279.0" x2="335.6" y2="282.0" stroke="#222" stroke-width="1"/>
<text x="335.6" y="297.0" text-anchor="middle" font-size="10" font-family="Times New Roman, serif">34.7k</text>
<line x1="79.0" y1="201.0" x2="82.0" y2="201.0" stroke="#222" stroke-width="1"/>
<text x="74.0" y="204.0" text-anchor="end" font-size="10" font-family="Times New Roman, serif">34.7k</text>
<line x1="462.4" y1="279.0" x2="462.4" y2="282.0" stroke="#222" stroke-width="1"/>
<text x="462.4" y="297.0" text-anchor="middle" font-size="10" font-family="Times New Roman, serif">46.0k</text>
<line x1="79.0" y1="162.0" x2="82.0" y2="162.0" stroke="#222" stroke-width="1"/>
<text x="74.0" y="165.0" text-anchor="end" font-size="10" font-family="Times New Roman, serif">46.0k</text>
<line x1="589.2" y1="279.0" x2="589.2" y2="282.0" stroke="#222" stroke-width="1"/>
<text x="589.2" y="297.0" text-anchor="middle" font-size="10" font-family="Times New Roman, serif">57.3k</text>
<line x1="79.0" y1="123.0" x2="82.0" y2="123.0" stroke="#222" stroke-width="1"/>
<text x="74.0" y="126.0" text-anchor="end" font-size="10" font-family="Times New Roman, serif">57.3k</text>
<line x1="716.0" y1="279.0" x2="716.0" y2="282.0" stroke="#222" stroke-width="1"/>
<text x="716.0" y="297.0" text-anchor="middle" font-size="10" font-family="Times New Roman, serif">68.6k</text>
<line x1="79.0" y1="84.0" x2="82.0" y2="84.0" stroke="#222" stroke-width="1"/>
<text x="74.0" y="87.0" text-anchor="end" font-size="10" font-family="Times New Roman, serif">68.6k</text>
<text x="380.0" y="307.0" text-anchor="middle" font-size="12" font-family="Times New Roman, serif">Parent node A performance</text>
<text x="44.0" y="185.5" text-anchor="middle" font-size="12" font-family="Times New Roman, serif" transform="rotate(-90 44.0 185.5)">Child node B performance</text>
<circle cx="672.3" cy="104.2" r="2.6" fill="#1f9d8a" stroke="#146a5c" stroke-width="1.1"/>
<circle cx="672.3" cy="147.0" r="2.6" fill="#1f9d8a" stroke="#146a5c" stroke-width="1.1"/>
<circle cx="672.3" cy="167.4" r="2.6" fill="#1f9d8a" stroke="#146a5c" stroke-width="1.1"/>
<circle cx="672.3" cy="179.7" r="2.6" fill="#1f9d8a" stroke="#146a5c" stroke-width="1.1"/>
<circle cx="672.3" cy="198.3" r="2.6" fill="#1f9d8a" stroke="#146a5c" stroke-width="1.1"/>
<circle cx="672.3" cy="222.7" r="2.6" fill="#1f9d8a" stroke="#146a5c" stroke-width="1.1"/>
<circle cx="650.2" cy="149.7" r="2.6" fill="#1f9d8a" stroke="#146a5c" stroke-width="1.1"/>
<circle cx="650.2" cy="163.2" r="2.6" fill="#1f9d8a" stroke="#146a5c" stroke-width="1.1"/>
<circle cx="650.2" cy="181.3" r="2.6" fill="#1f9d8a" stroke="#146a5c" stroke-width="1.1"/>
<circle cx="650.2" cy="200.3" r="2.6" fill="#1f9d8a" stroke="#146a5c" stroke-width="1.1"/>
<circle cx="650.2" cy="223.2" r="2.6" fill="#1f9d8a" stroke="#146a5c" stroke-width="1.1"/>
<circle cx="511.2" cy="149.7" r="2.6" fill="#1f9d8a" stroke="#146a5c" stroke-width="1.1"/>
<circle cx="511.2" cy="185.5" r="2.6" fill="#1f9d8a" stroke="#146a5c" stroke-width="1.1"/>
<circle cx="511.2" cy="194.3" r="2.6" fill="#1f9d8a" stroke="#146a5c" stroke-width="1.1"/>
<circle cx="511.2" cy="210.1" r="2.6" fill="#1f9d8a" stroke="#146a5c" stroke-width="1.1"/>
<circle cx="511.2" cy="231.2" r="2.6" fill="#1f9d8a" stroke="#146a5c" stroke-width="1.1"/>
<circle cx="502.4" cy="187.8" r="2.6" fill="#1f9d8a" stroke="#146a5c" stroke-width="1.1"/>
<circle cx="502.4" cy="194.7" r="2.6" fill="#1f9d8a" stroke="#146a5c" stroke-width="1.1"/>
<circle cx="502.4" cy="211.6" r="2.6" fill="#1f9d8a" stroke="#146a5c" stroke-width="1.1"/>
<circle cx="502.4" cy="232.0" r="2.6" fill="#1f9d8a" stroke="#146a5c" stroke-width="1.1"/>
<circle cx="458.6" cy="187.8" r="2.6" fill="#1f9d8a" stroke="#146a5c" stroke-width="1.1"/>
<circle cx="458.6" cy="202.1" r="2.6" fill="#1f9d8a" stroke="#146a5c" stroke-width="1.1"/>
<circle cx="458.6" cy="215.0" r="2.6" fill="#1f9d8a" stroke="#146a5c" stroke-width="1.1"/>
<circle cx="458.6" cy="231.0" r="2.6" fill="#1f9d8a" stroke="#146a5c" stroke-width="1.1"/>
<circle cx="444.7" cy="163.2" r="2.6" fill="#e67e22" stroke="#9a5216" stroke-width="1.1"/>
<circle cx="444.7" cy="185.5" r="2.6" fill="#1f9d8a" stroke="#146a5c" stroke-width="1.1"/>
<circle cx="444.7" cy="197.3" r="2.6" fill="#1f9d8a" stroke="#146a5c" stroke-width="1.1"/>
<circle cx="444.7" cy="215.3" r="2.6" fill="#1f9d8a" stroke="#146a5c" stroke-width="1.1"/>
<circle cx="444.7" cy="234.2" r="2.6" fill="#1f9d8a" stroke="#146a5c" stroke-width="1.1"/>
<circle cx="404.7" cy="181.3" r="2.6" fill="#1f9d8a" stroke="#146a5c" stroke-width="1.1"/>
<circle cx="404.7" cy="194.3" r="2.6" fill="#1f9d8a" stroke="#146a5c" stroke-width="1.1"/>
<circle cx="404.7" cy="197.3" r="2.6" fill="#1f9d8a" stroke="#146a5c" stroke-width="1.1"/>
<circle cx="404.7" cy="220.5" r="2.6" fill="#1f9d8a" stroke="#146a5c" stroke-width="1.1"/>
<circle cx="404.7" cy="243.1" r="2.6" fill="#1f9d8a" stroke="#146a5c" stroke-width="1.1"/>
<circle cx="399.6" cy="194.7" r="2.6" fill="#1f9d8a" stroke="#146a5c" stroke-width="1.1"/>
<circle cx="399.6" cy="202.1" r="2.6" fill="#1f9d8a" stroke="#146a5c" stroke-width="1.1"/>
<circle cx="399.6" cy="221.1" r="2.6" fill="#1f9d8a" stroke="#146a5c" stroke-width="1.1"/>
<circle cx="399.6" cy="244.4" r="2.6" fill="#1f9d8a" stroke="#146a5c" stroke-width="1.1"/>
<circle cx="389.7" cy="214.0" r="2.6" fill="#1f9d8a" stroke="#146a5c" stroke-width="1.1"/>
<circle cx="389.7" cy="224.7" r="2.6" fill="#1f9d8a" stroke="#146a5c" stroke-width="1.1"/>
<circle cx="389.7" cy="240.0" r="2.6" fill="#1f9d8a" stroke="#146a5c" stroke-width="1.1"/>
<circle cx="388.3" cy="213.7" r="2.6" fill="#1f9d8a" stroke="#146a5c" stroke-width="1.1"/>
<circle cx="388.3" cy="225.1" r="2.6" fill="#1f9d8a" stroke="#146a5c" stroke-width="1.1"/>
<circle cx="388.3" cy="239.7" r="2.6" fill="#1f9d8a" stroke="#146a5c" stroke-width="1.1"/>
<circle cx="386.0" cy="186.3" r="2.6" fill="#1f9d8a" stroke="#146a5c" stroke-width="1.1"/>
<circle cx="386.0" cy="186.5" r="2.6" fill="#1f9d8a" stroke="#146a5c" stroke-width="1.1"/>
<circle cx="386.0" cy="187.8" r="2.6" fill="#1f9d8a" stroke="#146a5c" stroke-width="1.1"/>
<circle cx="386.0" cy="212.6" r="2.6" fill="#1f9d8a" stroke="#146a5c" stroke-width="1.1"/>
<circle cx="386.0" cy="226.3" r="2.6" fill="#1f9d8a" stroke="#146a5c" stroke-width="1.1"/>
<circle cx="386.0" cy="239.9" r="2.6" fill="#1f9d8a" stroke="#146a5c" stroke-width="1.1"/>
<circle cx="383.3" cy="184.8" r="2.6" fill="#e67e22" stroke="#9a5216" stroke-width="1.1"/>
<circle cx="383.3" cy="211.7" r="2.6" fill="#1f9d8a" stroke="#146a5c" stroke-width="1.1"/>
<circle cx="383.3" cy="226.7" r="2.6" fill="#1f9d8a" stroke="#146a5c" stroke-width="1.1"/>
<circle cx="383.3" cy="240.6" r="2.6" fill="#1f9d8a" stroke="#146a5c" stroke-width="1.1"/>
<circle cx="382.8" cy="184.3" r="2.6" fill="#e67e22" stroke="#9a5216" stroke-width="1.1"/>
<circle cx="382.8" cy="211.8" r="2.6" fill="#1f9d8a" stroke="#146a5c" stroke-width="1.1"/>
<circle cx="382.8" cy="226.6" r="2.6" fill="#1f9d8a" stroke="#146a5c" stroke-width="1.1"/>
<circle cx="382.8" cy="240.5" r="2.6" fill="#1f9d8a" stroke="#146a5c" stroke-width="1.1"/>
<circle cx="378.4" cy="184.3" r="2.6" fill="#e67e22" stroke="#9a5216" stroke-width="1.1"/>
<circle cx="378.4" cy="184.8" r="2.6" fill="#e67e22" stroke="#9a5216" stroke-width="1.1"/>
<circle cx="378.4" cy="213.0" r="2.6" fill="#1f9d8a" stroke="#146a5c" stroke-width="1.1"/>
<circle cx="378.4" cy="227.3" r="2.6" fill="#1f9d8a" stroke="#146a5c" stroke-width="1.1"/>
<circle cx="378.4" cy="240.2" r="2.6" fill="#1f9d8a" stroke="#146a5c" stroke-width="1.1"/>
<circle cx="357.4" cy="194.7" r="2.6" fill="#1f9d8a" stroke="#146a5c" stroke-width="1.1"/>
<circle cx="357.4" cy="212.6" r="2.6" fill="#1f9d8a" stroke="#146a5c" stroke-width="1.1"/>
<circle cx="357.4" cy="231.8" r="2.6" fill="#1f9d8a" stroke="#146a5c" stroke-width="1.1"/>
<circle cx="357.4" cy="247.4" r="2.6" fill="#1f9d8a" stroke="#146a5c" stroke-width="1.1"/>
<circle cx="355.9" cy="213.0" r="2.6" fill="#1f9d8a" stroke="#146a5c" stroke-width="1.1"/>
<circle cx="355.9" cy="231.8" r="2.6" fill="#1f9d8a" stroke="#146a5c" stroke-width="1.1"/>
<circle cx="355.9" cy="247.3" r="2.6" fill="#1f9d8a" stroke="#146a5c" stroke-width="1.1"/>
<circle cx="347.7" cy="202.1" r="2.6" fill="#1f9d8a" stroke="#146a5c" stroke-width="1.1"/>
<circle cx="347.7" cy="212.6" r="2.6" fill="#1f9d8a" stroke="#146a5c" stroke-width="1.1"/>
<circle cx="347.7" cy="233.5" r="2.6" fill="#1f9d8a" stroke="#146a5c" stroke-width="1.1"/>
<circle cx="347.7" cy="247.3" r="2.6" fill="#1f9d8a" stroke="#146a5c" stroke-width="1.1"/>
<circle cx="344.5" cy="200.3" r="2.6" fill="#1f9d8a" stroke="#146a5c" stroke-width="1.1"/>
<circle cx="344.5" cy="210.1" r="2.6" fill="#1f9d8a" stroke="#146a5c" stroke-width="1.1"/>
<circle cx="344.5" cy="215.3" r="2.6" fill="#1f9d8a" stroke="#146a5c" stroke-width="1.1"/>
<circle cx="344.5" cy="220.5" r="2.6" fill="#1f9d8a" stroke="#146a5c" stroke-width="1.1"/>
<circle cx="344.5" cy="247.4" r="2.6" fill="#1f9d8a" stroke="#146a5c" stroke-width="1.1"/>
<circle cx="338.0" cy="211.6" r="2.6" fill="#1f9d8a" stroke="#146a5c" stroke-width="1.1"/>
<circle cx="338.0" cy="215.0" r="2.6" fill="#1f9d8a" stroke="#146a5c" stroke-width="1.1"/>
<circle cx="338.0" cy="221.1" r="2.6" fill="#1f9d8a" stroke="#146a5c" stroke-width="1.1"/>
<circle cx="338.0" cy="246.9" r="2.6" fill="#1f9d8a" stroke="#146a5c" stroke-width="1.1"/>
<circle cx="331.9" cy="213.0" r="2.6" fill="#1f9d8a" stroke="#146a5c" stroke-width="1.1"/>
<circle cx="331.9" cy="233.8" r="2.6" fill="#1f9d8a" stroke="#146a5c" stroke-width="1.1"/>
<circle cx="331.9" cy="249.0" r="2.6" fill="#1f9d8a" stroke="#146a5c" stroke-width="1.1"/>
<circle cx="305.9" cy="211.6" r="2.6" fill="#1f9d8a" stroke="#146a5c" stroke-width="1.1"/>
<circle cx="305.9" cy="226.3" r="2.6" fill="#1f9d8a" stroke="#146a5c" stroke-width="1.1"/>
<circle cx="305.9" cy="231.8" r="2.6" fill="#1f9d8a" stroke="#146a5c" stroke-width="1.1"/>
<circle cx="305.9" cy="251.8" r="2.6" fill="#1f9d8a" stroke="#146a5c" stroke-width="1.1"/>
<circle cx="301.1" cy="227.3" r="2.6" fill="#1f9d8a" stroke="#146a5c" stroke-width="1.1"/>
<circle cx="301.1" cy="231.8" r="2.6" fill="#1f9d8a" stroke="#146a5c" stroke-width="1.1"/>
<circle cx="301.1" cy="251.9" r="2.6" fill="#1f9d8a" stroke="#146a5c" stroke-width="1.1"/>
<circle cx="300.8" cy="213.7" r="2.6" fill="#1f9d8a" stroke="#146a5c" stroke-width="1.1"/>
<circle cx="300.8" cy="239.0" r="2.6" fill="#1f9d8a" stroke="#146a5c" stroke-width="1.1"/>
<circle cx="300.8" cy="253.0" r="2.6" fill="#1f9d8a" stroke="#146a5c" stroke-width="1.1"/>
<circle cx="300.5" cy="214.0" r="2.6" fill="#1f9d8a" stroke="#146a5c" stroke-width="1.1"/>
<circle cx="300.5" cy="239.1" r="2.6" fill="#1f9d8a" stroke="#146a5c" stroke-width="1.1"/>
<circle cx="300.5" cy="253.0" r="2.6" fill="#1f9d8a" stroke="#146a5c" stroke-width="1.1"/>
<circle cx="297.8" cy="211.7" r="2.6" fill="#e67e22" stroke="#9a5216" stroke-width="1.1"/>
<circle cx="297.8" cy="211.8" r="2.6" fill="#e67e22" stroke="#9a5216" stroke-width="1.1"/>
<circle cx="297.8" cy="213.0" r="2.6" fill="#1f9d8a" stroke="#146a5c" stroke-width="1.1"/>
<circle cx="297.8" cy="239.7" r="2.6" fill="#1f9d8a" stroke="#146a5c" stroke-width="1.1"/>
<circle cx="297.8" cy="252.4" r="2.6" fill="#1f9d8a" stroke="#146a5c" stroke-width="1.1"/>
<circle cx="296.6" cy="213.7" r="2.6" fill="#1f9d8a" stroke="#146a5c" stroke-width="1.1"/>
<circle cx="296.6" cy="214.0" r="2.6" fill="#1f9d8a" stroke="#146a5c" stroke-width="1.1"/>
<circle cx="296.6" cy="240.0" r="2.6" fill="#1f9d8a" stroke="#146a5c" stroke-width="1.1"/>
<circle cx="296.6" cy="252.2" r="2.6" fill="#1f9d8a" stroke="#146a5c" stroke-width="1.1"/>
<circle cx="294.2" cy="240.2" r="2.6" fill="#1f9d8a" stroke="#146a5c" stroke-width="1.1"/>
<circle cx="294.2" cy="253.0" r="2.6" fill="#1f9d8a" stroke="#146a5c" stroke-width="1.1"/>
<circle cx="293.4" cy="240.4" r="2.6" fill="#1f9d8a" stroke="#146a5c" stroke-width="1.1"/>
<circle cx="293.4" cy="252.9" r="2.6" fill="#1f9d8a" stroke="#146a5c" stroke-width="1.1"/>
<circle cx="290.1" cy="227.3" r="2.6" fill="#1f9d8a" stroke="#146a5c" stroke-width="1.1"/>
<circle cx="290.1" cy="233.8" r="2.6" fill="#1f9d8a" stroke="#146a5c" stroke-width="1.1"/>
<circle cx="290.1" cy="252.5" r="2.6" fill="#1f9d8a" stroke="#146a5c" stroke-width="1.1"/>
<circle cx="289.2" cy="215.0" r="2.6" fill="#e67e22" stroke="#9a5216" stroke-width="1.1"/>
<circle cx="289.2" cy="226.3" r="2.6" fill="#1f9d8a" stroke="#146a5c" stroke-width="1.1"/>
<circle cx="289.2" cy="233.5" r="2.6" fill="#1f9d8a" stroke="#146a5c" stroke-width="1.1"/>
<circle cx="289.2" cy="253.5" r="2.6" fill="#1f9d8a" stroke="#146a5c" stroke-width="1.1"/>
<circle cx="272.1" cy="221.1" r="2.6" fill="#1f9d8a" stroke="#146a5c" stroke-width="1.1"/>
<circle cx="272.1" cy="231.8" r="2.6" fill="#1f9d8a" stroke="#146a5c" stroke-width="1.1"/>
<circle cx="272.1" cy="233.5" r="2.6" fill="#1f9d8a" stroke="#146a5c" stroke-width="1.1"/>
<circle cx="272.1" cy="258.7" r="2.6" fill="#1f9d8a" stroke="#146a5c" stroke-width="1.1"/>
<circle cx="270.4" cy="231.8" r="2.6" fill="#1f9d8a" stroke="#146a5c" stroke-width="1.1"/>
<circle cx="270.4" cy="233.8" r="2.6" fill="#1f9d8a" stroke="#146a5c" stroke-width="1.1"/>
<circle cx="270.4" cy="258.9" r="2.6" fill="#1f9d8a" stroke="#146a5c" stroke-width="1.1"/>
<circle cx="265.0" cy="223.2" r="2.6" fill="#1f9d8a" stroke="#146a5c" stroke-width="1.1"/>
<circle cx="265.0" cy="231.2" r="2.6" fill="#1f9d8a" stroke="#146a5c" stroke-width="1.1"/>
<circle cx="265.0" cy="234.2" r="2.6" fill="#1f9d8a" stroke="#146a5c" stroke-width="1.1"/>
<circle cx="265.0" cy="243.1" r="2.6" fill="#1f9d8a" stroke="#146a5c" stroke-width="1.1"/>
<circle cx="265.0" cy="247.4" r="2.6" fill="#1f9d8a" stroke="#146a5c" stroke-width="1.1"/>
<circle cx="263.6" cy="231.0" r="2.6" fill="#1f9d8a" stroke="#146a5c" stroke-width="1.1"/>
<circle cx="263.6" cy="232.0" r="2.6" fill="#1f9d8a" stroke="#146a5c" stroke-width="1.1"/>
<circle cx="263.6" cy="244.4" r="2.6" fill="#1f9d8a" stroke="#146a5c" stroke-width="1.1"/>
<circle cx="263.6" cy="246.9" r="2.6" fill="#1f9d8a" stroke="#146a5c" stroke-width="1.1"/>
<circle cx="258.4" cy="240.4" r="2.6" fill="#1f9d8a" stroke="#146a5c" stroke-width="1.1"/>
<circle cx="258.4" cy="256.3" r="2.6" fill="#1f9d8a" stroke="#146a5c" stroke-width="1.1"/>
<circle cx="257.2" cy="240.2" r="2.6" fill="#1f9d8a" stroke="#146a5c" stroke-width="1.1"/>
<circle cx="257.2" cy="256.1" r="2.6" fill="#1f9d8a" stroke="#146a5c" stroke-width="1.1"/>
<circle cx="253.2" cy="226.6" r="2.6" fill="#1f9d8a" stroke="#146a5c" stroke-width="1.1"/>
<circle cx="253.2" cy="226.7" r="2.6" fill="#1f9d8a" stroke="#146a5c" stroke-width="1.1"/>
<circle cx="253.2" cy="227.3" r="2.6" fill="#1f9d8a" stroke="#146a5c" stroke-width="1.1"/>
<circle cx="253.2" cy="239.7" r="2.6" fill="#1f9d8a" stroke="#146a5c" stroke-width="1.1"/>
<circle cx="253.2" cy="256.4" r="2.6" fill="#1f9d8a" stroke="#146a5c" stroke-width="1.1"/>
<circle cx="252.4" cy="224.7" r="2.6" fill="#e67e22" stroke="#9a5216" stroke-width="1.1"/>
<circle cx="252.4" cy="239.1" r="2.6" fill="#1f9d8a" stroke="#146a5c" stroke-width="1.1"/>
<circle cx="252.4" cy="256.7" r="2.6" fill="#1f9d8a" stroke="#146a5c" stroke-width="1.1"/>
<circle cx="252.2" cy="225.1" r="2.6" fill="#e67e22" stroke="#9a5216" stroke-width="1.1"/>
<circle cx="252.2" cy="239.0" r="2.6" fill="#1f9d8a" stroke="#146a5c" stroke-width="1.1"/>
<circle cx="252.2" cy="256.8" r="2.6" fill="#1f9d8a" stroke="#146a5c" stroke-width="1.1"/>
<circle cx="250.2" cy="224.7" r="2.6" fill="#e67e22" stroke="#9a5216" stroke-width="1.1"/>
<circle cx="250.2" cy="225.1" r="2.6" fill="#e67e22" stroke="#9a5216" stroke-width="1.1"/>
<circle cx="250.2" cy="240.0" r="2.6" fill="#1f9d8a" stroke="#146a5c" stroke-width="1.1"/>
<circle cx="250.2" cy="256.7" r="2.6" fill="#1f9d8a" stroke="#146a5c" stroke-width="1.1"/>
<circle cx="237.9" cy="240.2" r="2.6" fill="#1f9d8a" stroke="#146a5c" stroke-width="1.1"/>
<circle cx="237.9" cy="249.0" r="2.6" fill="#1f9d8a" stroke="#146a5c" stroke-width="1.1"/>
<circle cx="237.9" cy="252.5" r="2.6" fill="#1f9d8a" stroke="#146a5c" stroke-width="1.1"/>
<circle cx="237.4" cy="232.0" r="2.6" fill="#1f9d8a" stroke="#146a5c" stroke-width="1.1"/>
<circle cx="237.4" cy="239.9" r="2.6" fill="#1f9d8a" stroke="#146a5c" stroke-width="1.1"/>
<circle cx="237.4" cy="247.4" r="2.6" fill="#1f9d8a" stroke="#146a5c" stroke-width="1.1"/>
<circle cx="237.4" cy="251.8" r="2.6" fill="#1f9d8a" stroke="#146a5c" stroke-width="1.1"/>
<circle cx="235.4" cy="240.0" r="2.6" fill="#1f9d8a" stroke="#146a5c" stroke-width="1.1"/>
<circle cx="235.4" cy="261.4" r="2.6" fill="#1f9d8a" stroke="#146a5c" stroke-width="1.1"/>
<circle cx="235.3" cy="231.8" r="2.6" fill="#e67e22" stroke="#9a5216" stroke-width="1.1"/>
<circle cx="235.3" cy="239.7" r="2.6" fill="#1f9d8a" stroke="#146a5c" stroke-width="1.1"/>
<circle cx="235.3" cy="261.4" r="2.6" fill="#1f9d8a" stroke="#146a5c" stroke-width="1.1"/>
<circle cx="234.8" cy="240.2" r="2.6" fill="#1f9d8a" stroke="#146a5c" stroke-width="1.1"/>
<circle cx="234.8" cy="247.3" r="2.6" fill="#1f9d8a" stroke="#146a5c" stroke-width="1.1"/>
<circle cx="234.8" cy="251.9" r="2.6" fill="#1f9d8a" stroke="#146a5c" stroke-width="1.1"/>
<circle cx="229.8" cy="233.8" r="2.6" fill="#1f9d8a" stroke="#146a5c" stroke-width="1.1"/>
<circle cx="229.8" cy="239.7" r="2.6" fill="#1f9d8a" stroke="#146a5c" stroke-width="1.1"/>
<circle cx="229.8" cy="261.1" r="2.6" fill="#1f9d8a" stroke="#146a5c" stroke-width="1.1"/>
<circle cx="229.0" cy="240.0" r="2.6" fill="#1f9d8a" stroke="#146a5c" stroke-width="1.1"/>
<circle cx="229.0" cy="261.6" r="2.6" fill="#1f9d8a" stroke="#146a5c" stroke-width="1.1"/>
<circle cx="227.8" cy="231.0" r="2.6" fill="#e67e22" stroke="#9a5216" stroke-width="1.1"/>
<circle cx="227.8" cy="239.9" r="2.6" fill="#1f9d8a" stroke="#146a5c" stroke-width="1.1"/>
<circle cx="227.8" cy="247.3" r="2.6" fill="#1f9d8a" stroke="#146a5c" stroke-width="1.1"/>
<circle cx="227.8" cy="253.5" r="2.6" fill="#1f9d8a" stroke="#146a5c" stroke-width="1.1"/>
<circle cx="212.0" cy="240.2" r="2.6" fill="#1f9d8a" stroke="#146a5c" stroke-width="1.1"/>
<circle cx="212.0" cy="265.1" r="2.6" fill="#1f9d8a" stroke="#146a5c" stroke-width="1.1"/>
<circle cx="211.6" cy="240.4" r="2.6" fill="#1f9d8a" stroke="#146a5c" stroke-width="1.1"/>
<circle cx="211.6" cy="265.2" r="2.6" fill="#1f9d8a" stroke="#146a5c" stroke-width="1.1"/>
<circle cx="209.7" cy="239.0" r="2.6" fill="#e67e22" stroke="#9a5216" stroke-width="1.1"/>
<circle cx="209.7" cy="239.1" r="2.6" fill="#e67e22" stroke="#9a5216" stroke-width="1.1"/>
<circle cx="209.7" cy="240.0" r="2.6" fill="#1f9d8a" stroke="#146a5c" stroke-width="1.1"/>
<circle cx="209.7" cy="265.2" r="2.6" fill="#1f9d8a" stroke="#146a5c" stroke-width="1.1"/>
<circle cx="209.7" cy="253.0" r="2.6" fill="#1f9d8a" stroke="#146a5c" stroke-width="1.1"/>
<circle cx="209.7" cy="256.1" r="2.6" fill="#1f9d8a" stroke="#146a5c" stroke-width="1.1"/>
<circle cx="209.3" cy="240.2" r="2.6" fill="#1f9d8a" stroke="#146a5c" stroke-width="1.1"/>
<circle cx="209.3" cy="240.5" r="2.6" fill="#1f9d8a" stroke="#146a5c" stroke-width="1.1"/>
<circle cx="209.3" cy="240.6" r="2.6" fill="#1f9d8a" stroke="#146a5c" stroke-width="1.1"/>
<circle cx="209.3" cy="252.4" r="2.6" fill="#1f9d8a" stroke="#146a5c" stroke-width="1.1"/>
<circle cx="209.3" cy="256.4" r="2.6" fill="#1f9d8a" stroke="#146a5c" stroke-width="1.1"/>
<circle cx="208.9" cy="252.9" r="2.6" fill="#1f9d8a" stroke="#146a5c" stroke-width="1.1"/>
<circle cx="208.9" cy="256.3" r="2.6" fill="#1f9d8a" stroke="#146a5c" stroke-width="1.1"/>
<circle cx="208.7" cy="240.2" r="2.6" fill="#1f9d8a" stroke="#146a5c" stroke-width="1.1"/>
<circle cx="208.7" cy="240.4" r="2.6" fill="#1f9d8a" stroke="#146a5c" stroke-width="1.1"/>
<circle cx="208.7" cy="265.4" r="2.6" fill="#1f9d8a" stroke="#146a5c" stroke-width="1.1"/>
<circle cx="208.3" cy="239.7" r="2.6" fill="#e67e22" stroke="#9a5216" stroke-width="1.1"/>
<circle cx="208.3" cy="240.0" r="2.6" fill="#e67e22" stroke="#9a5216" stroke-width="1.1"/>
<circle cx="208.3" cy="252.2" r="2.6" fill="#1f9d8a" stroke="#146a5c" stroke-width="1.1"/>
<circle cx="208.3" cy="256.7" r="2.6" fill="#1f9d8a" stroke="#146a5c" stroke-width="1.1"/>
<circle cx="208.1" cy="265.5" r="2.6" fill="#1f9d8a" stroke="#146a5c" stroke-width="1.1"/>
<circle cx="207.4" cy="265.6" r="2.6" fill="#1f9d8a" stroke="#146a5c" stroke-width="1.1"/>
<circle cx="207.0" cy="240.0" r="2.6" fill="#e67e22" stroke="#9a5216" stroke-width="1.1"/>
<circle cx="207.0" cy="253.0" r="2.6" fill="#1f9d8a" stroke="#146a5c" stroke-width="1.1"/>
<circle cx="207.0" cy="256.7" r="2.6" fill="#1f9d8a" stroke="#146a5c" stroke-width="1.1"/>
<circle cx="206.8" cy="239.7" r="2.6" fill="#e67e22" stroke="#9a5216" stroke-width="1.1"/>
<circle cx="206.8" cy="253.0" r="2.6" fill="#1f9d8a" stroke="#146a5c" stroke-width="1.1"/>
<circle cx="206.8" cy="256.8" r="2.6" fill="#1f9d8a" stroke="#146a5c" stroke-width="1.1"/>
<circle cx="198.6" cy="244.4" r="2.6" fill="#1f9d8a" stroke="#146a5c" stroke-width="1.1"/>
<circle cx="198.6" cy="247.3" r="2.6" fill="#1f9d8a" stroke="#146a5c" stroke-width="1.1"/>
<circle cx="198.6" cy="247.4" r="2.6" fill="#1f9d8a" stroke="#146a5c" stroke-width="1.1"/>
<circle cx="198.6" cy="258.7" r="2.6" fill="#1f9d8a" stroke="#146a5c" stroke-width="1.1"/>
<circle cx="194.6" cy="247.3" r="2.6" fill="#1f9d8a" stroke="#146a5c" stroke-width="1.1"/>
<circle cx="194.6" cy="249.0" r="2.6" fill="#1f9d8a" stroke="#146a5c" stroke-width="1.1"/>
<circle cx="194.6" cy="258.9" r="2.6" fill="#1f9d8a" stroke="#146a5c" stroke-width="1.1"/>
<circle cx="186.4" cy="251.9" r="2.6" fill="#1f9d8a" stroke="#146a5c" stroke-width="1.1"/>
<circle cx="186.4" cy="252.5" r="2.6" fill="#1f9d8a" stroke="#146a5c" stroke-width="1.1"/>
<circle cx="186.4" cy="258.9" r="2.6" fill="#1f9d8a" stroke="#146a5c" stroke-width="1.1"/>
<circle cx="185.0" cy="252.2" r="2.6" fill="#1f9d8a" stroke="#146a5c" stroke-width="1.1"/>
<circle cx="185.0" cy="261.4" r="2.6" fill="#1f9d8a" stroke="#146a5c" stroke-width="1.1"/>
<circle cx="184.9" cy="249.0" r="2.6" fill="#1f9d8a" stroke="#146a5c" stroke-width="1.1"/>
<circle cx="184.9" cy="252.4" r="2.6" fill="#1f9d8a" stroke="#146a5c" stroke-width="1.1"/>
<circle cx="184.9" cy="261.1" r="2.6" fill="#1f9d8a" stroke="#146a5c" stroke-width="1.1"/>
<circle cx="184.8" cy="246.9" r="2.6" fill="#e67e22" stroke="#9a5216" stroke-width="1.1"/>
<circle cx="184.8" cy="251.8" r="2.6" fill="#1f9d8a" stroke="#146a5c" stroke-width="1.1"/>
<circle cx="184.8" cy="253.5" r="2.6" fill="#1f9d8a" stroke="#146a5c" stroke-width="1.1"/>
<circle cx="184.8" cy="258.7" r="2.6" fill="#1f9d8a" stroke="#146a5c" stroke-width="1.1"/>
<circle cx="184.8" cy="247.3" r="2.6" fill="#e67e22" stroke="#9a5216" stroke-width="1.1"/>
<circle cx="184.8" cy="252.4" r="2.6" fill="#1f9d8a" stroke="#146a5c" stroke-width="1.1"/>
<circle cx="184.8" cy="261.4" r="2.6" fill="#1f9d8a" stroke="#146a5c" stroke-width="1.1"/>
<circle cx="179.7" cy="252.2" r="2.6" fill="#1f9d8a" stroke="#146a5c" stroke-width="1.1"/>
<circle cx="179.7" cy="261.6" r="2.6" fill="#1f9d8a" stroke="#146a5c" stroke-width="1.1"/>
<circle cx="170.3" cy="251.9" r="2.6" fill="#1f9d8a" stroke="#146a5c" stroke-width="1.1"/>
<circle cx="170.3" cy="256.4" r="2.6" fill="#1f9d8a" stroke="#146a5c" stroke-width="1.1"/>
<circle cx="170.3" cy="261.4" r="2.6" fill="#1f9d8a" stroke="#146a5c" stroke-width="1.1"/>
<circle cx="170.0" cy="256.7" r="2.6" fill="#1f9d8a" stroke="#146a5c" stroke-width="1.1"/>
<circle cx="170.0" cy="261.4" r="2.6" fill="#1f9d8a" stroke="#146a5c" stroke-width="1.1"/>
<circle cx="169.0" cy="252.9" r="2.6" fill="#1f9d8a" stroke="#146a5c" stroke-width="1.1"/>
<circle cx="169.0" cy="253.0" r="2.6" fill="#1f9d8a" stroke="#146a5c" stroke-width="1.1"/>
<circle cx="169.0" cy="265.4" r="2.6" fill="#1f9d8a" stroke="#146a5c" stroke-width="1.1"/>
<circle cx="168.3" cy="252.2" r="2.6" fill="#e67e22" stroke="#9a5216" stroke-width="1.1"/>
<circle cx="168.3" cy="253.0" r="2.6" fill="#1f9d8a" stroke="#146a5c" stroke-width="1.1"/>
<circle cx="168.3" cy="253.0" r="2.6" fill="#1f9d8a" stroke="#146a5c" stroke-width="1.1"/>
<circle cx="168.3" cy="265.2" r="2.6" fill="#1f9d8a" stroke="#146a5c" stroke-width="1.1"/>
<circle cx="168.1" cy="256.7" r="2.6" fill="#1f9d8a" stroke="#146a5c" stroke-width="1.1"/>
<circle cx="168.1" cy="261.6" r="2.6" fill="#1f9d8a" stroke="#146a5c" stroke-width="1.1"/>
<circle cx="166.8" cy="265.6" r="2.6" fill="#1f9d8a" stroke="#146a5c" stroke-width="1.1"/>
<circle cx="166.5" cy="252.9" r="2.6" fill="#e67e22" stroke="#9a5216" stroke-width="1.1"/>
<circle cx="166.5" cy="265.2" r="2.6" fill="#1f9d8a" stroke="#146a5c" stroke-width="1.1"/>
<circle cx="166.5" cy="265.5" r="2.6" fill="#1f9d8a" stroke="#146a5c" stroke-width="1.1"/>
<circle cx="166.5" cy="253.0" r="2.6" fill="#e67e22" stroke="#9a5216" stroke-width="1.1"/>
<circle cx="166.5" cy="265.1" r="2.6" fill="#1f9d8a" stroke="#146a5c" stroke-width="1.1"/>
<circle cx="165.0" cy="252.5" r="2.6" fill="#e67e22" stroke="#9a5216" stroke-width="1.1"/>
<circle cx="165.0" cy="256.4" r="2.6" fill="#1f9d8a" stroke="#146a5c" stroke-width="1.1"/>
<circle cx="165.0" cy="261.1" r="2.6" fill="#1f9d8a" stroke="#146a5c" stroke-width="1.1"/>
<circle cx="156.3" cy="265.5" r="2.6" fill="#1f9d8a" stroke="#146a5c" stroke-width="1.1"/>
<circle cx="155.8" cy="265.6" r="2.6" fill="#1f9d8a" stroke="#146a5c" stroke-width="1.1"/>
<circle cx="155.6" cy="256.7" r="2.6" fill="#1f9d8a" stroke="#146a5c" stroke-width="1.1"/>
<circle cx="155.6" cy="256.7" r="2.6" fill="#1f9d8a" stroke="#146a5c" stroke-width="1.1"/>
<circle cx="155.6" cy="256.8" r="2.6" fill="#1f9d8a" stroke="#146a5c" stroke-width="1.1"/>
<circle cx="155.6" cy="265.2" r="2.6" fill="#1f9d8a" stroke="#146a5c" stroke-width="1.1"/>
<circle cx="154.5" cy="256.3" r="2.6" fill="#e67e22" stroke="#9a5216" stroke-width="1.1"/>
<circle cx="154.5" cy="265.2" r="2.6" fill="#1f9d8a" stroke="#146a5c" stroke-width="1.1"/>
<circle cx="154.5" cy="256.1" r="2.6" fill="#e67e22" stroke="#9a5216" stroke-width="1.1"/>
<circle cx="154.5" cy="256.3" r="2.6" fill="#e67e22" stroke="#9a5216" stroke-width="1.1"/>
<circle cx="154.5" cy="265.4" r="2.6" fill="#1f9d8a" stroke="#146a5c" stroke-width="1.1"/>
<circle cx="154.0" cy="256.1" r="2.6" fill="#e67e22" stroke="#9a5216" stroke-width="1.1"/>
<circle cx="154.0" cy="265.1" r="2.6" fill="#1f9d8a" stroke="#146a5c" stroke-width="1.1"/>
<circle cx="147.9" cy="258.9" r="2.6" fill="#1f9d8a" stroke="#146a5c" stroke-width="1.1"/>
<circle cx="147.9" cy="261.1" r="2.6" fill="#1f9d8a" stroke="#146a5c" stroke-width="1.1"/>
<circle cx="147.9" cy="261.4" r="2.6" fill="#1f9d8a" stroke="#146a5c" stroke-width="1.1"/>
<circle cx="147.2" cy="261.4" r="2.6" fill="#1f9d8a" stroke="#146a5c" stroke-width="1.1"/>
<circle cx="147.2" cy="261.6" r="2.6" fill="#1f9d8a" stroke="#146a5c" stroke-width="1.1"/>
<circle cx="140.2" cy="261.6" r="2.6" fill="#1f9d8a" stroke="#146a5c" stroke-width="1.1"/>
<circle cx="140.2" cy="265.2" r="2.6" fill="#1f9d8a" stroke="#146a5c" stroke-width="1.1"/>
<circle cx="139.4" cy="265.4" r="2.6" fill="#1f9d8a" stroke="#146a5c" stroke-width="1.1"/>
<circle cx="139.3" cy="261.4" r="2.6" fill="#e67e22" stroke="#9a5216" stroke-width="1.1"/>
<circle cx="139.3" cy="265.2" r="2.6" fill="#1f9d8a" stroke="#146a5c" stroke-width="1.1"/>
<circle cx="138.5" cy="265.4" r="2.6" fill="#1f9d8a" stroke="#146a5c" stroke-width="1.1"/>
<circle cx="127.3" cy="265.5" r="2.6" fill="#1f9d8a" stroke="#146a5c" stroke-width="1.1"/>
<circle cx="127.0" cy="265.6" r="2.6" fill="#1f9d8a" stroke="#146a5c" stroke-width="1.1"/>
<circle cx="126.9" cy="265.1" r="2.6" fill="#e67e22" stroke="#9a5216" stroke-width="1.1"/>
<circle cx="126.9" cy="265.2" r="2.6" fill="#e67e22" stroke="#9a5216" stroke-width="1.1"/>
<circle cx="126.9" cy="265.4" r="2.6" fill="#1f9d8a" stroke="#146a5c" stroke-width="1.1"/>
<circle cx="126.4" cy="265.5" r="2.6" fill="#1f9d8a" stroke="#146a5c" stroke-width="1.1"/>
<circle cx="126.4" cy="265.6" r="2.6" fill="#1f9d8a" stroke="#146a5c" stroke-width="1.1"/>
<rect x="498.0" y="66.0" width="224" height="48" fill="white" stroke="#222" stroke-width="1.1"/>
<circle cx="512.0" cy="82.0" r="3" fill="#1f9d8a" stroke="#146a5c" stroke-width="1.0"/>
<text x="524.0" y="86.0" font-size="11" font-family="Times New Roman, serif">On/Below y=x: 255</text>
<circle cx="512.0" cy="100.0" r="3" fill="#e67e22" stroke="#9a5216" stroke-width="1.0"/>
<text x="524.0" y="104.0" font-size="11" font-family="Times New Roman, serif">Above y=x: 33</text>
</svg>