<?xml version="1.0" encoding="UTF-8" standalone="no"?>
<!DOCTYPE svg PUBLIC "-//W3C//DTD SVG 1.1//EN"
 "http://www.w3.org/Graphics/SVG/1.1/DTD/svg11.dtd">
<!-- Generated by graphviz version 2.43.0 (0)
 -->
<!-- Title: g Pages: 1 -->
<svg width="1222pt" height="977pt"
 viewBox="0.00 0.00 1222.00 977.50" xmlns="http://www.w3.org/2000/svg" xmlns:xlink="http://www.w3.org/1999/xlink">
<g id="graph0" class="graph" transform="scale(1 1) rotate(0) translate(4 973.5)">
<title>g</title>
<polygon fill="white" stroke="transparent" points="-4,4 -4,-973.5 1218,-973.5 1218,4 -4,4"/>
<text text-anchor="start" x="8" y="-944.1" font-family="Times New Roman" font-size="28.00">Single&#45;query pruning on nginx poset (induced subgraph)</text>
<text text-anchor="start" x="129.5" y="-920.1" font-family="Times New Roman" font-size="23.00">|C|=96, query=C81, |anc(c)|=16, |desc(c)|=12</text>
<g id="clust1" class="cluster">
<title>cluster_I</title>
<path fill="none" stroke="#888888" stroke-width="1.2" stroke-dasharray="5,2" d="M20,-13.32C20,-13.32 591,-13.32 591,-13.32 597,-13.32 603,-19.32 603,-25.32 603,-25.32 603,-885.18 603,-885.18 603,-891.18 597,-897.18 591,-897.18 591,-897.18 20,-897.18 20,-897.18 14,-897.18 8,-891.18 8,-885.18 8,-885.18 8,-25.32 8,-25.32 8,-19.32 14,-13.32 20,-13.32"/>
<text text-anchor="start" x="22" y="-876.38" font-family="Times New Roman" font-weight="bold" font-size="21.00">Case B (infeasible)</text>
<text text-anchor="start" x="17" y="-852.98" font-family="Times New Roman" font-weight="bold" font-style="italic" font-size="19.00">g(c)</text>
<text text-anchor="start" x="51" y="-852.98" font-family="Times New Roman" font-weight="bold" font-size="19.00"> &lt; 0:</text>
<text text-anchor="start" x="88" y="-852.98" font-family="Times New Roman" font-size="19.00"> </text>
<text text-anchor="start" x="94" y="-852.98" font-family="Times New Roman" font-style="italic" font-size="19.00">C</text>
<text text-anchor="start" x="106" y="-852.98" font-family="Times New Roman" font-size="19.00"> ← </text>
<text text-anchor="start" x="132" y="-852.98" font-family="Times New Roman" font-style="italic" font-size="19.00">C</text>
<text text-anchor="start" x="144" y="-852.98" font-family="Times New Roman" font-size="19.00"> ∖ </text>
<text text-anchor="start" x="163" y="-852.98" font-family="Times New Roman" font-style="italic" font-size="19.00">desc(c)</text>
</g>
<g id="clust9" class="cluster">
<title>cluster_F</title>
<path fill="none" stroke="#888888" stroke-width="1.2" stroke-dasharray="5,2" d="M623,-13.32C623,-13.32 1194,-13.32 1194,-13.32 1200,-13.32 1206,-19.32 1206,-25.32 1206,-25.32 1206,-885.18 1206,-885.18 1206,-891.18 1200,-897.18 1194,-897.18 1194,-897.18 623,-897.18 623,-897.18 617,-897.18 611,-891.18 611,-885.18 611,-885.18 611,-25.32 611,-25.32 611,-19.32 617,-13.32 623,-13.32"/>
<text text-anchor="start" x="631.5" y="-876.38" font-family="Times New Roman" font-weight="bold" font-size="21.00">Case A (feasible)</text>
<text text-anchor="start" x="620" y="-852.98" font-family="Times New Roman" font-weight="bold" font-style="italic" font-size="19.00">g(c)</text>
<text text-anchor="start" x="654" y="-852.98" font-family="Times New Roman" font-weight="bold" font-size="19.00"> ≥ 0:</text>
<text text-anchor="start" x="691" y="-852.98" font-family="Times New Roman" font-size="19.00"> </text>
<text text-anchor="start" x="697" y="-852.98" font-family="Times New Roman" font-style="italic" font-size="19.00">C</text>
<text text-anchor="start" x="709" y="-852.98" font-family="Times New Roman" font-size="19.00"> ← </text>
<text text-anchor="start" x="735" y="-852.98" font-family="Times New Roman" font-style="italic" font-size="19.00">C</text>
<text text-anchor="start" x="747" y="-852.98" font-family="Times New Roman" font-size="19.00"> ∖ </text>
<text text-anchor="start" x="766" y="-852.98" font-family="Times New Roman" font-style="italic" font-size="19.00">anc(c)</text>
</g>
<!-- I_C03 -->
<g id="node1" class="node">
<title>I_C03</title>
<g id="a_node1"><a xlink:title="C03 | R1 N1 S1 L2 | hardening=0">
<ellipse fill="#3a3a3a" stroke="#000000" stroke-width="2.1" cx="576" cy="-760.32" rx="18.5" ry="18.5"/>
</a>
</g>
</g>
<!-- I_C21 -->
<g id="node3" class="node">
<title>I_C21</title>
<g id="a_node3"><a xlink:title="C21 | R1 N1 S1 L2 | hardening=1">
<ellipse fill="#727272" stroke="#000000" stroke-width="2.1" cx="576" cy="-645.32" rx="18.5" ry="18.5"/>
</a>
</g>
</g>
<!-- I_C03&#45;&gt;I_C21 -->
<g id="edge21" class="edge">
<title>I_C03&#45;&gt;I_C21</title>
<path fill="none" stroke="#b7b7b7" stroke-width="0.95" d="M576,-741.66C576,-723.67 576,-695.48 576,-674.42"/>
<polygon fill="#b7b7b7" stroke="#b7b7b7" stroke-width="0.95" points="579.68,-674.35 576,-663.85 572.33,-674.35 579.68,-674.35"/>
</g>
<!-- I_C06 -->
<g id="node2" class="node">
<title>I_C06</title>
<g id="a_node2"><a xlink:title="C06 | R1 N1 S2 L1 | hardening=0">
<ellipse fill="#3a3a3a" stroke="#000000" stroke-width="2.1" cx="512" cy="-645.32" rx="18.5" ry="18.5"/>
</a>
</g>
</g>
<!-- I_C37 -->
<g id="node6" class="node">
<title>I_C37</title>
<g id="a_node6"><a xlink:title="C37 | R1 N1 S2 L2 | hardening=1">
<ellipse fill="#727272" stroke="#000000" stroke-width="2.1" cx="532" cy="-530.32" rx="18.5" ry="18.5"/>
</a>
</g>
</g>
<!-- I_C21&#45;&gt;I_C37 -->
<g id="edge22" class="edge">
<title>I_C21&#45;&gt;I_C37</title>
<path fill="none" stroke="#b7b7b7" stroke-width="0.95" d="M569.51,-627.64C562.32,-609.18 550.63,-579.16 542.21,-557.54"/>
<polygon fill="#b7b7b7" stroke="#b7b7b7" stroke-width="0.95" points="545.61,-556.14 538.38,-547.69 538.76,-558.81 545.61,-556.14"/>
</g>
<!-- I_C30 -->
<g id="node4" class="node">
<title>I_C30</title>
<g id="a_node4"><a xlink:title="C30 | R1 N1 S2 L1 | hardening=1">
<ellipse fill="#727272" stroke="#000000" stroke-width="2.1" cx="448" cy="-645.32" rx="18.5" ry="18.5"/>
</a>
</g>
</g>
<!-- I_C30&#45;&gt;I_C37 -->
<g id="edge23" class="edge">
<title>I_C30&#45;&gt;I_C37</title>
<path fill="none" stroke="#b7b7b7" stroke-width="0.95" d="M458.64,-630C472.76,-611.01 497.88,-577.22 514.74,-554.54"/>
<polygon fill="#b7b7b7" stroke="#b7b7b7" stroke-width="0.95" points="517.87,-556.49 521.18,-545.87 511.97,-552.1 517.87,-556.49"/>
</g>
<!-- I_C33 -->
<g id="node5" class="node">
<title>I_C33</title>
<g id="a_node5"><a xlink:title="C33 | R1 N1 S1 L1 | hardening=1">
<ellipse fill="#727272" stroke="#000000" stroke-width="2.1" cx="424" cy="-760.32" rx="18.5" ry="18.5"/>
</a>
</g>
</g>
<!-- I_C48 -->
<g id="node7" class="node">
<title>I_C48</title>
<g id="a_node7"><a xlink:title="C48 | R1 N1 S2 L1 | hardening=1">
<ellipse fill="#727272" stroke="#000000" stroke-width="2.1" cx="384" cy="-645.32" rx="18.5" ry="18.5"/>
</a>
</g>
</g>
<!-- I_C33&#45;&gt;I_C48 -->
<g id="edge24" class="edge">
<title>I_C33&#45;&gt;I_C48</title>
<path fill="none" stroke="#b7b7b7" stroke-width="0.95" d="M418.1,-742.64C411.63,-724.37 401.15,-694.78 393.52,-673.21"/>
<polygon fill="#b7b7b7" stroke="#b7b7b7" stroke-width="0.95" points="396.89,-671.73 389.93,-663.06 389.97,-674.18 396.89,-671.73"/>
</g>
<!-- I_C81 -->
<g id="node11" class="node">
<title>I_C81</title>
<g id="a_node11"><a xlink:title="C81 | R1 N1 S2 L2 | hardening=2">
<ellipse fill="#ffe8cc" stroke="#ff7f0e" stroke-width="3.2" cx="296" cy="-408.32" rx="18.5" ry="18.5"/>
<ellipse fill="none" stroke="#ff7f0e" stroke-width="3.2" cx="296" cy="-408.32" rx="22.5" ry="22.5"/>
</a>
</g>
</g>
<!-- I_C37&#45;&gt;I_C81 -->
<g id="edge25" class="edge">
<title>I_C37&#45;&gt;I_C81</title>
<path fill="none" stroke="#b7b7b7" stroke-width="0.95" d="M516,-520.57C508,-516.19 500,-511.82 500,-511.82 500,-511.82 332,-430.82 332,-430.82 332,-430.82 328.81,-428.91 324.32,-426.23"/>
<polygon fill="#b7b7b7" stroke="#b7b7b7" stroke-width="0.95" points="326.16,-423.05 315.26,-420.82 322.4,-429.36 326.16,-423.05"/>
</g>
<!-- I_C78 -->
<g id="node9" class="node">
<title>I_C78</title>
<g id="a_node9"><a xlink:title="C78 | R1 N1 S2 L1 | hardening=2">
<ellipse fill="#a8a8a8" stroke="#000000" stroke-width="2.1" cx="468" cy="-530.32" rx="18.5" ry="18.5"/>
</a>
</g>
</g>
<!-- I_C48&#45;&gt;I_C78 -->
<g id="edge26" class="edge">
<title>I_C48&#45;&gt;I_C78</title>
<path fill="none" stroke="#b7b7b7" stroke-width="0.95" d="M394.64,-630C408.76,-611.01 433.88,-577.22 450.74,-554.54"/>
<polygon fill="#b7b7b7" stroke="#b7b7b7" stroke-width="0.95" points="453.87,-556.49 457.18,-545.87 447.97,-552.1 453.87,-556.49"/>
</g>
<!-- I_C66 -->
<g id="node8" class="node">
<title>I_C66</title>
<g id="a_node8"><a xlink:title="C66 | R1 N1 S1 L1 | hardening=2">
<ellipse fill="#a8a8a8" stroke="#000000" stroke-width="2.1" cx="404" cy="-530.32" rx="18.5" ry="18.5"/>
</a>
</g>
</g>
<!-- I_C66&#45;&gt;I_C81 -->
<g id="edge27" class="edge">
<title>I_C66&#45;&gt;I_C81</title>
<path fill="none" stroke="#b7b7b7" stroke-width="0.95" d="M392.03,-516.02C374.17,-496.17 340.25,-458.48 317.88,-433.63"/>
<polygon fill="#b7b7b7" stroke="#b7b7b7" stroke-width="0.95" points="320.53,-431.08 310.78,-425.74 315.07,-436 320.53,-431.08"/>
</g>
<!-- I_C78&#45;&gt;I_C81 -->
<g id="edge28" class="edge">
<title>I_C78&#45;&gt;I_C81</title>
<path fill="none" stroke="#b7b7b7" stroke-width="0.95" d="M453.04,-518.88C423.95,-498.59 359.44,-453.58 322.8,-428.01"/>
<polygon fill="#b7b7b7" stroke="#b7b7b7" stroke-width="0.95" points="324.83,-424.95 314.12,-421.96 320.63,-430.98 324.83,-424.95"/>
</g>
<!-- I_C79 -->
<g id="node10" class="node">
<title>I_C79</title>
<g id="a_node10"><a xlink:title="C79 | R1 N1 S2 L3 | hardening=3">
<ellipse fill="#d8d8d8" stroke="#000000" stroke-width="2.1" cx="512" cy="-172.32" rx="18.5" ry="18.5"/>
</a>
</g>
</g>
<!-- I_C95 -->
<g id="node18" class="node">
<title>I_C95</title>
<g id="a_node18"><a xlink:title="C95 | R1 N1 S2 L3 | hardening=4">
<ellipse fill="#f0f0f0" stroke="#000000" stroke-width="2.1" cx="512" cy="-57.32" rx="18.5" ry="18.5"/>
</a>
</g>
</g>
<!-- I_C79&#45;&gt;I_C95 -->
<g id="edge29" class="edge">
<title>I_C79&#45;&gt;I_C95</title>
<path fill="none" stroke="#b7b7b7" stroke-width="0.95" d="M512,-153.66C512,-135.67 512,-107.48 512,-86.42"/>
<polygon fill="#b7b7b7" stroke="#b7b7b7" stroke-width="0.95" points="515.68,-86.35 512,-75.85 508.33,-86.35 515.68,-86.35"/>
</g>
<!-- I_C82 -->
<g id="node12" class="node">
<title>I_C82</title>
<g id="a_node12"><a xlink:title="C82 | R1 N1 S3 L2 | hardening=2">
<ellipse fill="#a8a8a8" stroke="#000000" stroke-width="2.1" cx="404" cy="-287.32" rx="18.5" ry="18.5"/>
</a>
</g>
</g>
<!-- I_C81&#45;&gt;I_C82 -->
<g id="edge30" class="edge">
<title>I_C81&#45;&gt;I_C82</title>
<path fill="none" stroke="#b7b7b7" stroke-width="0.95" d="M311.02,-390.77C330.22,-369.61 363.51,-332.94 384.61,-309.68"/>
<polygon fill="#b7b7b7" stroke="#b7b7b7" stroke-width="0.95" points="387.45,-312.02 391.78,-301.78 382,-307.08 387.45,-312.02"/>
</g>
<!-- I_C83 -->
<g id="node13" class="node">
<title>I_C83</title>
<g id="a_node13"><a xlink:title="C83 | R1 N1 S2 L2 | hardening=3">
<ellipse fill="#d8d8d8" stroke="#000000" stroke-width="2.1" cx="468" cy="-287.32" rx="18.5" ry="18.5"/>
</a>
</g>
</g>
<!-- I_C81&#45;&gt;I_C83 -->
<g id="edge31" class="edge">
<title>I_C81&#45;&gt;I_C83</title>
<path fill="none" stroke="#b7b7b7" stroke-width="0.95" d="M314.08,-394.81C345.3,-373.21 409.31,-328.92 444.14,-304.82"/>
<polygon fill="#b7b7b7" stroke="#b7b7b7" stroke-width="0.95" points="446.59,-307.6 453.14,-298.6 442.41,-301.55 446.59,-307.6"/>
</g>
<!-- I_C84 -->
<g id="node14" class="node">
<title>I_C84</title>
<g id="a_node14"><a xlink:title="C84 | R1 N1 S2 L3 | hardening=2">
<ellipse fill="#a8a8a8" stroke="#000000" stroke-width="2.1" cx="532" cy="-287.32" rx="18.5" ry="18.5"/>
</a>
</g>
</g>
<!-- I_C81&#45;&gt;I_C84 -->
<g id="edge32" class="edge">
<title>I_C81&#45;&gt;I_C84</title>
<path fill="none" stroke="#b7b7b7" stroke-width="0.95" d="M315.26,-395.81C323.82,-390.7 332,-385.82 332,-385.82 332,-385.82 500,-305.82 500,-305.82 500,-305.82 502.82,-304.27 506.79,-302.1"/>
<polygon fill="#b7b7b7" stroke="#b7b7b7" stroke-width="0.95" points="508.55,-305.33 516,-297.07 505.02,-298.88 508.55,-305.33"/>
</g>
<!-- I_pad_r_3 -->
<!-- I_C81&#45;&gt;I_pad_r_3 -->
<!-- I_axis_4 -->
<!-- I_C81&#45;&gt;I_axis_4 -->
<!-- I_C92 -->
<g id="node16" class="node">
<title>I_C92</title>
<g id="a_node16"><a xlink:title="C92 | R1 N1 S3 L2 | hardening=3">
<ellipse fill="#d8d8d8" stroke="#000000" stroke-width="2.1" cx="384" cy="-172.32" rx="18.5" ry="18.5"/>
</a>
</g>
</g>
<!-- I_C82&#45;&gt;I_C92 -->
<g id="edge33" class="edge">
<title>I_C82&#45;&gt;I_C92</title>
<path fill="none" stroke="#b7b7b7" stroke-width="0.95" d="M400.88,-268.66C397.69,-250.67 392.7,-222.48 388.97,-201.42"/>
<polygon fill="#b7b7b7" stroke="#b7b7b7" stroke-width="0.95" points="392.55,-200.55 387.1,-190.85 385.31,-201.83 392.55,-200.55"/>
</g>
<!-- I_C94 -->
<g id="node17" class="node">
<title>I_C94</title>
<g id="a_node17"><a xlink:title="C94 | R1 N1 S2 L2 | hardening=4">
<ellipse fill="#f0f0f0" stroke="#000000" stroke-width="2.1" cx="448" cy="-172.32" rx="18.5" ry="18.5"/>
</a>
</g>
</g>
<!-- I_C83&#45;&gt;I_C94 -->
<g id="edge34" class="edge">
<title>I_C83&#45;&gt;I_C94</title>
<path fill="none" stroke="#b7b7b7" stroke-width="0.95" d="M464.88,-268.66C461.69,-250.67 456.7,-222.48 452.97,-201.42"/>
<polygon fill="#b7b7b7" stroke="#b7b7b7" stroke-width="0.95" points="456.55,-200.55 451.1,-190.85 449.31,-201.83 456.55,-200.55"/>
</g>
<!-- I_C84&#45;&gt;I_C79 -->
<g id="edge35" class="edge">
<title>I_C84&#45;&gt;I_C79</title>
<path fill="none" stroke="#b7b7b7" stroke-width="0.95" d="M528.88,-268.66C525.69,-250.67 520.7,-222.48 516.97,-201.42"/>
<polygon fill="#b7b7b7" stroke="#b7b7b7" stroke-width="0.95" points="520.55,-200.55 515.1,-190.85 513.31,-201.83 520.55,-200.55"/>
</g>
<!-- I_C91 -->
<g id="node15" class="node">
<title>I_C91</title>
<g id="a_node15"><a xlink:title="C91 | R1 N1 S2 L3 | hardening=3">
<ellipse fill="#d8d8d8" stroke="#000000" stroke-width="2.1" cx="576" cy="-172.32" rx="18.5" ry="18.5"/>
</a>
</g>
</g>
<!-- I_C84&#45;&gt;I_C91 -->
<g id="edge36" class="edge">
<title>I_C84&#45;&gt;I_C91</title>
<path fill="none" stroke="#b7b7b7" stroke-width="0.95" d="M538.49,-269.64C545.68,-251.18 557.37,-221.16 565.79,-199.54"/>
<polygon fill="#b7b7b7" stroke="#b7b7b7" stroke-width="0.95" points="569.24,-200.81 569.62,-189.69 562.39,-198.14 569.24,-200.81"/>
</g>
<!-- I_C96 -->
<g id="node19" class="node">
<title>I_C96</title>
<g id="a_node19"><a xlink:title="C96 | R1 N1 S3 L2 | hardening=4">
<ellipse fill="#f0f0f0" stroke="#000000" stroke-width="2.1" cx="436" cy="-57.32" rx="18.5" ry="18.5"/>
</a>
</g>
</g>
<!-- I_C92&#45;&gt;I_C96 -->
<g id="edge37" class="edge">
<title>I_C92&#45;&gt;I_C96</title>
<path fill="none" stroke="#b7b7b7" stroke-width="0.95" d="M391.45,-155.13C399.98,-136.58 414.08,-105.95 424.13,-84.11"/>
<polygon fill="#b7b7b7" stroke="#b7b7b7" stroke-width="0.95" points="427.51,-85.55 428.56,-74.48 420.84,-82.48 427.51,-85.55"/>
</g>
<!-- I_C94&#45;&gt;I_C95 -->
<g id="edge38" class="edge">
<title>I_C94&#45;&gt;I_C95</title>
<path fill="none" stroke="#b7b7b7" stroke-width="0.95" d="M456.9,-155.6C467.5,-136.88 485.35,-105.37 497.85,-83.29"/>
<polygon fill="#b7b7b7" stroke="#b7b7b7" stroke-width="0.95" points="501.2,-84.84 503.18,-73.89 494.8,-81.22 501.2,-84.84"/>
</g>
<!-- I_C94&#45;&gt;I_C96 -->
<g id="edge39" class="edge">
<title>I_C94&#45;&gt;I_C96</title>
<path fill="none" stroke="#b7b7b7" stroke-width="0.95" d="M446.12,-153.66C444.21,-135.67 441.22,-107.48 438.98,-86.42"/>
<polygon fill="#b7b7b7" stroke="#b7b7b7" stroke-width="0.95" points="442.63,-85.9 437.86,-75.85 435.32,-86.68 442.63,-85.9"/>
</g>
<!-- I_axis_0 -->
<!-- I_pad_r_0 -->
<!-- I_axis_0&#45;&gt;I_pad_r_0 -->
<!-- I_axis_1 -->
<!-- I_axis_0&#45;&gt;I_axis_1 -->
<!-- I_pad_l_0 -->
<!-- I_pad_l_0&#45;&gt;I_axis_0 -->
<!-- I_pad_r_1 -->
<!-- I_axis_1&#45;&gt;I_pad_r_1 -->
<!-- I_axis_2 -->
<!-- I_axis_1&#45;&gt;I_axis_2 -->
<!-- I_pad_l_1 -->
<!-- I_pad_l_1&#45;&gt;I_axis_1 -->
<!-- I_axis_2&#45;&gt;I_C81 -->
<!-- I_pad_r_2 -->
<!-- I_axis_2&#45;&gt;I_pad_r_2 -->
<!-- I_pad_l_2 -->
<!-- I_pad_l_2&#45;&gt;I_axis_2 -->
<!-- I_pad_l_3 -->
<!-- I_pad_l_3&#45;&gt;I_C81 -->
<!-- I_pad_r_4 -->
<!-- I_axis_4&#45;&gt;I_pad_r_4 -->
<!-- I_axis_5 -->
<!-- I_axis_4&#45;&gt;I_axis_5 -->
<!-- I_pad_l_4 -->
<!-- I_pad_l_4&#45;&gt;I_axis_4 -->
<!-- I_pad_r_5 -->
<!-- I_axis_5&#45;&gt;I_pad_r_5 -->
<!-- I_axis_6 -->
<!-- I_axis_5&#45;&gt;I_axis_6 -->
<!-- I_pad_l_5 -->
<!-- I_pad_l_5&#45;&gt;I_axis_5 -->
<!-- I_pad_r_6 -->
<!-- I_axis_6&#45;&gt;I_pad_r_6 -->
<!-- I_pad_l_6 -->
<!-- I_pad_l_6&#45;&gt;I_axis_6 -->
<!-- F_C03 -->
<g id="node40" class="node">
<title>F_C03</title>
<g id="a_node40"><a xlink:title="C03 | R1 N1 S1 L2 | hardening=0">
<ellipse fill="#3a3a3a" stroke="#000000" stroke-width="2.1" cx="1179" cy="-760.32" rx="18.5" ry="18.5"/>
</a>
</g>
</g>
<!-- F_C21 -->
<g id="node42" class="node">
<title>F_C21</title>
<g id="a_node42"><a xlink:title="C21 | R1 N1 S1 L2 | hardening=1">
<ellipse fill="#727272" stroke="#000000" stroke-width="2.1" cx="1179" cy="-645.32" rx="18.5" ry="18.5"/>
</a>
</g>
</g>
<!-- F_C03&#45;&gt;F_C21 -->
<g id="edge60" class="edge">
<title>F_C03&#45;&gt;F_C21</title>
<path fill="none" stroke="#b7b7b7" stroke-width="0.95" d="M1179,-741.66C1179,-723.67 1179,-695.48 1179,-674.42"/>
<polygon fill="#b7b7b7" stroke="#b7b7b7" stroke-width="0.95" points="1182.68,-674.35 1179,-663.85 1175.33,-674.35 1182.68,-674.35"/>
</g>
<!-- F_C06 -->
<g id="node41" class="node">
<title>F_C06</title>
<g id="a_node41"><a xlink:title="C06 | R1 N1 S2 L1 | hardening=0">
<ellipse fill="#3a3a3a" stroke="#000000" stroke-width="2.1" cx="1115" cy="-645.32" rx="18.5" ry="18.5"/>
</a>
</g>
</g>
<!-- F_C37 -->
<g id="node45" class="node">
<title>F_C37</title>
<g id="a_node45"><a xlink:title="C37 | R1 N1 S2 L2 | hardening=1">
<ellipse fill="#727272" stroke="#000000" stroke-width="2.1" cx="1135" cy="-530.32" rx="18.5" ry="18.5"/>
</a>
</g>
</g>
<!-- F_C21&#45;&gt;F_C37 -->
<g id="edge61" class="edge">
<title>F_C21&#45;&gt;F_C37</title>
<path fill="none" stroke="#b7b7b7" stroke-width="0.95" d="M1172.51,-627.64C1165.32,-609.18 1153.63,-579.16 1145.21,-557.54"/>
<polygon fill="#b7b7b7" stroke="#b7b7b7" stroke-width="0.95" points="1148.61,-556.14 1141.38,-547.69 1141.76,-558.81 1148.61,-556.14"/>
</g>
<!-- F_C30 -->
<g id="node43" class="node">
<title>F_C30</title>
<g id="a_node43"><a xlink:title="C30 | R1 N1 S2 L1 | hardening=1">
<ellipse fill="#727272" stroke="#000000" stroke-width="2.1" cx="1051" cy="-645.32" rx="18.5" ry="18.5"/>
</a>
</g>
</g>
<!-- F_C30&#45;&gt;F_C37 -->
<g id="edge62" class="edge">
<title>F_C30&#45;&gt;F_C37</title>
<path fill="none" stroke="#b7b7b7" stroke-width="0.95" d="M1061.64,-630C1075.76,-611.01 1100.88,-577.22 1117.74,-554.54"/>
<polygon fill="#b7b7b7" stroke="#b7b7b7" stroke-width="0.95" points="1120.87,-556.49 1124.18,-545.87 1114.97,-552.1 1120.87,-556.49"/>
</g>
<!-- F_C33 -->
<g id="node44" class="node">
<title>F_C33</title>
<g id="a_node44"><a xlink:title="C33 | R1 N1 S1 L1 | hardening=1">
<ellipse fill="#727272" stroke="#000000" stroke-width="2.1" cx="1027" cy="-760.32" rx="18.5" ry="18.5"/>
</a>
</g>
</g>
<!-- F_C48 -->
<g id="node46" class="node">
<title>F_C48</title>
<g id="a_node46"><a xlink:title="C48 | R1 N1 S2 L1 | hardening=1">
<ellipse fill="#727272" stroke="#000000" stroke-width="2.1" cx="987" cy="-645.32" rx="18.5" ry="18.5"/>
</a>
</g>
</g>
<!-- F_C33&#45;&gt;F_C48 -->
<g id="edge63" class="edge">
<title>F_C33&#45;&gt;F_C48</title>
<path fill="none" stroke="#b7b7b7" stroke-width="0.95" d="M1021.1,-742.64C1014.63,-724.37 1004.15,-694.78 996.52,-673.21"/>
<polygon fill="#b7b7b7" stroke="#b7b7b7" stroke-width="0.95" points="999.89,-671.73 992.93,-663.06 992.97,-674.18 999.89,-671.73"/>
</g>
<!-- F_C81 -->
<g id="node50" class="node">
<title>F_C81</title>
<g id="a_node50"><a xlink:title="C81 | R1 N1 S2 L2 | hardening=2">
<ellipse fill="#ffe8cc" stroke="#ff7f0e" stroke-width="3.2" cx="899" cy="-408.32" rx="18.5" ry="18.5"/>
<ellipse fill="none" stroke="#ff7f0e" stroke-width="3.2" cx="899" cy="-408.32" rx="22.5" ry="22.5"/>
</a>
</g>
</g>
<!-- F_C37&#45;&gt;F_C81 -->
<g id="edge64" class="edge">
<title>F_C37&#45;&gt;F_C81</title>
<path fill="none" stroke="#b7b7b7" stroke-width="0.95" d="M1119,-520.57C1111,-516.19 1103,-511.82 1103,-511.82 1103,-511.82 935,-430.82 935,-430.82 935,-430.82 931.81,-428.91 927.32,-426.23"/>
<polygon fill="#b7b7b7" stroke="#b7b7b7" stroke-width="0.95" points="929.16,-423.05 918.26,-420.82 925.4,-429.36 929.16,-423.05"/>
</g>
<!-- F_C78 -->
<g id="node48" class="node">
<title>F_C78</title>
<g id="a_node48"><a xlink:title="C78 | R1 N1 S2 L1 | hardening=2">
<ellipse fill="#a8a8a8" stroke="#000000" stroke-width="2.1" cx="1071" cy="-530.32" rx="18.5" ry="18.5"/>
</a>
</g>
</g>
<!-- F_C48&#45;&gt;F_C78 -->
<g id="edge65" class="edge">
<title>F_C48&#45;&gt;F_C78</title>
<path fill="none" stroke="#b7b7b7" stroke-width="0.95" d="M997.64,-630C1011.76,-611.01 1036.88,-577.22 1053.74,-554.54"/>
<polygon fill="#b7b7b7" stroke="#b7b7b7" stroke-width="0.95" points="1056.87,-556.49 1060.18,-545.87 1050.97,-552.1 1056.87,-556.49"/>
</g>
<!-- F_C66 -->
<g id="node47" class="node">
<title>F_C66</title>
<g id="a_node47"><a xlink:title="C66 | R1 N1 S1 L1 | hardening=2">
<ellipse fill="#a8a8a8" stroke="#000000" stroke-width="2.1" cx="1007" cy="-530.32" rx="18.5" ry="18.5"/>
</a>
</g>
</g>
<!-- F_C66&#45;&gt;F_C81 -->
<g id="edge66" class="edge">
<title>F_C66&#45;&gt;F_C81</title>
<path fill="none" stroke="#b7b7b7" stroke-width="0.95" d="M995.03,-516.02C977.17,-496.17 943.25,-458.48 920.88,-433.63"/>
<polygon fill="#b7b7b7" stroke="#b7b7b7" stroke-width="0.95" points="923.53,-431.08 913.78,-425.74 918.07,-436 923.53,-431.08"/>
</g>
<!-- F_C78&#45;&gt;F_C81 -->
<g id="edge67" class="edge">
<title>F_C78&#45;&gt;F_C81</title>
<path fill="none" stroke="#b7b7b7" stroke-width="0.95" d="M1056.04,-518.88C1026.95,-498.59 962.44,-453.58 925.8,-428.01"/>
<polygon fill="#b7b7b7" stroke="#b7b7b7" stroke-width="0.95" points="927.83,-424.95 917.12,-421.96 923.63,-430.98 927.83,-424.95"/>
</g>
<!-- F_C79 -->
<g id="node49" class="node">
<title>F_C79</title>
<g id="a_node49"><a xlink:title="C79 | R1 N1 S2 L3 | hardening=3">
<ellipse fill="#d8d8d8" stroke="#000000" stroke-width="2.1" cx="1115" cy="-172.32" rx="18.5" ry="18.5"/>
</a>
</g>
</g>
<!-- F_C95 -->
<g id="node57" class="node">
<title>F_C95</title>
<g id="a_node57"><a xlink:title="C95 | R1 N1 S2 L3 | hardening=4">
<ellipse fill="#f0f0f0" stroke="#000000" stroke-width="2.1" cx="1115" cy="-57.32" rx="18.5" ry="18.5"/>
</a>
</g>
</g>
<!-- F_C79&#45;&gt;F_C95 -->
<g id="edge68" class="edge">
<title>F_C79&#45;&gt;F_C95</title>
<path fill="none" stroke="#b7b7b7" stroke-width="0.95" d="M1115,-153.66C1115,-135.67 1115,-107.48 1115,-86.42"/>
<polygon fill="#b7b7b7" stroke="#b7b7b7" stroke-width="0.95" points="1118.68,-86.35 1115,-75.85 1111.33,-86.35 1118.68,-86.35"/>
</g>
<!-- F_C82 -->
<g id="node51" class="node">
<title>F_C82</title>
<g id="a_node51"><a xlink:title="C82 | R1 N1 S3 L2 | hardening=2">
<ellipse fill="#a8a8a8" stroke="#000000" stroke-width="2.1" cx="1007" cy="-287.32" rx="18.5" ry="18.5"/>
</a>
</g>
</g>
<!-- F_C81&#45;&gt;F_C82 -->
<g id="edge69" class="edge">
<title>F_C81&#45;&gt;F_C82</title>
<path fill="none" stroke="#b7b7b7" stroke-width="0.95" d="M914.02,-390.77C933.22,-369.61 966.51,-332.94 987.61,-309.68"/>
<polygon fill="#b7b7b7" stroke="#b7b7b7" stroke-width="0.95" points="990.45,-312.02 994.78,-301.78 985,-307.08 990.45,-312.02"/>
</g>
<!-- F_C83 -->
<g id="node52" class="node">
<title>F_C83</title>
<g id="a_node52"><a xlink:title="C83 | R1 N1 S2 L2 | hardening=3">
<ellipse fill="#d8d8d8" stroke="#000000" stroke-width="2.1" cx="1071" cy="-287.32" rx="18.5" ry="18.5"/>
</a>
</g>
</g>
<!-- F_C81&#45;&gt;F_C83 -->
<g id="edge70" class="edge">
<title>F_C81&#45;&gt;F_C83</title>
<path fill="none" stroke="#b7b7b7" stroke-width="0.95" d="M917.08,-394.81C948.3,-373.21 1012.31,-328.92 1047.14,-304.82"/>
<polygon fill="#b7b7b7" stroke="#b7b7b7" stroke-width="0.95" points="1049.59,-307.6 1056.14,-298.6 1045.41,-301.55 1049.59,-307.6"/>
</g>
<!-- F_C84 -->
<g id="node53" class="node">
<title>F_C84</title>
<g id="a_node53"><a xlink:title="C84 | R1 N1 S2 L3 | hardening=2">
<ellipse fill="#a8a8a8" stroke="#000000" stroke-width="2.1" cx="1135" cy="-287.32" rx="18.5" ry="18.5"/>
</a>
</g>
</g>
<!-- F_C81&#45;&gt;F_C84 -->
<g id="edge71" class="edge">
<title>F_C81&#45;&gt;F_C84</title>
<path fill="none" stroke="#b7b7b7" stroke-width="0.95" d="M918.26,-395.81C926.82,-390.7 935,-385.82 935,-385.82 935,-385.82 1103,-305.82 1103,-305.82 1103,-305.82 1105.82,-304.27 1109.79,-302.1"/>
<polygon fill="#b7b7b7" stroke="#b7b7b7" stroke-width="0.95" points="1111.55,-305.33 1119,-297.07 1108.02,-298.88 1111.55,-305.33"/>
</g>
<!-- F_pad_r_3 -->
<!-- F_C81&#45;&gt;F_pad_r_3 -->
<!-- F_axis_4 -->
<!-- F_C81&#45;&gt;F_axis_4 -->
<!-- F_C92 -->
<g id="node55" class="node">
<title>F_C92</title>
<g id="a_node55"><a xlink:title="C92 | R1 N1 S3 L2 | hardening=3">
<ellipse fill="#d8d8d8" stroke="#000000" stroke-width="2.1" cx="987" cy="-172.32" rx="18.5" ry="18.5"/>
</a>
</g>
</g>
<!-- F_C82&#45;&gt;F_C92 -->
<g id="edge72" class="edge">
<title>F_C82&#45;&gt;F_C92</title>
<path fill="none" stroke="#b7b7b7" stroke-width="0.95" d="M1003.88,-268.66C1000.69,-250.67 995.7,-222.48 991.97,-201.42"/>
<polygon fill="#b7b7b7" stroke="#b7b7b7" stroke-width="0.95" points="995.55,-200.55 990.1,-190.85 988.31,-201.83 995.55,-200.55"/>
</g>
<!-- F_C94 -->
<g id="node56" class="node">
<title>F_C94</title>
<g id="a_node56"><a xlink:title="C94 | R1 N1 S2 L2 | hardening=4">
<ellipse fill="#f0f0f0" stroke="#000000" stroke-width="2.1" cx="1051" cy="-172.32" rx="18.5" ry="18.5"/>
</a>
</g>
</g>
<!-- F_C83&#45;&gt;F_C94 -->
<g id="edge73" class="edge">
<title>F_C83&#45;&gt;F_C94</title>
<path fill="none" stroke="#b7b7b7" stroke-width="0.95" d="M1067.88,-268.66C1064.69,-250.67 1059.7,-222.48 1055.97,-201.42"/>
<polygon fill="#b7b7b7" stroke="#b7b7b7" stroke-width="0.95" points="1059.55,-200.55 1054.1,-190.85 1052.31,-201.83 1059.55,-200.55"/>
</g>
<!-- F_C84&#45;&gt;F_C79 -->
<g id="edge74" class="edge">
<title>F_C84&#45;&gt;F_C79</title>
<path fill="none" stroke="#b7b7b7" stroke-width="0.95" d="M1131.88,-268.66C1128.69,-250.67 1123.7,-222.48 1119.97,-201.42"/>
<polygon fill="#b7b7b7" stroke="#b7b7b7" stroke-width="0.95" points="1123.55,-200.55 1118.1,-190.85 1116.31,-201.83 1123.55,-200.55"/>
</g>
<!-- F_C91 -->
<g id="node54" class="node">
<title>F_C91</title>
<g id="a_node54"><a xlink:title="C91 | R1 N1 S2 L3 | hardening=3">
<ellipse fill="#d8d8d8" stroke="#000000" stroke-width="2.1" cx="1179" cy="-172.32" rx="18.5" ry="18.5"/>
</a>
</g>
</g>
<!-- F_C84&#45;&gt;F_C91 -->
<g id="edge75" class="edge">
<title>F_C84&#45;&gt;F_C91</title>
<path fill="none" stroke="#b7b7b7" stroke-width="0.95" d="M1141.49,-269.64C1148.68,-251.18 1160.37,-221.16 1168.79,-199.54"/>
<polygon fill="#b7b7b7" stroke="#b7b7b7" stroke-width="0.95" points="1172.24,-200.81 1172.62,-189.69 1165.39,-198.14 1172.24,-200.81"/>
</g>
<!-- F_C96 -->
<g id="node58" class="node">
<title>F_C96</title>
<g id="a_node58"><a xlink:title="C96 | R1 N1 S3 L2 | hardening=4">
<ellipse fill="#f0f0f0" stroke="#000000" stroke-width="2.1" cx="1039" cy="-57.32" rx="18.5" ry="18.5"/>
</a>
</g>
</g>
<!-- F_C92&#45;&gt;F_C96 -->
<g id="edge76" class="edge">
<title>F_C92&#45;&gt;F_C96</title>
<path fill="none" stroke="#b7b7b7" stroke-width="0.95" d="M994.45,-155.13C1002.98,-136.58 1017.08,-105.95 1027.13,-84.11"/>
<polygon fill="#b7b7b7" stroke="#b7b7b7" stroke-width="0.95" points="1030.51,-85.55 1031.56,-74.48 1023.84,-82.48 1030.51,-85.55"/>
</g>
<!-- F_C94&#45;&gt;F_C95 -->
<g id="edge77" class="edge">
<title>F_C94&#45;&gt;F_C95</title>
<path fill="none" stroke="#b7b7b7" stroke-width="0.95" d="M1059.9,-155.6C1070.5,-136.88 1088.35,-105.37 1100.85,-83.29"/>
<polygon fill="#b7b7b7" stroke="#b7b7b7" stroke-width="0.95" points="1104.2,-84.84 1106.18,-73.89 1097.8,-81.22 1104.2,-84.84"/>
</g>
<!-- F_C94&#45;&gt;F_C96 -->
<g id="edge78" class="edge">
<title>F_C94&#45;&gt;F_C96</title>
<path fill="none" stroke="#b7b7b7" stroke-width="0.95" d="M1049.12,-153.66C1047.21,-135.67 1044.22,-107.48 1041.98,-86.42"/>
<polygon fill="#b7b7b7" stroke="#b7b7b7" stroke-width="0.95" points="1045.63,-85.9 1040.86,-75.85 1038.32,-86.68 1045.63,-85.9"/>
</g>
<!-- F_axis_0 -->
<!-- F_pad_r_0 -->
<!-- F_axis_0&#45;&gt;F_pad_r_0 -->
<!-- F_axis_1 -->
<!-- F_axis_0&#45;&gt;F_axis_1 -->
<!-- F_pad_l_0 -->
<!-- F_pad_l_0&#45;&gt;F_axis_0 -->
<!-- F_pad_r_1 -->
<!-- F_axis_1&#45;&gt;F_pad_r_1 -->
<!-- F_axis_2 -->
<!-- F_axis_1&#45;&gt;F_axis_2 -->
<!-- F_pad_l_1 -->
<!-- F_pad_l_1&#45;&gt;F_axis_1 -->
<!-- F_axis_2&#45;&gt;F_C81 -->
<!-- F_pad_r_2 -->
<!-- F_axis_2&#45;&gt;F_pad_r_2 -->
<!-- F_pad_l_2 -->
<!-- F_pad_l_2&#45;&gt;F_axis_2 -->
<!-- F_pad_l_3 -->
<!-- F_pad_l_3&#45;&gt;F_C81 -->
<!-- F_pad_r_4 -->
<!-- F_axis_4&#45;&gt;F_pad_r_4 -->
<!-- F_axis_5 -->
<!-- F_axis_4&#45;&gt;F_axis_5 -->
<!-- F_pad_l_4 -->
<!-- F_pad_l_4&#45;&gt;F_axis_4 -->
<!-- F_pad_r_5 -->
<!-- F_axis_5&#45;&gt;F_pad_r_5 -->
<!-- F_axis_6 -->
<!-- F_axis_5&#45;&gt;F_axis_6 -->
<!-- F_pad_l_5 -->
<!-- F_pad_l_5&#45;&gt;F_axis_5 -->
<!-- F_pad_r_6 -->
<!-- F_axis_6&#45;&gt;F_pad_r_6 -->
<!-- F_pad_l_6 -->
<!-- F_pad_l_6&#45;&gt;F_axis_6 -->
</g>
</svg>
