<?xml version="1.0" encoding="utf-8" standalone="no"?>
<!DOCTYPE svg PUBLIC "-//W3C//DTD SVG 1.1//EN"
  "http://www.w3.org/Graphics/SVG/1.1/DTD/svg11.dtd">
<svg xmlns:xlink="http://www.w3.org/1999/xlink" width="734.4pt" height="280.8pt" viewBox="0 0 734.4 280.8" xmlns="http://www.w3.org/2000/svg" version="1.1">
 <metadata>
  <rdf:RDF xmlns:dc="http://purl.org/dc/elements/1.1/" xmlns:cc="http://creativecommons.org/ns#" xmlns:rdf="http://www.w3.org/1999/02/22-rdf-syntax-ns#">
   <cc:Work>
    <dc:type rdf:resource="http://purl.org/dc/dcmitype/StillImage"/>
    <dc:date>2026-04-08T16:33:44.662663</dc:date>
    <dc:format>image/svg+xml</dc:format>
    <dc:creator>
     <cc:Agent>
      <dc:title>Matplotlib v3.10.8, https://matplotlib.org/</dc:title>
     </cc:Agent>
    </dc:creator>
   </cc:Work>
  </rdf:RDF>
 </metadata>
 <defs>
  <style type="text/css">*{stroke-linejoin: round; stroke-linecap: butt}</style>
 </defs>
 <g id="figure_1">
  <g id="patch_1">
   <path d="M 0 280.8 
L 734.4 280.8 
L 734.4 0 
L 0 0 
z
" style="fill: #ffffff"/>
  </g>
  <g id="axes_1">
   <g id="patch_2">
    <path d="M 47 193.85937 
L 723.6 193.85937 
L 723.6 11.355024 
L 47 11.355024 
z
" style="fill: #ffffff"/>
   </g>
   <g id="matplotlib.axis_1">
    <g id="xtick_1">
     <g id="line2d_1">
      <defs>
       <path id="mfc7e3feb77" d="M 0 0 
L 0 3.5 
" style="stroke: #262626; stroke-width: 0.8"/>
      </defs>
      <g>
       <use xlink:href="#mfc7e3feb77" x="122.440637" y="193.85937" style="fill: #262626; stroke: #262626; stroke-width: 0.8"/>
      </g>
     </g>
     <g id="text_1">
      <text style="font-size: 10px; font-family: 'Times New Roman'; text-anchor: middle; fill: #262626" x="122.440637" y="207.80312" transform="rotate(-0 122.440637 207.80312)">IPERF</text>
     </g>
    </g>
    <g id="xtick_2">
     <g id="line2d_2">
      <g>
       <use xlink:href="#mfc7e3feb77" x="253.870319" y="193.85937" style="fill: #262626; stroke: #262626; stroke-width: 0.8"/>
      </g>
     </g>
     <g id="text_2">
      <text style="font-size: 10px; font-family: 'Times New Roman'; text-anchor: middle; fill: #262626" x="253.870319" y="207.80312" transform="rotate(-0 253.870319 207.80312)">LWIP</text>
     </g>
    </g>
    <g id="xtick_3">
     <g id="line2d_3">
      <g>
       <use xlink:href="#mfc7e3feb77" x="385.3" y="193.85937" style="fill: #262626; stroke: #262626; stroke-width: 0.8"/>
      </g>
     </g>
     <g id="text_3">
      <text style="font-size: 10px; font-family: 'Times New Roman'; text-anchor: middle; fill: #262626" x="385.3" y="207.80312" transform="rotate(-0 385.3 207.80312)">NEWLIB</text>
     </g>
    </g>
    <g id="xtick_4">
     <g id="line2d_4">
      <g>
       <use xlink:href="#mfc7e3feb77" x="516.729681" y="193.85937" style="fill: #262626; stroke: #262626; stroke-width: 0.8"/>
      </g>
     </g>
     <g id="text_4">
      <text style="font-size: 10px; font-family: 'Times New Roman'; text-anchor: middle; fill: #262626" x="516.729681" y="207.80312" transform="rotate(-0 516.729681 207.80312)">NGINX</text>
     </g>
    </g>
    <g id="xtick_5">
     <g id="line2d_5">
      <g>
       <use xlink:href="#mfc7e3feb77" x="648.159363" y="193.85937" style="fill: #262626; stroke: #262626; stroke-width: 0.8"/>
      </g>
     </g>
     <g id="text_5">
      <text style="font-size: 10px; font-family: 'Times New Roman'; text-anchor: middle; fill: #262626" x="648.159363" y="207.80312" transform="rotate(-0 648.159363 207.80312)">REDIS</text>
     </g>
    </g>
   </g>
   <g id="matplotlib.axis_2">
    <g id="ytick_1">
     <g id="line2d_6">
      <path d="M 47 193.85937 
L 723.6 193.85937 
" clip-path="url(#pe25601531f)" style="fill: none; stroke: #d9d9d9; stroke-opacity: 0.8; stroke-width: 0.6; stroke-linecap: square"/>
     </g>
     <g id="line2d_7">
      <defs>
       <path id="m39e18e48b9" d="M 0 0 
L -3.5 0 
" style="stroke: #262626; stroke-width: 0.8"/>
      </defs>
      <g>
       <use xlink:href="#m39e18e48b9" x="47" y="193.85937" style="fill: #262626; stroke: #262626; stroke-width: 0.8"/>
      </g>
     </g>
     <g id="text_6">
      <text style="font-size: 10px; font-family: 'Times New Roman'; text-anchor: end; fill: #262626" x="40" y="197.331245" transform="rotate(-0 40 197.331245)">0</text>
     </g>
    </g>
    <g id="ytick_2">
     <g id="line2d_8">
      <path d="M 47 171.405587 
L 723.6 171.405587 
" clip-path="url(#pe25601531f)" style="fill: none; stroke: #d9d9d9; stroke-opacity: 0.8; stroke-width: 0.6; stroke-linecap: square"/>
     </g>
     <g id="line2d_9">
      <g>
       <use xlink:href="#m39e18e48b9" x="47" y="171.405587" style="fill: #262626; stroke: #262626; stroke-width: 0.8"/>
      </g>
     </g>
     <g id="text_7">
      <text style="font-size: 10px; font-family: 'Times New Roman'; text-anchor: end; fill: #262626" x="40" y="174.877462" transform="rotate(-0 40 174.877462)">100</text>
     </g>
    </g>
    <g id="ytick_3">
     <g id="line2d_10">
      <path d="M 47 148.951804 
L 723.6 148.951804 
" clip-path="url(#pe25601531f)" style="fill: none; stroke: #d9d9d9; stroke-opacity: 0.8; stroke-width: 0.6; stroke-linecap: square"/>
     </g>
     <g id="line2d_11">
      <g>
       <use xlink:href="#m39e18e48b9" x="47" y="148.951804" style="fill: #262626; stroke: #262626; stroke-width: 0.8"/>
      </g>
     </g>
     <g id="text_8">
      <text style="font-size: 10px; font-family: 'Times New Roman'; text-anchor: end; fill: #262626" x="40" y="152.423679" transform="rotate(-0 40 152.423679)">200</text>
     </g>
    </g>
    <g id="ytick_4">
     <g id="line2d_12">
      <path d="M 47 126.498022 
L 723.6 126.498022 
" clip-path="url(#pe25601531f)" style="fill: none; stroke: #d9d9d9; stroke-opacity: 0.8; stroke-width: 0.6; stroke-linecap: square"/>
     </g>
     <g id="line2d_13">
      <g>
       <use xlink:href="#m39e18e48b9" x="47" y="126.498022" style="fill: #262626; stroke: #262626; stroke-width: 0.8"/>
      </g>
     </g>
     <g id="text_9">
      <text style="font-size: 10px; font-family: 'Times New Roman'; text-anchor: end; fill: #262626" x="40" y="129.969897" transform="rotate(-0 40 129.969897)">300</text>
     </g>
    </g>
    <g id="ytick_5">
     <g id="line2d_14">
      <path d="M 47 104.044239 
L 723.6 104.044239 
" clip-path="url(#pe25601531f)" style="fill: none; stroke: #d9d9d9; stroke-opacity: 0.8; stroke-width: 0.6; stroke-linecap: square"/>
     </g>
     <g id="line2d_15">
      <g>
       <use xlink:href="#m39e18e48b9" x="47" y="104.044239" style="fill: #262626; stroke: #262626; stroke-width: 0.8"/>
      </g>
     </g>
     <g id="text_10">
      <text style="font-size: 10px; font-family: 'Times New Roman'; text-anchor: end; fill: #262626" x="40" y="107.516114" transform="rotate(-0 40 107.516114)">400</text>
     </g>
    </g>
    <g id="ytick_6">
     <g id="line2d_16">
      <path d="M 47 81.590456 
L 723.6 81.590456 
" clip-path="url(#pe25601531f)" style="fill: none; stroke: #d9d9d9; stroke-opacity: 0.8; stroke-width: 0.6; stroke-linecap: square"/>
     </g>
     <g id="line2d_17">
      <g>
       <use xlink:href="#m39e18e48b9" x="47" y="81.590456" style="fill: #262626; stroke: #262626; stroke-width: 0.8"/>
      </g>
     </g>
     <g id="text_11">
      <text style="font-size: 10px; font-family: 'Times New Roman'; text-anchor: end; fill: #262626" x="40" y="85.062331" transform="rotate(-0 40 85.062331)">500</text>
     </g>
    </g>
    <g id="ytick_7">
     <g id="line2d_18">
      <path d="M 47 59.136673 
L 723.6 59.136673 
" clip-path="url(#pe25601531f)" style="fill: none; stroke: #d9d9d9; stroke-opacity: 0.8; stroke-width: 0.6; stroke-linecap: square"/>
     </g>
     <g id="line2d_19">
      <g>
       <use xlink:href="#m39e18e48b9" x="47" y="59.136673" style="fill: #262626; stroke: #262626; stroke-width: 0.8"/>
      </g>
     </g>
     <g id="text_12">
      <text style="font-size: 10px; font-family: 'Times New Roman'; text-anchor: end; fill: #262626" x="40" y="62.608548" transform="rotate(-0 40 62.608548)">600</text>
     </g>
    </g>
    <g id="ytick_8">
     <g id="line2d_20">
      <path d="M 47 36.682891 
L 723.6 36.682891 
" clip-path="url(#pe25601531f)" style="fill: none; stroke: #d9d9d9; stroke-opacity: 0.8; stroke-width: 0.6; stroke-linecap: square"/>
     </g>
     <g id="line2d_21">
      <g>
       <use xlink:href="#m39e18e48b9" x="47" y="36.682891" style="fill: #262626; stroke: #262626; stroke-width: 0.8"/>
      </g>
     </g>
     <g id="text_13">
      <text style="font-size: 10px; font-family: 'Times New Roman'; text-anchor: end; fill: #262626" x="40" y="40.154766" transform="rotate(-0 40 40.154766)">700</text>
     </g>
    </g>
    <g id="ytick_9">
     <g id="line2d_22">
      <path d="M 47 14.229108 
L 723.6 14.229108 
" clip-path="url(#pe25601531f)" style="fill: none; stroke: #d9d9d9; stroke-opacity: 0.8; stroke-width: 0.6; stroke-linecap: square"/>
     </g>
     <g id="line2d_23">
      <g>
       <use xlink:href="#m39e18e48b9" x="47" y="14.229108" style="fill: #262626; stroke: #262626; stroke-width: 0.8"/>
      </g>
     </g>
     <g id="text_14">
      <text style="font-size: 10px; font-family: 'Times New Roman'; text-anchor: end; fill: #262626" x="40" y="17.700983" transform="rotate(-0 40 17.700983)">800</text>
     </g>
    </g>
    <g id="text_15">
     <text style="font-size: 11px; font-family: 'Times New Roman'; text-anchor: middle" x="18.626406" y="102.607197" transform="rotate(-90 18.626406 102.607197)">Changed lines (diff-based effort)</text>
    </g>
   </g>
   <g id="patch_3">
    <path d="M 47 193.85937 
L 47 11.355024 
" style="fill: none; stroke: #262626; stroke-width: 1.1; stroke-linejoin: miter; stroke-linecap: square"/>
   </g>
   <g id="patch_4">
    <path d="M 723.6 193.85937 
L 723.6 11.355024 
" style="fill: none; stroke: #262626; stroke-width: 1.1; stroke-linejoin: miter; stroke-linecap: square"/>
   </g>
   <g id="patch_5">
    <path d="M 47 193.85937 
L 723.6 193.85937 
" style="fill: none; stroke: #262626; stroke-width: 1.1; stroke-linejoin: miter; stroke-linecap: square"/>
   </g>
   <g id="patch_6">
    <path d="M 47 11.355024 
L 723.6 11.355024 
" style="fill: none; stroke: #262626; stroke-width: 1.1; stroke-linejoin: miter; stroke-linecap: square"/>
   </g>
   <g id="patch_7">
    <path d="M 77.754545 193.85937 
L 122.440637 193.85937 
L 122.440637 184.204243 
L 77.754545 184.204243 
z
" clip-path="url(#pe25601531f)" style="fill: url(#h8cec2fd247); stroke: #4c78a8; stroke-linejoin: miter"/>
   </g>
   <g id="patch_8">
    <path d="M 209.184227 193.85937 
L 253.870319 193.85937 
L 253.870319 181.509789 
L 209.184227 181.509789 
z
" clip-path="url(#pe25601531f)" style="fill: url(#h8cec2fd247); stroke: #4c78a8; stroke-linejoin: miter"/>
   </g>
   <g id="patch_9">
    <path d="M 340.613908 193.85937 
L 385.3 193.85937 
L 385.3 125.59987 
L 340.613908 125.59987 
z
" clip-path="url(#pe25601531f)" style="fill: url(#h8cec2fd247); stroke: #4c78a8; stroke-linejoin: miter"/>
   </g>
   <g id="patch_10">
    <path d="M 472.04359 193.85937 
L 516.729681 193.85937 
L 516.729681 51.277849 
L 472.04359 51.277849 
z
" clip-path="url(#pe25601531f)" style="fill: url(#h8cec2fd247); stroke: #4c78a8; stroke-linejoin: miter"/>
   </g>
   <g id="patch_11">
    <path d="M 603.473271 193.85937 
L 648.159363 193.85937 
L 648.159363 112.576676 
L 603.473271 112.576676 
z
" clip-path="url(#pe25601531f)" style="fill: url(#h8cec2fd247); stroke: #4c78a8; stroke-linejoin: miter"/>
   </g>
   <g id="patch_12">
    <path d="M 122.440637 193.85937 
L 167.126729 193.85937 
L 167.126729 193.85937 
L 122.440637 193.85937 
z
" clip-path="url(#pe25601531f)" style="fill: url(#h16c27e1a42); stroke: #dd8452; stroke-linejoin: miter"/>
   </g>
   <g id="patch_13">
    <path d="M 253.870319 193.85937 
L 298.55641 193.85937 
L 298.55641 185.326933 
L 253.870319 185.326933 
z
" clip-path="url(#pe25601531f)" style="fill: url(#h16c27e1a42); stroke: #dd8452; stroke-linejoin: miter"/>
   </g>
   <g id="patch_14">
    <path d="M 385.3 193.85937 
L 429.986092 193.85937 
L 429.986092 168.03752 
L 385.3 168.03752 
z
" clip-path="url(#pe25601531f)" style="fill: url(#h16c27e1a42); stroke: #dd8452; stroke-linejoin: miter"/>
   </g>
   <g id="patch_15">
    <path d="M 516.729681 193.85937 
L 561.415773 193.85937 
L 561.415773 129.417013 
L 516.729681 129.417013 
z
" clip-path="url(#pe25601531f)" style="fill: url(#h16c27e1a42); stroke: #dd8452; stroke-linejoin: miter"/>
   </g>
   <g id="patch_16">
    <path d="M 648.159363 193.85937 
L 692.845455 193.85937 
L 692.845455 173.426428 
L 648.159363 173.426428 
z
" clip-path="url(#pe25601531f)" style="fill: url(#h16c27e1a42); stroke: #dd8452; stroke-linejoin: miter"/>
   </g>
   <g id="text_16">
    <text style="font-size: 8px; font-family: 'Times New Roman'; text-anchor: middle; fill: #262626" x="100.097591" y="180.354271" transform="rotate(-0 100.097591 180.354271)">43</text>
   </g>
   <g id="text_17">
    <text style="font-size: 8px; font-family: 'Times New Roman'; text-anchor: middle; fill: #262626" x="231.527273" y="177.659817" transform="rotate(-0 231.527273 177.659817)">55</text>
   </g>
   <g id="text_18">
    <text style="font-size: 8px; font-family: 'Times New Roman'; text-anchor: middle; fill: #262626" x="362.956954" y="121.749898" transform="rotate(-0 362.956954 121.749898)">304</text>
   </g>
   <g id="text_19">
    <text style="font-size: 8px; font-family: 'Times New Roman'; text-anchor: middle; fill: #262626" x="494.386636" y="47.427877" transform="rotate(-0 494.386636 47.427877)">635</text>
   </g>
   <g id="text_20">
    <text style="font-size: 8px; font-family: 'Times New Roman'; text-anchor: middle; fill: #262626" x="625.816317" y="108.726704" transform="rotate(-0 625.816317 108.726704)">362</text>
   </g>
   <g id="text_21">
    <text style="font-size: 8px; font-family: 'Times New Roman'; text-anchor: middle; fill: #262626" x="144.783683" y="190.009397" transform="rotate(-0 144.783683 190.009397)">0</text>
   </g>
   <g id="text_22">
    <text style="font-size: 8px; font-family: 'Times New Roman'; text-anchor: middle; fill: #262626" x="276.213364" y="181.47696" transform="rotate(-0 276.213364 181.47696)">38</text>
   </g>
   <g id="text_23">
    <text style="font-size: 8px; font-family: 'Times New Roman'; text-anchor: middle; fill: #262626" x="407.643046" y="164.187547" transform="rotate(-0 407.643046 164.187547)">115</text>
   </g>
   <g id="text_24">
    <text style="font-size: 8px; font-family: 'Times New Roman'; text-anchor: middle; fill: #262626" x="539.072727" y="125.567041" transform="rotate(-0 539.072727 125.567041)">287</text>
   </g>
   <g id="text_25">
    <text style="font-size: 8px; font-family: 'Times New Roman'; text-anchor: middle; fill: #262626" x="670.502409" y="169.576455" transform="rotate(-0 670.502409 169.576455)">91</text>
   </g>
   <g id="text_26">
    <text style="font-weight: 600; font-size: 9px; font-family: 'Times New Roman'; text-anchor: middle; fill: #2e8b57" x="122.440637" y="166.59512" transform="rotate(-0 122.440637 166.59512)">-100.0%</text>
   </g>
   <g id="text_27">
    <text style="font-weight: 600; font-size: 9px; font-family: 'Times New Roman'; text-anchor: middle; fill: #2e8b57" x="253.870319" y="163.900666" transform="rotate(-0 253.870319 163.900666)">-30.9%</text>
   </g>
   <g id="text_28">
    <text style="font-weight: 600; font-size: 9px; font-family: 'Times New Roman'; text-anchor: middle; fill: #2e8b57" x="385.3" y="107.990747" transform="rotate(-0 385.3 107.990747)">-62.2%</text>
   </g>
   <g id="text_29">
    <text style="font-weight: 600; font-size: 9px; font-family: 'Times New Roman'; text-anchor: middle; fill: #2e8b57" x="516.729681" y="33.668726" transform="rotate(-0 516.729681 33.668726)">-54.8%</text>
   </g>
   <g id="text_30">
    <text style="font-weight: 600; font-size: 9px; font-family: 'Times New Roman'; text-anchor: middle; fill: #2e8b57" x="648.159363" y="94.967553" transform="rotate(-0 648.159363 94.967553)">-74.9%</text>
   </g>
   <g id="legend_1">
    <g id="patch_17">
     <path d="M 217.140625 246.652184 
L 553.459375 246.652184 
L 553.459375 231.210152 
L 217.140625 231.210152 
z
" style="fill: #ffffff; stroke: #262626; stroke-linejoin: miter"/>
    </g>
    <g id="patch_18">
     <path d="M 220.740625 241.110152 
L 238.740625 241.110152 
L 238.740625 234.810152 
L 220.740625 234.810152 
z
" style="fill: url(#h8cec2fd247); stroke: #4c78a8; stroke-linejoin: miter"/>
    </g>
    <g id="text_31">
     <text style="font-size: 9px; font-family: 'Times New Roman'; text-anchor: start; fill: #262626" x="245.940625" y="241.110152" transform="rotate(-0 245.940625 241.110152)">Manual workload (raw-&gt;manual)</text>
    </g>
    <g id="patch_19">
     <path d="M 383.973906 241.110152 
L 401.973906 241.110152 
L 401.973906 234.810152 
L 383.973906 234.810152 
z
" style="fill: url(#h16c27e1a42); stroke: #dd8452; stroke-linejoin: miter"/>
    </g>
    <g id="text_32">
     <text style="font-size: 9px; font-family: 'Times New Roman'; text-anchor: start; fill: #262626" x="409.173906" y="241.110152" transform="rotate(-0 409.173906 241.110152)">Remaining after auto (semantic-aware)</text>
    </g>
   </g>
  </g>
 </g>
 <defs>
  <clipPath id="pe25601531f">
   <rect x="47" y="11.355024" width="676.6" height="182.504346"/>
  </clipPath>
 </defs>
 <defs>
  <pattern id="h8cec2fd247" patternUnits="userSpaceOnUse" x="0" y="0" width="72" height="72">
   <rect x="0" y="0" width="73" height="73" fill="#dbe9f6"/>
   <path d="M -36 36 
L 36 -36 
M -30 42 
L 42 -30 
M -24 48 
L 48 -24 
M -18 54 
L 54 -18 
M -12 60 
L 60 -12 
M -6 66 
L 66 -6 
M 0 72 
L 72 0 
M 6 78 
L 78 6 
M 12 84 
L 84 12 
M 18 90 
L 90 18 
M 24 96 
L 96 24 
M 30 102 
L 102 30 
M 36 108 
L 108 36 
M -36 36 
L 36 108 
M -30 30 
L 42 102 
M -24 24 
L 48 96 
M -18 18 
L 54 90 
M -12 12 
L 60 84 
M -6 6 
L 66 78 
M 0 0 
L 72 72 
M 6 -6 
L 78 66 
M 12 -12 
L 84 60 
M 18 -18 
L 90 54 
M 24 -24 
L 96 48 
M 30 -30 
L 102 42 
M 36 -36 
L 108 36 
" style="fill: #4c78a8; stroke: #4c78a8; stroke-width: 1.0; stroke-linecap: butt; stroke-linejoin: miter"/>
  </pattern>
  <pattern id="h16c27e1a42" patternUnits="userSpaceOnUse" x="0" y="0" width="72" height="72">
   <rect x="0" y="0" width="73" height="73" fill="#f9e3d2"/>
   <path d="M 0 69 
L 72 69 
M 0 63 
L 72 63 
M 0 57 
L 72 57 
M 0 51 
L 72 51 
M 0 45 
L 72 45 
M 0 39 
L 72 39 
M 0 33 
L 72 33 
M 0 27 
L 72 27 
M 0 21 
L 72 21 
M 0 15 
L 72 15 
M 0 9 
L 72 9 
M 0 3 
L 72 3 
M 3 72 
L 3 0 
M 9 72 
L 9 0 
M 15 72 
L 15 0 
M 21 72 
L 21 0 
M 27 72 
L 27 0 
M 33 72 
L 33 0 
M 39 72 
L 39 0 
M 45 72 
L 45 0 
M 51 72 
L 51 0 
M 57 72 
L 57 0 
M 63 72 
L 63 0 
M 69 72 
L 69 0 
" style="fill: #dd8452; stroke: #dd8452; stroke-width: 1.0; stroke-linecap: butt; stroke-linejoin: miter"/>
  </pattern>
 </defs>
</svg>
